<?xml version="1.0" encoding="utf-8"?>
<!-- Generator: Adobe Illustrator 24.0.3, SVG Export Plug-In . SVG Version: 6.00 Build 0)  -->
<svg version="1.0" xmlns="http://www.w3.org/2000/svg" xmlns:xlink="http://www.w3.org/1999/xlink" x="0px" y="0px"
	 viewBox="0 0 467.4 582.1" style="enable-background:new 0 0 467.4 582.1;" xml:space="preserve">
<style type="text/css">
	.st0{fill-rule:evenodd;clip-rule:evenodd;fill:#FCCD9D;}
	.st1{fill-rule:evenodd;clip-rule:evenodd;fill:#DDB087;}
	.st2{fill-rule:evenodd;clip-rule:evenodd;fill:#996633;}
	.st3{fill-rule:evenodd;clip-rule:evenodd;fill:#83572C;}
	.st4{fill-rule:evenodd;clip-rule:evenodd;fill:#49BB95;}
	.st5{fill-rule:evenodd;clip-rule:evenodd;fill:#3DA080;}
	.st6{fill-rule:evenodd;clip-rule:evenodd;fill:#DEF4FF;}
	.st7{fill-rule:evenodd;clip-rule:evenodd;fill:#FFCC66;}
	.st8{fill-rule:evenodd;clip-rule:evenodd;fill:#FBBA42;}
	.st9{fill-rule:evenodd;clip-rule:evenodd;fill:#A4DEFC;}
	.st10{fill-rule:evenodd;clip-rule:evenodd;fill:#FFFFFF;}
	.st11{fill-rule:evenodd;clip-rule:evenodd;fill:#999999;}
	.st12{fill-rule:evenodd;clip-rule:evenodd;fill:#333333;}
	.st13{fill-rule:evenodd;clip-rule:evenodd;fill:#003366;}
	.st14{fill-rule:evenodd;clip-rule:evenodd;fill:#666666;}
	.st15{fill-rule:evenodd;clip-rule:evenodd;fill:#ACACAC;}
	.st16{fill-rule:evenodd;clip-rule:evenodd;fill:#CCCCCC;}
	.st17{fill-rule:evenodd;clip-rule:evenodd;fill:#004F75;}
	.st18{fill-rule:evenodd;clip-rule:evenodd;fill:#006699;}
	.st19{fill-rule:evenodd;clip-rule:evenodd;fill:#FBB555;}
	.st20{fill-rule:evenodd;clip-rule:evenodd;fill:#0083C1;}
	.st21{fill-rule:evenodd;clip-rule:evenodd;fill:#003955;}
	.st22{fill-rule:evenodd;clip-rule:evenodd;fill:#BC8E64;}
	.st23{fill-rule:evenodd;clip-rule:evenodd;fill:#4B2E2C;}
	.st24{fill-rule:evenodd;clip-rule:evenodd;fill:#392422;}
	.st25{fill-rule:evenodd;clip-rule:evenodd;fill:#993300;}
	
		.st26{fill-rule:evenodd;clip-rule:evenodd;fill:none;stroke:#993300;stroke-width:1.1534;stroke-linecap:round;stroke-linejoin:round;stroke-miterlimit:10;}
	
		.st27{fill-rule:evenodd;clip-rule:evenodd;fill:none;stroke:#993300;stroke-width:1.0593;stroke-linecap:round;stroke-linejoin:round;stroke-miterlimit:10;}
	.st28{fill-rule:evenodd;clip-rule:evenodd;fill:#ECAA08;}
	.st29{fill-rule:evenodd;clip-rule:evenodd;fill:#FABA1D;}
	
		.st30{fill-rule:evenodd;clip-rule:evenodd;fill:none;stroke:#993300;stroke-width:0.8938;stroke-linecap:round;stroke-linejoin:round;stroke-miterlimit:10;}
	.st31{opacity:0.9;fill-rule:evenodd;clip-rule:evenodd;fill:#A4DEFC;}
</style>
<g id="Layer_4">
</g>
<g id="Layer_3">
	<g>
		<path class="st0" d="M128,125.2l25.6-12c4,3.6,8.1,5.4,12.4,5.4c1,7.6,1.6,14.8,2,21.4c0.4,7.5,0.4,14.4,0.1,20.5
			c-0.7,13.2-3,23-7,29.6c-15.4-9.2-27.9-26.4-37.7-51.7c0.7-0.8,1.3-1.8,1.8-3C126.4,132.7,127.3,129.3,128,125.2z"/>
		<g>
			<path class="st1" d="M137.1,153.1c-0.2-0.2-0.4-0.4-0.7-0.7c-4.5-4.5-8.3-10.3-11.2-17.4c1.1-2.5,2-5.8,2.8-10l25.6-12
				c4,3.6,8.1,5.4,12.4,5.4c1,7.6,1.6,14.8,2,21.4c-2.3,4.4-5.3,8.4-9.1,11.9c-1.3,1.2-2.5,2.3-3.8,3.2
				C148.6,157,142.6,156.4,137.1,153.1z"/>
		</g>
	</g>
	<g>
		<path class="st2" d="M238,517.4c0.5,1.3,1.3,2.6,2.3,4c1.2,1.7,2.7,3.5,4.5,5.5c3.5,3.7,3.4,7-0.1,10c-0.5,0.4-1.1,0.8-1.7,1.2
			c-0.1,0.1-0.3,0.2-0.4,0.2c-5.6,3.3-12.1,3.6-19.7,0.9c-0.6-0.2-1.1-0.5-1.6-0.7c-3.9-1.7-6-3.7-6.2-6.2c-0.1-1.5,0.5-3.2,1.7-5
			c1.3-1.6,2.4-3.2,3.4-4.7c0.4-0.7,0.8-1.3,1.2-1.9c1.1-2,1.8-3.7,2.1-5.3c4.2,1,8.8,1.1,13.8,0.1
			C237.5,516.2,237.8,516.8,238,517.4z"/>
	</g>
	<g>
		<path class="st3" d="M237.1,524.4c-0.1-0.1-0.2-0.2-0.3-0.3c-2.5-2.6-5.3-3.8-8.5-3.8c-2.5,0-4.9,0.7-7.2,2
			c-0.3,0.2-0.6,0.4-0.9,0.5c0.4-0.7,0.8-1.3,1.2-1.9c1.1-2,1.8-3.7,2.1-5.3c4.2,1,8.8,1.1,13.8,0.1c0.2,0.6,0.4,1.2,0.7,1.7
			c0.5,1.3,1.3,2.6,2.3,4c1.2,1.7,2.7,3.5,4.5,5.5c3.5,3.7,3.4,7-0.1,10c-0.5,0.4-1.1,0.8-1.7,1.2c0-0.5,0-1-0.1-1.5
			c-0.4-3.5-1.8-6.8-4-10C238.3,525.8,237.7,525,237.1,524.4z"/>
	</g>
	<g>
		<g>
			<path class="st2" d="M128,524.7c4.7-1.2,8.9-3,12.6-5.6c1.4-1,2.7-2.1,3.9-3.3c6.9,2,15.3,2.3,25.1,0.9c0.4,0,0.9-0.1,1.3-0.1
				c0.9,3.5,1.4,7.2,1.3,10.9c-0.1,2.4-0.4,4.8-0.8,7.2c-0.9,0.1-1.8,0.2-2.7,0.4c-22.5,2.9-40.6,2.7-54.4-0.7
				C113.2,530.2,117.7,527,128,524.7z"/>
		</g>
		<g>
			<path class="st3" d="M168.8,535c0.1-3.6-3-7-9.5-10.1c-6.4-3.1-12.7-5.1-18.7-5.8c1.4-1,2.7-2.1,3.9-3.3c6.9,2,15.3,2.3,25.1,0.9
				c0.4,0,0.9-0.1,1.3-0.1c0.9,3.5,1.4,7.2,1.3,10.9c-0.1,2.4-0.4,4.8-0.8,7.2C170.6,534.8,169.7,534.9,168.8,535z"/>
		</g>
	</g>
	<g>
		<path class="st4" d="M198.4,360.2c-4.9-1.1-7.7-1.2-8.3-0.3c-0.6,0.9-1.2,2.3-1.7,4.3l-7,40.9c0,0.2,0,0.4-0.1,0.6
			c0,0.2,0,0.4-0.1,0.7c-0.1,1.1-0.2,2.2-0.4,3.3c-1.5,14.2-2.4,28.4-2.8,42.6c-0.4,13.7-0.2,27,0.7,39.9l2.1,20.1
			c-0.4,0.3-0.9,0.7-1.3,1c-2.1,1.8-4.6,3.1-7.5,3.7l-1.9,0.6c-0.2,0.1-0.5,0.1-0.7,0.2c-0.3,0.1-0.6,0.1-0.8,0.2l-0.6,0.2
			c-0.4,0.1-0.9,0.2-1.3,0.4c-9.6,2.6-17.9,3.3-25,2.1c-1.8-0.3-3.5-0.7-5.1-1.2c-2.4-0.8-4.7-1.8-6.8-3.1l-0.2-7.6
			c0-0.3,0-0.7,0-1.1c-1.2-47,1.4-92.7,8-137.2c0.3-2.3,0.7-4.6,1.1-6.8l0.5-3.2c0.1-0.9,0.3-1.7,0.4-2.5l6.4-40.7l86.3-22.5
			l9.7,52.8l0,0l0.3,1.6c0,0.1,0,0.2,0,0.3c3,18.6,5,37.3,6.2,55.9c0.3,4.3,0.5,8.6,0.7,12.9c0,0.4,0,0.8,0,1.3
			c1,27.3-0.1,54.5-3.1,81.8c-0.5,4.7-1.1,9.4-1.7,14.1c-2,0.7-4,1.2-5.9,1.6c-0.1,0-0.2,0-0.3,0c-0.3,0.1-0.7,0.2-1,0.2
			c-4.9,0.9-9.5,0.8-13.8-0.1c-3.9-0.9-7.5-2.6-10.9-5.1l0.6-10.1c0-0.2,0-0.4,0-0.6c1.3-25.2,0.5-50.1-2.2-74.7
			c-1.5-13.4-3.6-26.8-6.4-40.1c-1.2-5.8-2.5-11.5-3.9-17.2C200,366.3,199.2,363.2,198.4,360.2z"/>
	</g>
	<g>
		<path class="st5" d="M242.2,347.6c0.1,0.6,0.2,1.3,0.3,1.9c3.7,23,5.9,45.9,6.8,68.8c0,0.4,0,0.8,0,1.3c1,27.3-0.1,54.5-3.1,81.8
			c-0.5,4.7-1.1,9.4-1.7,14.1c-2,0.7-4,1.2-5.9,1.6c-0.1,0-0.2,0-0.3,0c1.5-9,2.2-17,2.2-23.9c0-27.8-2.5-52.5-7.5-74.1
			c-2.1-9.2-4.9-18.5-8.4-27.9c-5.2-3.3-10.5-5-15.9-5c-1.5,0-2.8,0.1-4.1,0.2c-1.2-5.8-2.5-11.5-3.9-17.2c-0.8-3.1-1.6-6.2-2.4-9.2
			c-5.6-2.4-9.4,1.8-11.4,12.6c-2,10.8-3.9,23.2-5.6,37.2c-1.7,14-2.8,28.1-3.2,42.3c-0.4,13.7-0.2,27,0.7,39.9l2.1,20.1
			c-0.4,0.3-0.9,0.7-1.3,1c-2.1,1.8-4.6,3.1-7.5,3.7l-1.9,0.6c-0.2,0.1-0.5,0.1-0.7,0.2c-0.3,0.1-0.6,0.1-0.8,0.2l-0.6,0.2
			c-0.4,0.1-0.9,0.2-1.3,0.4c-1.8-15-2.7-32.5-2.7-52.3c0-4.4,0.1-8.9,0.2-13.4c0.5-18.7,2-38,4.5-57.8c0.1-0.6,0.2-1.3,0.3-1.9
			c-0.7-1.3-1.5-2.6-2.3-3.8c-7.9-12.6-16.9-18.9-26.9-18.9c-0.7,0-1.4,0-2.1,0.1c0.3-2.3,0.7-4.6,1.1-6.8c0.2-1.5,0.5-3.1,0.8-4.6
			l0.1-0.4c0.1-0.5,0.1-1,0.2-1.5l6.3-39.9l86.3-22.5L242.2,347.6L242.2,347.6z"/>
	</g>
	<g>
		<path class="st6" d="M159.7,275.6c-0.3,0.8-0.6,1.7-0.9,2.6l-1.3,6.2l30.2-0.5c1.7-0.1,3.5-0.2,5.2-0.3h0c1.5-0.1,3-0.2,4.5-0.3
			c0.6,0,1.2-0.1,1.8-0.1h0.1c0.1,0,0.2,0,0.3,0c2.6-0.2,5-0.5,7.1-0.8c0.5-0.1,1.1-0.2,1.6-0.3c0.2,0,0.5-0.1,0.7-0.1
			c1-0.2,2-0.3,2.9-0.5c4.2-0.9,7.2-2,9-3.3c0.1-0.1,0.2-0.1,0.3-0.2c0.1-0.1,0.2-0.2,0.4-0.3c0.5-0.4,1.1-0.8,1.6-1.1
			c0.9-0.7,1.8-1.2,2.5-1.7c0.6-0.4,1.6-0.8,3-1.2c0.3-0.1,0.7-0.2,1-0.3c0.6-0.2,1.3-0.3,2.1-0.5c0.4-0.1,0.7-0.1,1.1-0.2h6.8
			c0.1,0,0.1,0,0.2-0.1c0.5-0.1,0.9-0.3,1.4-0.4l12.3,67.5c-3.1,2.4-6.2,4.6-9.3,6.6c-0.6,0.4-1.3,0.8-1.9,1.2
			c-11.2,6.8-22.7,10.4-34.3,10.9c-0.9,0-1.8,0.1-2.7,0.1L191.6,306l9.5,53.1c-0.9,0.3-1.8,0.7-2.7,1c-3.3,1.1-6.5,2-9.7,2.7
			c-5,1.1-10,1.7-14.9,1.8c-11.7,0.3-23-2.1-34-7.3c-2.5-1.2-5-2.5-7.5-4l3.9-53.1c-3.1-1.2-6.2-2.6-9.2-4.4
			c-5.1-2.9-9.9-6.7-14.5-11.2c-10-10.9-16.8-34-20.4-69.3C91,205,91,195.8,92.3,187.8c2.8-17.1,10.8-31.1,23.8-42.2
			c1.1-1,2.1-1.9,3-2.9c1-1,1.9-1.9,2.8-2.9c1.3-1.4,2.5-2.9,3.6-4.3c8.5,22.1,19.4,37.1,32.8,45.1c3.5-5.7,5.6-14.3,6.2-25.8
			c0.3-5.3,0.2-11.3-0.2-17.9c-0.3-5.7-0.9-11.9-1.7-18.6c2.3,0.5,4.6,1,6.9,1.4c1.4,0.2,2.9,0.4,4.3,0.6c7.1,0.8,14.3,0.9,21.8,0.3
			c10.2-1.7,21.3,4.7,33.5,19.1v14.6l10.1,98.5h-6.4c-0.5,0.1-0.9,0.2-1.4,0.3c-0.6,0.2-1.2,0.3-1.8,0.5c-2.3,0.8-4.4,1.8-6.5,3
			c-0.1,0.1-0.2,0.2-0.4,0.3c-0.5,0.4-1,0.8-1.4,1.2c-1.5,1.3-2.9,2.5-4.2,3.5c-3.7,2.9-6.9,4.9-9.5,6c-3.7-0.4-7.4-0.8-10.9-1.4
			c-0.3,0-0.5-0.1-0.8-0.1c-2.8-0.4-5.6-0.9-8.3-1.4c-1-0.2-1.9-0.4-2.9-0.6c-5.1-1.1-10-2.4-14.7-3.9v0c-1.3,1.4-2.5,2.7-3.6,4.1
			C163.4,268,161.2,271.8,159.7,275.6z M169.8,260.2c0,0,0,0.1,0,0.1V260.2L169.8,260.2z"/>
		<path class="st7" d="M246.1,253.8c-1.1,0.2-2.3,0.3-3.5,0.5c-0.3,0.1-0.6,0.1-1,0.2c-0.7,0.1-1.4,0.3-2.1,0.4
			c-0.3,0.1-0.6,0.1-0.9,0.2c-1,0.2-2,0.5-2.9,0.7c-0.9,0.2-1.7,0.4-2.4,0.6c-0.5,0.1-1,0.3-1.5,0.4c-0.1,0-0.2,0.1-0.3,0.1
			c-1,1.1-1.9,2.1-2.6,3.1c-0.2,0.3-0.5,0.6-0.7,0.9l3.3-1c0.2,0,0.5-0.1,0.8-0.1c1.1-0.1,2.2-0.1,3.3,0.1c0.3,0.1,0.6,0.1,0.9,0.2
			c0.7,0.2,1.3,0.4,2,0.6l8,3.5c0.4,2.3,0,4.1-1.3,5.6c-0.5,0.5-1.1,1-1.8,1.4c-0.1,0-0.1,0.1-0.2,0.1c-0.4,0.3-0.9,0.5-1.5,0.7
			c-0.2,0.1-0.4,0.1-0.6,0.2c-0.4,0.1-0.9,0.3-1.4,0.4c-0.1,0-0.1,0.1-0.2,0.1h-6.8c-0.4,0.1-0.8,0.1-1.1,0.2c0.9-0.5,1.9-1,2.8-1.5
			c0.1,0,0.1-0.1,0.2-0.1c0.2-0.1,0.5-0.3,0.7-0.4c-0.4-0.1-0.7-0.2-1.1-0.3c-0.3-0.1-0.6-0.2-0.8-0.3c-1.7-0.5-3.3-0.8-4.8-0.9
			c-0.7-0.1-1.4-0.1-2-0.1c-0.8,0-1.6,0-2.4,0.1c-1.4,1.5-2.9,2.9-4.4,4.2c-0.1,0.1-0.1,0.1-0.2,0.2c-1.9,1.8-3.7,3.2-5.4,4.3
			c-0.6,0.4-1.1,0.7-1.7,1.1c-0.3,0.1-0.7,0.1-1,0.2c-1.1,0.2-2.3,0.3-3.4,0.5c0,0-0.1,0-0.1,0c-2.8,0.3-5.6,0.6-8.6,0.7
			c-0.1,0-0.2,0-0.3,0c-0.2,0-0.4,0-0.5,0c-0.6,0-1.1,0-1.7,0c-0.2,0-0.3,0-0.5,0c-1.5,0-3.2-0.1-5-0.2c-3.3-0.2-7.2-0.7-11.7-1.3
			c-1.9-0.3-3.8-0.5-5.9-0.9c-0.3,0-0.6-0.1-1-0.1c-5.4-0.9-9.8-1.7-13-2.6c1.5-3.8,3.7-7.6,6.5-11.2c1.1-1.4,2.3-2.8,3.6-4.1v0
			c4.7,1.5,9.6,2.8,14.7,3.9c1,0.2,1.9,0.4,2.9,0.6c2.7,0.5,5.4,1,8.3,1.4c0.3,0,0.5,0.1,0.8,0.1c3.6,0.5,7.2,1,10.9,1.4
			c2.6-1.1,5.8-3.1,9.5-6c1.3-1,2.8-2.2,4.2-3.5c0.5-0.4,1-0.8,1.4-1.2c0.1-0.1,0.2-0.2,0.4-0.3c2.1-1.3,4.3-2.3,6.5-3
			c0.6-0.2,1.2-0.4,1.8-0.5c0.5-0.1,0.9-0.2,1.4-0.3h6.4h6.4C245.9,253.1,246.1,253.4,246.1,253.8z"/>
		<path class="st8" d="M231.6,259.9l-3.3,1c0.2-0.3,0.4-0.6,0.7-0.9c0.7-1,1.6-2,2.6-3.1c0.1,0,0.2-0.1,0.3-0.1
			c0.5-0.1,1-0.3,1.5-0.4c0.8-0.2,1.6-0.4,2.4-0.6c0.9-0.2,1.9-0.5,2.9-0.7c0.3-0.1,0.6-0.1,0.9-0.2c0.7-0.1,1.4-0.3,2.1-0.4
			c0.3-0.1,0.7-0.1,1-0.2c1.2-0.2,2.4-0.4,3.5-0.5c0.1,0.6-0.2,1.1-0.8,1.7c-0.6,0.6-1.8,1-3.5,1.3c-0.7,0.1-1.5,0.2-2.4,0.3
			c-0.5,0-1,0.1-1.5,0.1c-0.8,0.2-1.5,0.4-2.2,0.6c-0.1,0-0.3,0.1-0.4,0.1c-1.2,0.4-2.2,0.9-3,1.4
			C232,259.6,231.8,259.7,231.6,259.9z M231.6,273c-0.8,0.2-1.4,0.3-2.1,0.5c-0.4,0.1-0.7,0.2-1,0.3c-1.4,0.4-2.3,0.8-3,1.2
			c-0.7,0.4-1.5,1-2.5,1.7c-0.5,0.3-1,0.7-1.6,1.1c-0.1,0.1-0.2,0.2-0.4,0.3c-0.1,0.1-0.2,0.1-0.3,0.2c-1.8,1.2-4.8,2.3-9,3.3
			c-0.9,0.2-1.8,0.4-2.9,0.5c-0.2,0-0.5,0.1-0.7,0.1c-0.5,0.1-1,0.2-1.6,0.3c-2.1,0.3-4.5,0.5-7.1,0.8c-0.1,0-0.2,0-0.3,0h-0.1
			c-0.6,0-1.2,0.1-1.8,0.1c-1.4,0.1-2.9,0.2-4.5,0.3h0c-1.7,0.1-3.5,0.2-5.2,0.3l-30.2,0.5l1.3-6.2c0.3-0.9,0.6-1.7,0.9-2.6
			c3.3,0.8,7.6,1.7,13,2.6c0.3,0.1,0.7,0.1,1,0.1c2.1,0.3,4,0.6,5.9,0.9c4.5,0.6,8.4,1,11.7,1.3c1.9,0.1,3.6,0.2,5,0.2
			c0.2,0,0.3,0,0.5,0c0.6,0,1.1,0,1.7,0c0.2,0,0.4,0,0.5,0c0.1,0,0.2,0,0.3,0c3-0.1,5.8-0.3,8.6-0.7c0.1,0,0.1,0,0.1,0
			c1.1-0.1,2.3-0.3,3.4-0.5c0.3-0.1,0.6-0.1,1-0.2c0.5-0.3,1.1-0.7,1.7-1.1c1.7-1.1,3.5-2.6,5.4-4.3c0.1-0.1,0.1-0.1,0.2-0.2
			c1.5-1.3,3-2.8,4.4-4.2c0.7,0,1.5-0.1,2.4-0.1c0.7,0,1.3,0,2,0.1c1.5,0.1,3.1,0.5,4.8,0.9c0.3,0.1,0.6,0.2,0.8,0.3
			c0.4,0.1,0.7,0.2,1.1,0.3c-0.2,0.1-0.5,0.3-0.7,0.4c-0.1,0-0.1,0.1-0.2,0.1C233.4,272.1,232.5,272.6,231.6,273z"/>
		<g>
			<path class="st9" d="M229,154.2l10.1,98.5h-6.4c-0.5,0.1-0.9,0.2-1.4,0.3c-0.5-3.5-0.9-6.7-1.2-9.7c-0.5-4.3-0.8-8-0.9-11.3
				c-1,0.1-2.1,0.1-3.2,0.1c-1.8,0-3.3-0.2-4.6-0.6c1.1-1.1,2.1-2.7,3.1-4.9c2.1-4.2,3.1-9,3.1-14.2c0-8.2-1.2-15.3-3.7-21.3
				c-0.2-0.5-0.5-1-0.7-1.4c-0.5-1-1-1.9-1.4-2.8c0-0.1,0.1-0.2,0.1-0.3l-10.7-26.5l13.5,15.9c4.8-6.5,4.6-13.6-0.7-21.6
				c-5.3-7.9-10.3-12.8-15.1-14.6c-4.8-1.8-9.6-2.6-14.5-2.6c-4.1,0.2-7.3,0.3-9.6,0.4c0.5,0.8,0.9,1.7,1.4,2.6
				c-1.8,1.4-4,2.9-6.7,4.6c-0.7,0.4-1.3,0.8-2,1.2c1.8,0.8,4.5,1.9,8,3.4c-1.1,12.1-6,22.3-14.7,30.7c-2.1,2-4.7,4.1-7.7,6.2
				c-0.3,0.2-0.7,0.5-1,0.7c2.6,13.2,6.4,26.5,11.3,39.7l13.9,38.1c-1-0.2-1.9-0.4-2.9-0.6l-6.5-19.3c-7.8-18.2-13.8-36.9-18-56.4
				c-0.1-0.6-0.3-0.7-0.4-0.3c-11.4-1-20.9-3.6-28.5-7.8c-3.3-1.8-5.6-3.4-7.1-4.9c0.1-1.7,0.4-3.7,1.1-6c0.5-1.7,1-3.2,1.6-4.5
				c-1.4,0.4-3,0.7-4.9,1.1c-1.4,0.3-2.5,0.5-3.4,0.7c-0.2-2.2-0.4-4.5-0.4-7c0-4.1,0.2-7.8,0.5-11.4c0.2-2,0.4-3.9,0.7-5.7
				c1-1,1.9-1.9,2.8-2.9c-0.3,2-0.5,4-0.6,5.9c-0.3,5.2-0.1,10.1,0.7,14.9c3.4,1,7.9,0.4,13.3-1.8c-3.1,3.6-5.3,7.2-6.6,10.8
				c-1.3,4,8.9,9.5,30.7,16.4c12.1-11.7,19.1-22.9,21-33.6c0.5-1.7-1.7-3.1-6.5-4.3c-2.3-0.5-5.2-1-8.6-1.4
				c5.7-1.7,10.5-4.4,14.3-8.1c0.1-0.2,0.3-0.3,0.4-0.5c-2.8-6.8-6.3-13-10.5-18.5c1.4,0.2,2.9,0.4,4.3,0.6
				c7.1,0.8,14.3,0.9,21.8,0.3c10.2-1.7,21.3,4.7,33.5,19.1V154.2z M106,187.2c1.2-0.1,2.5-0.2,3.8-0.3c2.2,8.4,5.1,14.6,8.6,18.7
				l0.4,0.7c1,26.8,9,41.5,24.1,44.1l26.8,9.7h0c0,0,0,0.1,0,0.1c-1.3,1.4-2.5,2.7-3.6,4.1c-1.7-0.6-3.4-1.3-5.1-1.8
				c-11.9-4.2-20.8-6.4-26.6-6.4c-2.4,0-5,0.3-7.7,1c-1.7,1.3-3.5,3.1-5.4,5.5c-1.9,2.4-3.3,4.5-4.2,6.4c-0.5-0.6-1-1.3-1.5-2.1
				c-0.8-1.2-1.5-2.2-2.1-3c2.6-3.5,5.5-6.4,8.9-8.8c-5.8-11.1-10-22-12.6-32.7C107.4,212.4,106.2,200.7,106,187.2z M157.4,284.3
				l30.2-0.5c1.7-0.1,3.5-0.2,5.2-0.3h0c1.5-0.1,3-0.2,4.5-0.3c0.6,0,1.2-0.1,1.8-0.1h0.1c0.1,0,0.2,0,0.3,0c2.6-0.2,5-0.5,7.1-0.8
				c0.5-0.1,1.1-0.2,1.6-0.3c0.2,0,0.5-0.1,0.7-0.1c1-0.2,2-0.3,2.9-0.5c4.2-0.9,7.2-2,9-3.3c0.1-0.1,0.2-0.1,0.3-0.2
				c0.1-0.1,0.2-0.2,0.4-0.3c0.5-0.4,1.1-0.8,1.6-1.1c0.9-0.7,1.8-1.2,2.5-1.7c0.6-0.4,1.6-0.8,3-1.2c0.3-0.1,0.7-0.2,1-0.3
				c0.6-0.2,1.3-0.3,2.1-0.5c0.4-0.1,0.7-0.1,1.1-0.2h6.8c0.1,0,0.1,0,0.2-0.1c0.5-0.1,0.9-0.3,1.4-0.4l12.3,67.5
				c-3.1,2.4-6.2,4.6-9.3,6.6c-0.2-1.5-0.4-3.2-0.6-5c-1.3-10.9-2.7-20.3-4.3-28.2c-1-5.5-2.1-10.6-3.2-15.4
				c-1.2-5.3-2.4-10.2-3.7-14.7c-0.8-2.6-1.5-4.7-1.9-6.2c-0.9,0-2.8,1.5-5.6,4.4c-2,2-3.8,3.6-5.6,4.9c-3.7,0.6-8.8,1.3-15.1,2.1
				c-1.5,0.2-3.1,0.4-4.7,0.6c-0.1,0-0.2,0-0.3,0c-2.6,0.3-5.5,0.7-8.5,1.1l17.3,68.4c-0.9,0-1.8,0.1-2.7,0.1l-13.6-52.6l-0.9-5.1
				v-0.1l-1.9-10.5c-10.5,1.2-18,2.1-22.6,2.5c-1.5,3.9-3.6,7.7-6.2,11.3c-1.3-3.6-2.2-7.1-2.6-10.5V284.3z"/>
		</g>
		<g>
			<path class="st10" d="M118.4,148.2c-12.5,11-20.1,24.8-22.9,41.4c-1.4,8-1.4,17.2-0.2,27.5c3.7,35.3,10.5,58.5,20.4,69.3
				c3.6,3.6,7.4,6.6,11.3,9.2c-5.1-2.9-9.9-6.7-14.5-11.2c-10-10.9-16.8-34-20.4-69.3c-1.2-10.3-1.1-19.5,0.2-27.5
				c2.8-17.1,10.8-31.1,23.8-42.2c1.1-1,2.1-1.9,3-2.9C118.8,144.4,118.6,146.3,118.4,148.2z"/>
		</g>
	</g>
	<g>
		<g>
			<g>
				<path class="st11" d="M203.2,174.9c2,6.1,2.8,10.3,2.4,12.6c-0.3,2.7-1.6,4.5-4,5.4c-0.4,0.1-0.8,0.2-1.2,0.3
					c-0.3,0.1-0.6,0.1-0.9,0.2c-0.1,0-0.2,0-0.4,0.1c-0.2-0.5-0.3-1-0.2-1.5c0,0,0.1-0.1,0.1-0.1c0.3,0,0.6-0.1,0.8-0.2
					c2.4-0.7,3.7-2.3,4.1-4.9c0.6-3.7-1.9-11.9-7.5-24.6l1.7-0.6C200.3,166.8,202,171.2,203.2,174.9z"/>
			</g>
			<g>
				<path class="st11" d="M169.3,169.6l1.7-0.4c1.9,13.7,4.1,21.9,6.5,24.8c1.7,1.9,3.7,2.6,6.1,2c0.3,0,0.6-0.1,0.8-0.2
					c0,0,0.1,0,0.1,0c0.3,0.3,0.5,0.7,0.6,1.1c0,0-0.1,0.1-0.1,0.1c-1.1,0.5-1.8,0.8-2.2,1c-2.6,0.4-4.7-0.4-6.3-2.5
					c-1.5-1.7-3.1-5.7-4.6-12C171.1,179.7,170.2,175.1,169.3,169.6z"/>
			</g>
			<g>
				<path class="st12" d="M190.3,194.3c0.2,0.6,0.2,1.1-0.1,1.6c-0.3,0.4-0.8,0.7-1.3,0.9c-0.5,0.1-1,0-1.4-0.1l-2.8,0.6
					c0,0,0-0.1,0.1-0.1c-0.1-0.5-0.3-0.9-0.7-1.3l2.4-1.4c0-0.2,0.1-0.4,0.2-0.7c0.4-0.5,0.8-0.8,1.4-0.9c0.6-0.1,1.1,0,1.6,0.4
					C190,193.4,190.2,193.8,190.3,194.3z"/>
			</g>
			<g>
				<path class="st12" d="M194.5,191.3c0.5-0.2,1.1-0.2,1.7,0.1c0.2,0.1,0.4,0.3,0.6,0.5l2.7-0.1c0,0.5,0,1,0.2,1.5
					c0,0,0.1,0,0.1,0.1l-2.7,0.9c-0.3,0.4-0.7,0.7-1.2,0.9c-0.5,0.2-1.1,0.2-1.6-0.1c-0.4-0.3-0.7-0.7-0.9-1.2
					c-0.2-0.5-0.2-1-0.1-1.4C193.6,191.9,194,191.5,194.5,191.3z"/>
			</g>
		</g>
		<g>
			<path class="st13" d="M127,138.5c-1.2,20.9,2.4,40.8,10.9,59.7l-2.4,1.3c-8.4-18.6-12-38.4-11-59.4L127,138.5z"/>
		</g>
		<g>
			<path class="st14" d="M148.8,204.7c0,2.2-0.8,4.1-2.4,5.6c-1.5,1.6-3.4,2.4-5.6,2.4c-2.2,0-4.1-0.8-5.7-2.4
				c-1.5-1.5-2.3-3.4-2.3-5.6c0-2.2,0.8-4.1,2.3-5.7c1.6-1.5,3.5-2.3,5.7-2.3c2.2,0,4.1,0.8,5.6,2.3
				C148,200.6,148.8,202.5,148.8,204.7z"/>
		</g>
		<g>
			<path class="st12" d="M144.8,204.6c0,1.2-0.4,2.1-1.2,2.9c-0.8,0.8-1.7,1.2-2.8,1.2c-1.2,0-2.1-0.4-3-1.2
				c-0.8-0.8-1.2-1.7-1.2-2.9c0-1.1,0.4-2.1,1.2-2.9c0.8-0.8,1.8-1.2,3-1.2c1.1,0,2.1,0.4,2.8,1.2
				C144.4,202.5,144.8,203.5,144.8,204.6z"/>
		</g>
		<g>
			<path class="st13" d="M191.9,153.7c3.4,1.9,5.7,4.7,7,8.3l-2.5,0.7c-1-2.8-2.9-5.1-5.6-6.7c-2.3-1.3-4.8-1.9-7.2-1.8
				c-0.4,0-0.8,0.1-1.2,0.1c-0.5,0.1-1,0.2-1.5,0.4c-0.5,0.1-0.9,0.2-1.3,0.4c-0.4,0.2-0.8,0.3-1.2,0.5c-2.3,1.1-4.1,2.8-5.5,5.1
				c-1.5,2.8-2.1,5.6-1.5,8.6l-2.6,0.7c-0.7-3.8-0.1-7.3,1.8-10.6c1.3-2.2,2.9-3.9,4.8-5.2c0.4-0.2,0.9-0.5,1.4-0.8
				c-0.2-5.2-1.7-12.4-4.5-21.6c0.9-0.7,1.7-0.9,2.3-0.8c1.9,9.7,4.3,16.6,7.1,20.9c1.4-0.3,2.6-0.4,3.5-0.3
				C187.5,151.9,189.7,152.5,191.9,153.7z"/>
		</g>
	</g>
</g>
<g id="Layer_6">
	<g>
		<path class="st11" d="M249.1,531.7l-4.9,0.3L232,308.4c-0.3-3.6-2.1-5.3-5.4-5.3l-9.7,0.6l-1-5.4l13.3-0.7c3.9,0,6.4,2.6,7.6,7.7
			L249.1,531.7z"/>
		<path class="st12" d="M244.3,532l4.9-0.3l1,1.6l0.3,4c-2.3,1-4.6,1.1-6.7,0.3l-0.2-3.8L244.3,532z"/>
	</g>
	<g>
		<g>
			<path class="st15" d="M238.7,257c-0.8-0.1-1.7-0.2-2.5-0.2c-2.1-0.2-4.2-0.1-6.4,0.2c-0.8,0-1.6,0.1-2.5,0.3
				c-0.5,0.1-1,0.2-1.7,0.3l1.2-11.8c1.3-0.3,2.6-0.6,4-0.8c1.6-0.3,3.3-0.4,5.1-0.4c1.2,0,2.3,0,3.5,0.1c2.8,0.1,5.7,0.6,8.8,1.4
				l-1.7,13.4c-2.2-1.2-4.7-1.9-7.3-2.3C238.9,257,238.8,257,238.7,257z"/>
			<g>
				<path class="st16" d="M230.8,244.9l-1.1,12c-0.8,0-1.6,0.1-2.5,0.3c-0.5,0.1-1,0.2-1.7,0.3l1.2-11.8
					C228.1,245.4,229.5,245.1,230.8,244.9z"/>
			</g>
		</g>
		<g>
			<path class="st17" d="M234.6,209.5l12.9,2.3L250,247c-0.9-0.2-1.7-0.5-2.5-0.7c-2.8-0.7-5.6-1.1-8.2-1.3
				c-1.1-0.1-2.2-0.1-3.3-0.1c-1.6,0-3.2,0.1-4.7,0.4c-1.3,0.2-2.5,0.5-3.8,0.8c-0.8,0.2-1.5,0.4-2.3,0.7l5.1-38.2L234.6,209.5
				L234.6,209.5z"/>
		</g>
		<g>
			<path class="st18" d="M230.2,208.7l4.3,0.8l-3.3,35.9c-1.3,0.2-2.5,0.5-3.8,0.8c-0.8,0.2-1.5,0.4-2.3,0.7L230.2,208.7z"/>
		</g>
		<g>
			<path class="st19" d="M238.6,255.9c0.1,0,0.2,0,0.4,0.1c2.5,0.4,4.8,1.1,6.9,2.2l-2.9,25.9c-0.3-0.2-0.6-0.4-1-0.6
				c-1.4-0.7-3.1-1.1-5.1-1.3c-1.4-0.2-2.8-0.4-4.3-0.4c-1.4,0-2.7,0.1-4,0.2h-0.1c-0.1,0-0.2,0-0.3,0c-0.1,0-0.2,0-0.3,0.1
				c-1.2,0.2-2.2,0.4-3,0.5l2.9-26.5c0.8-0.1,1.5-0.3,2.3-0.4c2.1-0.3,4.1-0.4,6-0.2C237.1,255.7,237.9,255.8,238.6,255.9z"/>
			<g>
				<path class="st7" d="M230.2,255.9l-2.2,26.4c-1.2,0.2-2.2,0.4-3,0.5l2.9-26.5C228.7,256.1,229.5,256,230.2,255.9z"/>
			</g>
		</g>
		<g>
			<path class="st16" d="M223.2,282.3c0.2,0,0.8-0.2,1.8-0.3c0.8-0.1,1.7-0.3,2.9-0.5c0.1,0,0.2,0,0.3,0c0.1,0,0.2,0,0.3,0h0.1
				c1.3-0.1,2.6-0.1,4-0.1c1.5,0,2.9,0.1,4.2,0.3c1.9,0.2,3.6,0.7,5.1,1.3c0.4,0.2,0.7,0.3,1,0.5c0.3,0.2,0.7,0.4,0.9,0.7
				c0.6,0.5,1,1.1,1.2,1.8c0,0.3,0.1,0.6,0.1,0.9l-1.6,1.6l-0.4,5.6c5.7,10.1,7.3,16.1,4.9,18c-2.5,1.9-4.6,3.1-6.4,3.6
				c-1.8,0.5-3,0.7-3.4,0.7c-1.6,0-3-0.3-4.1-0.9c-1-0.5-1.4-1.1-1.4-1.7c0-0.9,1.3-2.3,3.9-4.3c1.7-1.3,3-2.2,3.7-2.8
				c-1.4,0.3-3.7,1-6.9,2.1c-3.4,1.2-5.6,2.2-6.8,3c-0.9,4.4-1,8.9-0.3,13.3c-0.3,0.9-0.7,1.4-1.1,1.4c-0.6,0-1.3-0.2-1.9-0.7
				c-1.1-0.8-2.2-2.3-3.2-4.5c-0.1-0.3-0.3-0.6-0.4-0.9c-1.2,0-2.4-0.1-3.5-0.4c-1.5-0.4-3-1-4.4-1.8c-0.6-0.7-1.1-1.4-1.6-2.1
				c-1.7-2.6-3-5.8-4-9.5c-0.1-0.1-0.3-0.3-0.4-0.4c-2.4-3.1,2.9-7.9,15.7-14.2l0.7-5.7c-0.1-0.2-0.2-0.4-0.2-0.5
				c-0.6-1.4-0.7-2.2-0.3-2.7C222,282.7,222.6,282.4,223.2,282.3z"/>
		</g>
		<g>
			<path class="st15" d="M228.6,281.4c1.3-0.1,2.6-0.1,4-0.1c1.5,0,2.9,0.1,4.2,0.3c1.9,0.2,3.6,0.7,5.1,1.3c0.4,0.2,0.7,0.3,1,0.5
				c0.3,0.2,0.7,0.4,0.9,0.7c0.6,0.5,1,1.1,1.2,1.8c0,0.3,0.1,0.6,0.1,0.9l-1.6,1.6l-0.4,5.6c5.7,10.1,7.3,16.1,4.9,18
				c-2.5,1.9-4.6,3.1-6.4,3.6c-1.8,0.5-3,0.7-3.4,0.7c-1.6,0-3-0.3-4.1-0.9c-1-0.5-1.4-1.1-1.4-1.7c0-0.9,1.3-2.3,3.9-4.3
				c1.7-1.3,3-2.2,3.7-2.8c-1.4,0.3-3.7,1-6.9,2.1c-3.4,1.2-5.6,2.2-6.8,3c-0.9,4.4-1,8.9-0.3,13.3c-0.3,0.9-0.7,1.4-1.1,1.4
				c-0.6,0-1.3-0.2-1.9-0.7c-0.4-3.2-0.5-6.6-0.5-10.3c0-4.8,0.2-8.3,0.7-10.6v0c1.7-0.6,4.7-1.9,8.9-3.9c0.3-0.4,0.6-0.9,0.9-1.4
				c0.7-1.2,1.3-2.3,1.7-3.3c-0.1-0.1-0.2-0.1-0.3-0.2c-2.7-2.2-5.2-3.6-7.7-4.1l0.9-10.5c0.1,0,0.2,0,0.3,0c0.1,0,0.2,0,0.3,0
				H228.6z M217.8,308.7c-0.3,4.3,0.3,8.2,1.9,11.8c-1.2,0-2.4-0.1-3.5-0.4c-0.2-0.4-0.4-0.7-0.5-1.1c-1.9-4-3.1-7.1-3.8-9.3
				c-0.2-0.7-0.4-1.3-0.5-1.8c0.4,0.1,0.8,0.1,1.3,0.2C214,308.3,215.8,308.4,217.8,308.7L217.8,308.7z"/>
		</g>
	</g>
</g>
<g id="Layer_2">
	<g>
		<g>
			<path class="st7" d="M250.9,546.4c0.1-0.1,0.3-0.1,0.4-0.2c8.1-3.7,14.1-8,18.2-13l19.8,2.8c0,0.2,0.1,0.3,0.1,0.5
				c0,0,0,0.1,0,0.1c0,0.1,0,0.1,0,0.2c0.1,0.6,0.2,1.3,0.4,1.9c0.8,3.9,1.3,6.6,1.6,8.1c0.1,0.5,0.2,0.8,0.2,1.1
				c0.3,1.2,0.4,2.1,0.5,2.9c0,0.4,0.1,0.7,0.1,1c0,0.9-0.2,1.8-0.7,2.6c-0.2,0.4-0.5,0.8-0.8,1.2c-2.7,3-8.9,5.1-18.7,6.2
				c-0.9,0.1-1.8,0.2-2.8,0.3c-0.1,0-0.2,0-0.4,0c-0.4,0-1.5,0.2-3.3,0.4c-0.2,0-0.4,0-0.6,0.1c-0.3,0-0.5,0.1-0.8,0.1
				c-0.2,0-0.4,0-0.7,0.1c-2.1,0.2-4.8,0.5-8.2,0.9c-0.4,0-0.8,0.1-1.2,0.1c-2.3,0.2-4.6,0.3-7,0.2c-1.8-0.1-3.6-0.2-5.5-0.5
				c-0.1,0-0.3,0-0.4-0.1c-4.5-0.6-6.8-1.7-7.1-3.2v-0.1c0-0.1,0-0.3,0-0.4c-1.7-0.2-2.9-0.5-3.8-0.9c-0.6-0.3-0.9-0.6-1.1-0.9
				c-0.8-1.5,0.2-3.1,3-4.6c3.3-0.8,9.2-3,18-6.7C250.5,546.5,250.7,546.4,250.9,546.4z"/>
		</g>
		<g>
			<path class="st19" d="M250.9,546.4c0.1-0.1,0.3-0.1,0.4-0.2c8.1-3.7,14.1-8,18.2-13l19.8,2.8c0,0.2,0.1,0.3,0.1,0.5
				c0,0,0,0.1,0,0.1c0,0.1,0,0.1,0,0.2c0.1,0.6,0.2,1.3,0.4,1.9c0.8,3.9,1.3,6.6,1.6,8.1c0.1,0.5,0.2,0.8,0.2,1.1
				c0.3,1.2,0.4,2.1,0.5,2.9c0,0.4,0.1,0.7,0.1,1c0,0.9-0.2,1.8-0.7,2.6c-0.2,0.4-0.5,0.8-0.8,1.2c-2.7,3-8.9,5.1-18.7,6.2
				c-0.9,0.1-1.8,0.2-2.8,0.3c-0.1,0-0.2,0-0.4,0c-0.4,0-1.5,0.2-3.3,0.4c-0.2,0-0.4,0-0.6,0.1c-0.3,0-0.5,0.1-0.8,0.1
				c-0.2,0-0.4,0-0.7,0.1c-2.1,0.2-4.8,0.5-8.2,0.9c-0.4,0-0.8,0.1-1.2,0.1c-2.3,0.2-4.6,0.3-7,0.2c2.3-0.3,4.4-0.5,6.4-0.7
				c1.5-0.2,3-0.3,4.3-0.5c2.3-0.3,4.4-0.5,6.2-0.7c0.9-0.1,1.7-0.2,2.4-0.3c4.4-0.5,6.8-0.8,7.2-0.9c8-1.5,12.3-3.7,13-6.8
				c0-0.3,0.1-0.5,0.1-0.8c0-0.9-0.2-2.1-0.7-3.7c-0.1,0.1-0.2,0.1-0.4,0.2c-2.7,0.9-5.5,1.6-8.5,2.3c-3,0.7-5.2,1-6.6,1
				c-6.6,0-12-1.1-16.1-3.3c-2.2-1.2-3.6-2.2-4.1-3.1C250.5,546.5,250.7,546.4,250.9,546.4z M236.8,556.5c-1.8,0.9-2.6,2-2.6,3.3
				c-1.7-0.2-2.9-0.5-3.8-0.9c0.6-0.9,1.6-1.8,2.9-2.5c2.4-1.4,5.1-2.2,8.2-2.2c0.2,0,0.3,0,0.5,0
				C240.5,554.7,238.8,555.5,236.8,556.5z"/>
		</g>
		<g>
			<path class="st19" d="M357,522.3c2.2,4.2,2.4,7.3,0.4,9.2c-1,0.4-1.9,0.7-2.8,1.1c-1.7,0.7-3.3,1.2-4.6,1.7
				c-0.8,0.3-1.5,0.6-2.2,0.8c-0.5,0.2-1,0.4-1.4,0.5c-2,0.8-3.1,1.2-3.3,1.2c-1.2,0.4-3.4,1.4-6.7,3.2c-0.1,0-0.2,0.1-0.3,0.1
				c-0.9,0.4-1.8,0.9-2.9,1.5c-1.1,0.6-2.2,1-3.3,1.4c-1.7,0.6-3.5,1-5.2,1.2c-0.2,0-0.4,0-0.6,0h0c-0.6,0-1.1,0-1.6-0.1
				c-3.2,2.2-6.3,3.5-9.2,3.7c-0.3,0-0.6,0.1-0.8,0.1c-0.1,0-0.1,0-0.2,0c-1.4,0.1-2.6,0-3.6-0.1c-0.7-0.1-1.3-0.2-1.8-0.4
				c-0.3-0.1-0.6-0.2-0.8-0.3c-1-0.5-1.4-1.2-1.3-2c0.1-0.5,0.5-1.1,1.3-1.9c-2.4,0.1-4.3,0-5.6-0.5c-1.8-0.7-2.6-1.9-2.4-3.6
				c0,0,0.1-0.1,0.1-0.1c1.2-1.1,2.5-2.2,3.8-3.3c2.3-1.9,4.8-3.6,7.5-5.4c1.7-1.1,3.4-2.1,5.1-3.2c1.4-0.8,2.9-1.6,4.5-2.4
				c7.3-3.8,15.4-7.1,24.6-10c2.2-0.7,4.4-1.4,6.7-2c0.1,0.6,2.2,3.6,6.3,9C356.8,522.1,356.9,522.2,357,522.3z"/>
		</g>
		<g>
			<path class="st7" d="M324.7,544.3c-0.2,0-0.4,0-0.6,0h0c-0.6,0-1.1,0-1.6-0.1c-3.2,2.2-6.3,3.5-9.2,3.7c-0.3,0-0.6,0.1-0.8,0.1
				c-0.1,0-0.1,0-0.2,0c-1.4,0.1-2.6,0-3.6-0.1c-0.7-0.1-1.3-0.2-1.8-0.4c-0.3-0.1-0.6-0.2-0.8-0.3c-1-0.5-1.4-1.2-1.3-2
				c0.1-0.5,0.5-1.1,1.3-1.9l0,0c0.5-0.3,1.4-0.9,2.9-2c0.3-0.2,0.5-0.4,0.7-0.5c0.8-0.6,1.4-1,1.9-1.4h-0.1
				c0.4-0.3,0.9-0.6,1.4-0.9c3-1.6,6.5-2.5,10.5-2.5c0.6,0,1.9,0.2,3.8,0.5c1.9,0.3,3.1,0.6,3.8,0.9c1.6,0.4,3,1.1,4.3,1.9
				c0.4,0.2,0.7,0.4,1,0.7c-0.1,0-0.2,0.1-0.3,0.1c-0.9,0.4-1.8,0.9-2.9,1.5c-1.1,0.6-2.2,1-3.3,1.4
				C328.2,543.7,326.4,544.1,324.7,544.3z"/>
		</g>
	</g>
	<g>
		<path class="st18" d="M347.6,163.4c3.4,11.5,6.5,24.7,9.3,39.5c0.3,1.4,0.5,2.9,0.8,4.4c3.7,17.9,5.3,31.7,4.7,41.2
			c-0.5,1.6-3.4,2.8-8.8,3.6c-1.1,0.2-2.3,0.4-3.7,0.5c-0.9,0.1-1.8,0.2-2.8,0.3c0.2,0.6,0.3,1.2,0.5,1.7c0.6,2.3,1.2,4.6,1.8,6.9
			c6,23.1,10.3,49.1,12.9,77.9c0.3,3,0.5,6.1,0.8,9.2c0.1,1.6,0.2,2.5,0.2,2.7c0.6,7.4,1,15.1,1.3,22.9l15.4,127.3
			c1.4,9.2-3,14.8-13.2,16.9c-0.5,0.1-0.9,0.2-1.4,0.3c-11.2,1.8-19.9,3.4-26,4.5c-2,0.4-4.1,1-6.3,1.7c-3.4,1.2-7.1,2.8-10.9,4.8
			c-1,0.6-2.1,1.2-3.2,1.8l-0.5,0.3c-0.2,0.2-0.5,0.3-0.8,0.5c-30.8,18.6-54.8,13.5-71.9-15.1c-3.1,0-5.8-0.2-8-0.6
			c-2.1-0.4-3.7-1-5-1.8c-2.3-1.5-3.2-3.6-2.8-6.3c0.8-10.5,1.6-21,2.3-31.5c4.5-66.9,7.1-134.1,7.8-201.5c0.2-15.7,0.2-31.3,0.2-47
			c-0.4-1.7-0.8-3.1-1.4-4.3c-0.8-1.7-1.8-3-3-3.7c-0.2-0.1-0.3-0.2-0.5-0.3c-0.2-0.1-0.3-0.1-0.5-0.2c-4.2-1.7-7.4-4.6-9.5-8.6
			c-4.2-7.9-4.2-20.3-0.1-37.2c-1.2-1.9-2.2-3.8-3-5.6c-5.5-12.2-3.3-23,6.7-32.3l-0.5,0.3c4.8-4.8,8.8-9.8,12-14.8
			c0.1,6.8,2.2,12.7,6.2,17.9c3.6,3.4,7.3,4.7,11.1,3.8c3.9-0.9,7.2-3.4,10-7.5c1-1.4,1.9-2.9,2.8-4.4c1.2-2.3,2.4-4.5,3.5-6.8
			c1.9-3.7,4-7.2,6.4-10.5c0.1-0.1,0.2-0.2,0.3-0.4c1.1-1.4,2.1-2.7,3.2-3.8c2.8-3,5.3-4.7,7.5-5.2c1.9-0.2,3.8-0.2,5.6-0.2
			c13.3,0.2,23.8,5.4,31.5,15.8C335.9,130.6,342.2,144.9,347.6,163.4z"/>
		<g>
			<path class="st11" d="M357,541.2l-4.9,0.5l-22-222.9c-0.5-3.5-2.4-5.2-5.7-5l-9.7,0.9l-1.2-5.3l13.3-1.3c3.9-0.1,6.6,2.4,8,7.4
				L357,541.2z"/>
			<path class="st12" d="M352.1,541.7l4.9-0.5l1.1,1.5l0.4,4c-2.3,1.1-4.5,1.3-6.7,0.6l-0.4-3.8L352.1,541.7z"/>
		</g>
		<g>
			<path class="st7" d="M330.2,288.3c-2-0.3-4.1-0.4-6.1-0.4c-2.9,0.1-5.8,0.5-8.7,1.3c-0.2,0.1-0.4,0.1-0.7,0.2
				c1-10.9,1-20.5,0-28.8c0-0.1,0-0.1,0-0.1c2-0.6,4.2-0.9,6.3-1.2l9.2-0.2c1.1,0.1,2.1,0.2,3.2,0.4c0.9,0.1,1.8,0.2,2.7,0.4
				c1.3,0.2,2.5,0.4,3.8,0.7l-4.6,28.8C333.7,288.8,332,288.4,330.2,288.3z"/>
			<g>
				<path class="st19" d="M340.7,260.6l-4.6,28.8c-1.7-0.5-3.5-0.9-5.3-1.1l3.3-28.8c0.9,0.1,1.8,0.2,2.7,0.4
					C338.1,260,339.4,260.3,340.7,260.6z"/>
			</g>
		</g>
		<g>
			<path class="st16" d="M334.1,286.4c1.8,0.5,3.3,1.2,4.4,2.2c1.9,1.6,1.9,3.3,0.1,5c-0.6,2.4-1.4,4.3-2.2,5.9
				c0.3,0.9,0.4,1.8,0.5,2.5c0.7,4.9-1.5,7.5-6.7,7.9l0,0.1c-0.4,0.9-0.7,1.7-0.9,2.5c3.5-0.6,5.1-0.2,4.7,1.2
				c-0.3,1.3-0.6,2.3-0.8,3c-0.1,0.5-1.1,0.9-2.8,1.3c-0.9,0.2-2.1,0.5-3.6,0.7c-4,0.6-6.4,0.9-7.1,0.9c-3.1,0-5.6-0.7-7.4-2
				c-1.6,0.3-3.1,0.3-4.4,0.1c-1.6-0.3-2.9-0.9-4.1-2c-2.9-2.5-4.5-7.4-4.9-14.6c0.2-1.5,1.7-2.6,4.5-3.3c2.8-0.8,6-1.3,9.6-1.5
				l0.5-4.6c-1.4-2.5-0.2-4.2,3.6-5.1c3.9-1,7.9-1.3,12.2-0.9C331.2,285.7,332.7,286,334.1,286.4z"/>
			<g>
				<path class="st15" d="M308.2,306.1c0.3,1.6,0.6,3,0.9,4.2c0.6,2.9,1.1,4.6,1.3,4.9c0.5,0.9,1.2,1.7,2.1,2.3
					c-1.6,0.3-3.1,0.3-4.4,0.1c-0.3-0.9-0.7-1.8-1-2.8c-0.2-0.7-0.5-1.5-0.7-2.2c-0.8-2.8-1.3-5.2-1.5-7.4c0.4,0.1,0.8,0.2,1.3,0.3
					C306.8,305.8,307.5,306,308.2,306.1z M334.1,286.4c1.8,0.5,3.3,1.2,4.4,2.2c1.9,1.6,1.9,3.3,0.1,5c-0.6,2.4-1.4,4.3-2.2,5.9
					c0.3,0.9,0.4,1.8,0.5,2.5c0.7,4.9-1.5,7.5-6.7,7.9l0,0.1c-0.4,0.9-0.7,1.7-0.9,2.5c3.5-0.6,5.1-0.2,4.7,1.2
					c-0.3,1.3-0.6,2.3-0.8,3c-0.1,0.5-1.1,0.9-2.8,1.3c-3.5-1.5-5.9-2.7-7.3-3.7c0-3.1,0.3-5.9,0.9-8.3c0.2,0,0.4,0,0.6,0
					c3.6,0,5.9-1.1,6.8-3.3c0.3-0.7,0.4-1.6,0.4-2.6l-0.2-1.3c0.3-0.7,0.6-1.8,0.8-3.4c0.1-1.1,0.2-2,0.3-2.8
					c0.1-0.1,0.3-0.1,0.4-0.2c0.8-0.7,1.2-1.8,1.2-3.4C334.5,288.1,334.3,287.2,334.1,286.4z"/>
			</g>
		</g>
		<g>
			<path class="st17" d="M319.2,121.4c-0.5-0.5-1.1-1-1.6-1.4c-5.9-4.6-14.9-7-26.9-7c-3.6,0.3-6.8,0.5-9.7,0.7
				c1.1-1.4,2.1-2.7,3.2-3.8c2.8-3,5.3-4.7,7.5-5.2c1.9-0.2,3.8-0.2,5.6-0.2c13.3,0.2,23.8,5.4,31.5,15.8
				c7,10.1,13.3,24.4,18.8,42.9c3.4,11.5,6.5,24.7,9.3,39.5c0.3,1.4,0.5,2.9,0.8,4.4c3.7,17.9,5.3,31.7,4.7,41.2
				c-3.2-1.8-7.4-3.4-12.4-4.7c-0.1-7.1-1.3-18.9-3.5-35.5c0-0.3-0.1-0.6-0.1-0.9c-2.1-16.1-4.5-29.7-7-40.8c-1-4.2-1.9-8-2.9-11.5
				C331.9,138.9,326.1,127.7,319.2,121.4z M347.1,252.8c0.2,0.6,0.3,1.2,0.5,1.7c0.6,2.3,1.2,4.6,1.8,6.9
				c6,23.1,10.3,49.1,12.9,77.9c0.3,3,0.5,6.1,0.8,9.2c0.1,1.6,0.2,2.5,0.2,2.7c0.6,7.4,1,15.1,1.3,22.9l15.4,127.3
				c1.4,9.2-3,14.8-13.2,16.9c-0.9-15.6-2.5-32.8-4.8-51.8c-0.2-1.4-0.4-2.9-0.5-4.4c-0.2-1.7-0.4-3.4-0.7-5.3
				c-0.4-7.6-1.1-16.3-2.1-26.2c-3.4-27-5.3-43.5-5.7-49.5c-0.6-9.2-1.2-17.9-1.9-26c-2.8-35.2-6-59.5-9.4-73.1
				c-0.9-3.7-1.9-6.8-3-9.2l1.9-12.2c1,0.2,1.9,0.5,2.9,0.7l1-8.3c0.6,0,1.2-0.1,1.8-0.1C346.6,252.8,346.9,252.8,347.1,252.8z
				 M322.3,529.6V453l10.9,71.8C329.7,526,326.1,527.6,322.3,529.6z M303.2,169.5c1.9-2.9,4.3-7,7.1-12.2c0.2,7.1,0.3,14.2,0.4,21.4
				c0,4.8,0,9.6,0,14.4c0,3-0.1,6-0.1,9c-0.1,3.9-0.2,7.8-0.3,11.7c-7.2,3.3-13.6,5-19.3,5c-1.6,0-3.3-0.2-5.1-0.5
				c-1-0.2-2-0.4-3-0.7c-1.4-0.4-2.6-0.9-3.6-1.4c5.1,0.2,9.3-0.4,12.7-1.9c3.4-1.5,5.6-3.3,6.8-5.3c2.3-3.6,3.9-8,4.8-13.3
				c0.7-4.1,0.9-8.8,0.8-14.1C304.2,177.9,303.8,173.8,303.2,169.5z M238,516.5l14.7-100.9L246,517.1
				C242.9,517.2,240.2,517,238,516.5z"/>
		</g>
		<g>
			<path class="st7" d="M246.7,141.8c-4.3-5.5-6.6-11.9-6.7-19.1c0.2-0.3,0.4-0.7,0.7-0.9c6.2-10.1,9.3-20.6,9.4-31.4l-1.4-12.5
				c6.6-1.4,12.4,0.7,17.5,6.2c3.8,9.3,8.6,15.5,14.3,18.5c3,1.6,6.3,2.4,9.9,2.3c1.4-0.2,2.9-0.3,4.3-0.4c-2.4,0.5-5.1,2.3-8.1,5.5
				c-1.1,1.2-2.2,2.6-3.3,4.1c-0.1,0.1-0.2,0.3-0.3,0.4c-2.5,3.6-4.8,7.3-6.8,11.3c-1.3,2.4-2.5,4.8-3.8,7.2c-0.9,1.6-1.9,3.2-3,4.8
				c-3,4.3-6.6,7-10.7,8C254.5,146.8,250.5,145.5,246.7,141.8z"/>
		</g>
		<g>
			<path class="st8" d="M246.7,122.8c-1.2-0.7-2.7-1.7-4.4-3c5.5-9.4,8.4-19,8.7-28.7V80c6.2-1.3,11.6,0.7,16.3,5.8
				c3.5,8.6,8,14.4,13.3,17.3c2.8,1.5,5.9,2.3,9.3,2.2c1.4-0.2,2.7-0.3,4-0.4c-2.3,0.4-4.8,2.1-7.5,5.1c-1.3,0.2-2.5,0.3-3.8,0.3
				c-0.7,0-2.7-0.5-6-1.4c-1.5,2.1-2.8,3.8-3.8,5.1c0,0.1-0.1,0.2-0.1,0.3c-6.2,8.3-11.4,12.5-15.6,12.5
				C254.8,126.8,251.4,125.5,246.7,122.8z"/>
		</g>
		<g>
			<path class="st20" d="M312.7,146c0.8,10.1,1.5,20.4,1.9,30.9c0.7,15.8,0.9,32,0.7,48.6c-0.1,5.8-0.2,11.6-0.4,17.5
				c-1.1,0.2-2.1,0.4-3.2,0.7c-0.9,0.3-1.8,0.7-2.8,1.1c0.3-5.3,0.6-10.7,0.9-16c0.2-5,0.4-9.9,0.5-14.9c0.1-3.9,0.2-7.8,0.3-11.7
				c0-3,0.1-6,0.1-9c0-4.8,0-9.6,0-14.4c-0.1-7.1-0.2-14.3-0.4-21.4c-0.1-1.9-0.1-3.9-0.2-5.8L312.7,146z M231.2,168.7
				c-4.2,8.4-6.2,16.8-6.2,25.2c0,8.7,2.4,15.6,7.1,20.6c4.2,3.7,8,6.2,11.5,7.5v2.4h0c0.2,9.8,0.5,24.5,1,43.9c0,1.2,0,2.5,0,3.8
				c-0.1,48.7-2.2,105.8-6.4,171.4c-1,15-2.7,38.8-5.2,71.4c-2.3-1.5-3.2-3.6-2.8-6.3c0.8-10.5,1.6-21,2.3-31.5
				c4.5-66.9,7.1-134.1,7.8-201.5c0.2-15.7,0.2-31.3,0.2-47c-0.4-1.7-0.8-3.1-1.4-4.3c-0.8-1.7-1.8-3-3-3.7
				c-0.2-0.1-0.3-0.2-0.5-0.3c-0.2-0.1-0.3-0.1-0.5-0.2c-4.2-1.7-7.4-4.6-9.5-8.6c-4.2-7.9-4.2-20.3-0.1-37.2
				c0.8-3.4,1.8-6.9,2.9-10.6c0.6-0.5,1.2-0.9,1.8-1.4c3.3-2.7,6.3-5,8.9-7C237.4,158.2,234.8,162.7,231.2,168.7z"/>
		</g>
		<g>
			<path class="st16" d="M345.7,243.5l-2.2,17.8c-1-0.2-1.9-0.5-2.9-0.7c-1.3-0.3-2.6-0.5-3.8-0.7c-0.9-0.1-1.8-0.3-2.7-0.4
				c-1.3-0.1-2.6-0.3-3.8-0.4l-9.2,0.2c-2.2,0.2-4.3,0.6-6.4,1.1c0,0,0,0.1,0,0.1c-0.8,0.2-1.5,0.4-2.3,0.7l-0.8-16.9h0.1l-0.1-0.7
				c1.1-0.2,2.1-0.4,3.2-0.6c8.2-1.5,15.8-2,22.9-1.4c2.8,0.2,5.4,0.7,8,1.2V243.5L345.7,243.5z"/>
		</g>
		<g>
			<path class="st15" d="M345.7,243.5L345.7,243.5l-2.1,17.8c-1-0.2-1.9-0.5-2.9-0.7c-1.3-0.3-2.6-0.5-3.8-0.7c0-0.2,0-0.4,0-0.6
				c0.3-4.7,0.5-8.8,0.7-12.1c0-0.4,0-0.7,0-1c-3.2-1.4-6.1-2-8.8-2c-5.3,0-10,0.4-14.3,1.2c-1,0.2-1.9,0.4-2.7,0.6l0.1,0.7h-0.1
				l-0.1-2.2h0.1l-0.1-0.7c1.1-0.2,2.1-0.4,3.2-0.6c8.2-1.5,15.8-2,22.9-1.4c2.8,0.2,5.4,0.7,8,1.2L345.7,243.5z"/>
		</g>
		<g>
			<path class="st21" d="M353.6,252c-1.1,0.2-2.3,0.4-3.7,0.5c-0.9,0.1-1.8,0.2-2.8,0.3c-0.3,0-0.5,0-0.8,0.1
				c-0.6,0.1-1.2,0.1-1.8,0.1l1.2-10.2c0.1,0,0.2,0,0.3,0.1c1.4,0.3,2.7,0.6,3.9,0.9c5.1,1.3,9.2,2.8,12.4,4.7
				C361.9,249.9,359,251.1,353.6,252z M309.2,246.7c-0.2-0.6-0.3-1.3-0.3-2c0.9-0.4,1.8-0.7,2.8-1.1l0.3,6.7
				C310.5,249.3,309.6,248.1,309.2,246.7z"/>
		</g>
	</g>
	<g>
		<path class="st0" d="M169.8,260.3L169.8,260.3c4.7,1.5,9.6,2.8,14.7,3.9c1,0.2,1.9,0.4,2.9,0.6c2.7,0.5,5.4,1,8.3,1.4
			c0.3,0,0.5,0.1,0.8,0.1c3.6,0.5,7.2,1,10.9,1.4c2.6-1.1,5.8-3.1,9.5-6c1.3-1,2.8-2.2,4.2-3.5c0.5-0.4,1-0.8,1.4-1.2
			c0.1-0.1,0.2-0.2,0.4-0.3c2.1-1.3,4.3-2.3,6.5-3c0.6-0.2,1.2-0.4,1.8-0.5c0.5-0.1,0.9-0.2,1.4-0.3h12.9c0.3,0.3,0.5,0.6,0.5,0.9
			c0.1,0.6-0.2,1.1-0.8,1.7c-0.6,0.6-1.8,1-3.5,1.3c-0.7,0.1-1.5,0.2-2.4,0.3c-0.5,0-1,0.1-1.5,0.1c-0.8,0.2-1.5,0.4-2.2,0.6
			c-0.1,0-0.3,0.1-0.4,0.1c-1.2,0.4-2.2,0.9-3,1.4c-0.2,0.2-0.5,0.3-0.7,0.5c0.2,0,0.5-0.1,0.8-0.1c1.1-0.1,2.2-0.1,3.3,0.1
			c0.3,0.1,0.6,0.1,0.9,0.2c0.7,0.2,1.3,0.4,2,0.6l6.5,3c2.4,1.5,2.9,2.6,1.5,3.2c-0.1,0.5-0.3,1.1-0.5,1.6
			c-0.2,0.5-0.5,0.9-0.9,1.3c-0.5,0.5-1.1,1-1.8,1.4c-0.1,0-0.1,0.1-0.2,0.1c-0.4,0.3-0.9,0.5-1.5,0.7c-0.2,0.1-0.4,0.1-0.6,0.2
			c-0.3,0.1-0.5,0.2-0.8,0.3c-0.2,0-0.4,0.1-0.6,0.1c-0.1,0-0.1,0.1-0.2,0.1h-6.8c-0.4,0.1-0.8,0.1-1.1,0.2
			c-0.8,0.2-1.4,0.3-2.1,0.5c-0.4,0.1-0.7,0.2-1,0.3c-1.4,0.4-2.3,0.8-3,1.2c-0.2,0.2-0.5,0.3-0.8,0.5c-0.7,1.1-1.5,2.2-2.6,3.1
			c-2.5,2.3-5.7,3.4-9.5,3.4c-0.1,0-0.8-0.1-2-0.3c-0.6,0.1-1.2,0.2-1.8,0.3c-0.2,0-0.5,0.1-0.7,0.1c-0.5,0.1-1,0.2-1.6,0.3
			c-2.1,0.3-4.5,0.5-7.1,0.8c-0.1,0-0.2,0-0.3,0h-0.1c-0.6,0-1.2,0.1-1.8,0.1c-1.4,0.1-2.9,0.2-4.5,0.3h0c-1.7,0.1-3.5,0.2-5.2,0.3
			l-30.2,0.5l1.3-6.2c0.3-0.9,0.6-1.7,0.9-2.6c1.5-3.8,3.7-7.6,6.5-11.2C167.3,263,168.5,261.7,169.8,260.3z"/>
		<g>
			<path class="st22" d="M157.4,284.3l1.3-6.2c0.3-0.9,0.6-1.7,0.9-2.6c3.3,0.8,7.6,1.7,13,2.6c0.3,0.1,0.7,0.1,1,0.1
				c2.1,0.3,4,0.6,5.9,0.9c4.5,0.6,8.4,1,11.7,1.3c1.9,0.1,3.6,0.2,5,0.2c0.2,0,0.3,0,0.5,0c0.6,0,1.1,0,1.7,0c0.2,0,0.4,0,0.5,0
				c0.1,0,0.2,0,0.3,0c3-0.1,5.8-0.3,8.6-0.7c0.1,0,0.1,0,0.1,0c1.1-0.1,2.3-0.3,3.4-0.5c0.3-0.1,0.6-0.1,1-0.2
				c0.5-0.3,1.1-0.7,1.7-1.1c1.7-1.1,3.5-2.6,5.4-4.3c0.1-0.1,0.1-0.1,0.2-0.2c1.5-1.3,3-2.8,4.4-4.2c0.7,0,1.5-0.1,2.4-0.1
				c0.7,0,1.3,0,2,0.1c1.5,0.1,3.1,0.5,4.8,0.9c0.3,0.1,0.6,0.2,0.8,0.3c0.1,0,0.2,0.1,0.3,0.1c0.3,0.1,0.5,0.2,0.8,0.3
				c0,0,0,0-0.1,0l5.1,1.5c-0.2,0-0.4,0.1-0.6,0.1c-0.1,0-0.1,0.1-0.2,0.1h-6.8c-0.4,0.1-0.8,0.1-1.1,0.2c-0.8,0.2-1.4,0.3-2.1,0.5
				c-0.4,0.1-0.7,0.2-1,0.3c-1.4,0.4-2.3,0.8-3,1.2c-0.2,0.2-0.5,0.3-0.8,0.5c-0.7,1.1-1.5,2.2-2.6,3.1c-2.5,2.3-5.7,3.4-9.5,3.4
				c-0.1,0-0.8-0.1-2-0.3c-0.6,0.1-1.1,0.2-1.8,0.3c-0.2,0-0.5,0.1-0.7,0.1c-0.5,0.1-1,0.2-1.6,0.3c-2.1,0.3-4.5,0.5-7.1,0.8
				c-0.1,0-0.2,0-0.3,0h-0.1c-0.6,0-1.2,0.1-1.8,0.1c-1.4,0.1-2.9,0.2-4.5,0.3h0c-1.7,0.1-3.5,0.2-5.2,0.3L157.4,284.3z
				 M231.5,259.8l-3.3,1c0.2-0.3,0.4-0.6,0.7-0.9c0.7-1,1.6-2,2.6-3.1c0.1,0,0.2-0.1,0.3-0.1c0.5-0.1,1-0.3,1.5-0.4
				c0.8-0.2,1.6-0.4,2.4-0.6c0.9-0.2,1.9-0.5,2.9-0.7c0.3-0.1,0.6-0.1,0.9-0.2c0.7-0.1,1.4-0.3,2.1-0.4c0.3-0.1,0.7-0.1,1-0.2
				c1.2-0.2,2.4-0.4,3.5-0.5c0.1,0.6-0.2,1.1-0.8,1.7c-0.6,0.6-1.8,1-3.5,1.3c-0.7,0.1-1.5,0.2-2.4,0.3c-0.5,0-1,0.1-1.5,0.1
				c-0.8,0.2-1.5,0.4-2.2,0.6c-0.1,0-0.3,0.1-0.4,0.1c-1.2,0.4-2.2,0.9-3,1.4C231.9,259.4,231.7,259.6,231.5,259.8z M246.5,266.8
				c-0.1,0.5-0.3,1.1-0.5,1.6l-12-5.3L246.5,266.8z"/>
		</g>
	</g>
</g>
<g id="Layer_1">
	<g>
		<path class="st23" d="M283.6,88.7c-1.3,0.6-2.7,0.9-4.3,0.9c-1.1,0-2.2-0.1-3.1-0.4c-1.4-0.5-2.7-1.4-3.8-2.5
			c-0.4-0.4-0.9-0.9-1.2-1.5c-2.6-3.6-3.8-9.3-3.8-17c0-0.2,0-0.4,0-0.5c2.4-1.7,5.2-2.6,8.3-2.6c3.7,0,6.3,1.8,7.9,5.3
			c1,2.4,1.5,5.6,1.5,9.6C285.1,83.2,284.6,86.2,283.6,88.7z"/>
		<path class="st24" d="M283.6,88.7c-0.7,1.4-1.5,2.8-2.5,4c-2.6,3.2-5.2,5-8,5.5c-1.1,0.1-2.2,0-3.3-0.4c-1.4-0.6-2.7-1.8-4-3.5
			c-0.2-0.1-0.3-0.3-0.4-0.5c0,0.2-0.1,0.4-0.1,0.6c0,0.1-0.1,0.1-0.1,0.2c0.5-2.3,0.5-4.6,0.2-6.9c0.1,0.1,0.2,0.2,0.3,0.3
			c-0.1-4.7-0.7-9.3-1.9-13.8c-0.2-0.7-0.4-1.4-0.6-2.2c0.6-1.2,1.5-2.2,2.6-3.3c0.5-0.4,1-0.8,1.4-1.2c0,0.1,0,0.3,0,0.5
			c0,7.7,1.3,13.4,3.8,17c0.4,0.6,0.8,1.1,1.2,1.5c1.1,1.2,2.4,2,3.8,2.5c1,0.3,2,0.4,3.1,0.4C280.9,89.6,282.3,89.3,283.6,88.7z"/>
	</g>
	<g>
		<path class="st7" d="M263.2,87.4c-0.1,0.3-0.2,0.6-0.2,0.9c1.4,15-2.2,25.5-10.9,31.7c-0.6,0.3-1,0.5-1.3,0.7
			c-0.2,0.2-0.4,0.3-0.6,0.4c-0.8,0.4-1.6,0.6-2.3,0.6c-0.5,0.1-1,0.1-1.4,0.1c-3-0.1-6.6-1-10.6-2.8c-8.8-5-15.5-11.3-19.8-19.1
			c-0.5-0.8-1-1.7-1.5-2.5v-0.1c-1.2-2.6-2.3-5-3-7.2c-0.8-2.2-1.4-4.2-1.8-6.2c-0.1-0.7-0.2-1.4-0.4-2.1c-0.3-2.1-0.3-4.1,0-6.1
			c0-0.2,0-0.4,0.1-0.5c0.2,0,0.3,0.1,0.4,0.2c5.4-6,12.5-10.2,21.3-12.6c11.2-2.1,21.5,4.1,30.9,18.4c0.4,2.2,0.7,4.4,1,6.4
			C263.1,87.5,263.2,87.5,263.2,87.4z"/>
	</g>
	<g>
		<g>
			<path class="st23" d="M261.1,83.1c-1.7-0.4-3.7-0.6-5.7-0.6c-0.5,0-1,0-1.5,0.1c-5.8,1-11.1,1.4-15.8,1.4c-4.2,0-8-0.5-11.3-1.3
				c-4.3-1.1-7.6-2.1-10-3c-1.6-0.6-2.8-1.1-3.4-1.4c-0.2,0.8-0.4,1.5-0.6,2.2c-0.5,2.5-0.7,5-0.7,7.4c0.1,2.9,0.7,5.7,2,8.2
				c0.3,0.4,0.6,0.9,0.8,1.5l-3.9-1.2c-3.3-1.2-5.6-2.8-6.8-4.7c-4.4-9.7-3.3-19.6,3.2-29.7c5.5-7.6,14-12.6,25.6-15.1
				c12.6-1.7,22.7,2.9,30.3,13.8c1.1,1.5,2,3.1,2.9,4.8c1.2,2.5,2,5.2,2.5,8c0.4,2.6,0.5,5.1,0.4,7.6c0.3,1.8,0.3,3.6,0,5.4
				c-0.1,0.6-0.2,1.1-0.4,1.7c-1.2-1.7-2.8-3-4.7-4.1C262.9,83.8,262,83.4,261.1,83.1z"/>
		</g>
		<g>
			<path class="st24" d="M255.1,73.2c2.1,0.2,4.1,0.8,6,1.7c0.4,0.3,0.9,0.6,1.4,0.9c2.6,1.4,4.8,3.2,6.5,5.5c0.3,1.8,0.3,3.6,0,5.4
				c-0.1,0.6-0.2,1.1-0.4,1.7c-1.2-1.7-2.8-3-4.7-4.1c-1-0.4-1.9-0.8-2.8-1.1c-1.7-0.4-3.7-0.6-5.7-0.6c-0.5,0-1,0-1.5,0.1
				c-5.8,1-11.1,1.4-15.8,1.4c-4.2,0-8-0.5-11.3-1.3c-4.3-1.1-7.6-2.1-10-3c-1.6-0.6-2.8-1.1-3.4-1.4c-0.2,0.8-0.4,1.5-0.6,2.2
				c-0.5,2.5-0.7,5-0.7,7.4c0.1,2.9,0.7,5.7,2,8.2c0.3,0.4,0.6,0.9,0.8,1.5l-3.9-1.2c-2.8-1.7-4.6-4.2-5.6-7.5
				c-2.2-9.7,0.6-17.1,8.4-22.3c0.5,0.6,1.1,1.2,1.6,1.7c2,1.9,4.2,3.7,6.6,5.3c0.2,0.1,0.3,0.2,0.4,0.3c0.7,0.4,1.4,0.8,2,1.2
				c3.4,1.7,6.8,2.9,10.4,3.4c1.2,0.1,2.5,0.2,3.8,0.2c3.7,0,7.3-0.8,10.8-2.3C251.3,75.6,253.2,74.5,255.1,73.2z"/>
		</g>
	</g>
	<g>
		<path class="st25" d="M249.7,107.8c-1.2,2.5-2.7,4.4-4.4,5.7c-1.6,1.2-3.3,1.8-5.2,1.8c-0.4,0-0.9-0.1-1.5-0.2
			c1-0.2,1.9-0.5,2.8-0.8c0.4-0.3,0.9-0.6,1.5-0.8c2.6-1.4,4.8-3.4,6.8-5.9C249.8,107.7,249.7,107.8,249.7,107.8z M223.5,104.9
			l-1.4-1.2c2.6,0,4.7-1.1,6.4-3.1c0.2-0.2,0.4-0.5,0.5-0.7c-0.1,0.4-0.2,0.9-0.4,1.3c0,0.2-0.1,0.3-0.1,0.4
			c-0.7,1.7-2.1,2.8-4.1,3.3C224.1,104.9,223.8,104.9,223.5,104.9z M244.9,90.1c-0.2,0.5-0.4,1-0.6,1.5c-1,2.6-2.6,4.1-5,4.6l-1,0.1
			l-2.2-1.3c1,0.2,2.1,0,3.3-0.4C241.5,93.7,243.4,92.2,244.9,90.1z M235,109.3c0.3-0.1,0.7-0.2,1-0.4c0.9-0.4,1.9-0.9,3-1.6
			c0.3-0.3,0.7-0.5,1.1-0.7c0.4-0.3,0.8-0.6,1.3-1.1c-0.5,0.5-0.9,1-1.3,1.6c-1.1,1.1-2.2,2.1-3.1,2.8c-0.5,0.3-1,0.6-1.4,0.9
			c-0.2,0.1-0.3,0.1-0.3,0.2c-0.1,0-0.1,0-0.1,0.1c-0.3,0.1-0.5,0.2-0.7,0.2l-6.7-16.3l3.2,6v0.1L235,109.3z"/>
	</g>
	<path class="st26" d="M232.8,93.6c0,0,0.9-6.2,10.7-6.2"/>
	<path class="st27" d="M218.2,101.5c0,0,0.8-6.2,9.1-6.2"/>
</g>
<g id="content">
	<g>
		<g>
			<path class="st28" d="M108.6,74.4c2.6-2.3,5.5-4.2,8.5-5.8c4.7-2.4,9.9-4,15.8-4.7c11.9-0.1,20.7,5.2,26.2,15.9
				c5.2,8.3,10.9,15.6,17.3,22.2c12,12.2,14.3,20.9,7.1,26.2c-4.2,3.2-8.2,5.3-12.1,6.3c-0.2,0.1-0.4,0.2-0.5,0.2
				c-1.6,0.7-3.1,1-4.6,1h-0.1c-4.5,0.9-8.9-2.5-13.1-10.1c-9.8-1.7-16.7,3.4-20.8,15.4c-4,4.5-8.1,7-12.2,7.4
				c-1.9,0.2-4.1,0-6.5-0.8c-0.2,0-0.5,0-0.8-0.1c-3.2-0.6-5.8-2.5-7.8-5.7c-2.7-4.7-4-12-4-21.9c-5.4-17.9-5.4-30.1,0-36.6
				C103.2,79.9,105.7,76.9,108.6,74.4z"/>
		</g>
	</g>
	<g>
		<path class="st29" d="M115.1,72.2c0.8-1.6,1.6-3,2.2-4c4.6-2.4,9.9-4,15.7-4.7c11.9-0.1,20.7,5.2,26.3,15.9
			c5.2,8.3,10.9,15.6,17.2,22.2c12,12.2,14.4,20.9,7.2,26.2c-4.2,3.2-8.2,5.3-12.2,6.3c-0.1,0.1-0.3,0.2-0.5,0.2
			c-4.2-2.3-8.2-6.5-12.2-12.6c-6.5-9.9-9.8-19.8-9.8-29.8v-0.1c-3.5,2.1-8.1,3.1-13.8,3.1c-4.8,0-9-0.7-12.5-2
			c-1.8-0.6-3.5-1.5-5-2.6c-2-1.4-3.5-2.8-4.4-4.3c-0.5-1.4-0.7-2.9-0.7-4.5C112.5,78.9,113.4,75.8,115.1,72.2z"/>
	</g>
	<g>
		<path class="st0" d="M120.6,96.5c5.2,1.6,11,2.1,17.5,1.4c3.4,0.2,6.2,2.9,8.3,8.2c2.8,9.5,5.8,16.7,9.1,21.5
			c-4.2,9.9-8.2,15.6-11.9,17c-0.9,0.2-1.7,0.3-2.4,0.2c-0.5,0-0.9,0-1.4-0.1c-3-0.6-6.3-2.1-10-4.7c-7.8-6.5-13.1-14-16-22.4
			c-0.4-0.9-0.8-1.8-1-2.8v-0.1c-0.8-2.8-1.3-5.3-1.7-7.7c-0.4-2.3-0.6-4.5-0.6-6.4c0-0.8,0-1.5,0-2.2c0.1-2.3,0.6-4.4,1.2-6.4
			c0.6,0.4,1.2,0.8,1.7,1.2C115.7,94.5,118,95.6,120.6,96.5z"/>
	</g>
	<g>
		<g>
			<g>
				<path class="st25" d="M123.8,117.1c-0.4,0.1-0.9,0-1.4-0.3c-0.5-0.3-0.8-0.8-1.1-1.4c-0.2-0.6-0.3-1.2-0.1-1.8
					c0.1-0.6,0.4-0.9,0.8-1.1c0.4-0.1,0.8-0.1,1.3,0.2c0.4,0.4,0.8,0.9,1,1.5c0.2,0.6,0.3,1.2,0.2,1.7
					C124.5,116.6,124.2,117,123.8,117.1z"/>
			</g>
			<g>
				<path class="st25" d="M137.2,109.3c-0.3-0.6-0.4-1.2-0.2-1.7c0.1-0.6,0.4-1,0.8-1.2c0.4-0.1,0.8,0,1.3,0.4
					c0.4,0.3,0.8,0.7,1.1,1.4c0.2,0.6,0.3,1.2,0.1,1.8c-0.1,0.6-0.3,0.9-0.7,1.1c-0.4,0.1-0.8,0-1.4-0.3
					C137.8,110.4,137.5,109.9,137.2,109.3z"/>
			</g>
		</g>
		<g>
			<path class="st25" d="M134.8,131.7c1.7-0.3,3.2-0.7,4.6-1.4c2.1-1.1,3.8-2.6,5-4.7c0.3-0.6,0.7-1.2,1-1.8c0.1-0.3,0.3-0.6,0.4-1
				c-0.6-0.4-1.3-0.7-2.2-0.8l-0.1-0.4c0-0.6,0.7-0.7,2.2-0.2c1.4,0.5,2.1,1.4,2.1,2.8c0,0.7-0.2,1-0.6,1c-0.3-0.5-0.6-1-0.8-1.5
				c-0.1-0.1-0.1-0.2-0.1-0.3c-0.2,0.7-0.5,1.5-1,2.3c-1.3,2-3,3.6-5.1,4.9c-0.3,0.1-0.6,0.3-0.9,0.4c-0.7,0.3-1.3,0.5-2,0.6
				C136.6,131.7,135.7,131.8,134.8,131.7z M126.5,112.4c0.7,5.5,1.8,10,3.4,13.5l4.5-2.1c-1.8,1.9-3.7,3-5.5,3.5
				C127.5,123.2,126.7,118.2,126.5,112.4z"/>
		</g>
	</g>
	<path class="st30" d="M114.8,111.2c0,0,1.2-4.7,8.7-4"/>
	<path class="st30" d="M130.1,106.3c0,0,1.2-4.7,8.7-4"/>
</g>
<g id="Layer_7">
	<path class="st31" d="M117.2,125.4c0,0,13.2-1.5,30.6-14.3l7.5,16.6c0,0-5.6,15-9.4,17.3C142.1,147.2,129.9,145.8,117.2,125.4z"/>
</g>
</svg>
