<?xml version="1.0" encoding="utf-8"?>
<!-- Generator: Adobe Illustrator 24.0.3, SVG Export Plug-In . SVG Version: 6.00 Build 0)  -->
<svg version="1.0" xmlns="http://www.w3.org/2000/svg" xmlns:xlink="http://www.w3.org/1999/xlink" x="0px" y="0px"
	 viewBox="0 0 1423.1 1148.2" style="enable-background:new 0 0 1423.1 1148.2;" xml:space="preserve">
<style type="text/css">
	.st0{fill-rule:evenodd;clip-rule:evenodd;fill:#FFCC66;}
	.st1{fill-rule:evenodd;clip-rule:evenodd;fill:#FEB34B;}
	.st2{fill-rule:evenodd;clip-rule:evenodd;fill:#6699FF;}
	.st3{fill-rule:evenodd;clip-rule:evenodd;fill:#4884FF;}
	.st4{fill-rule:evenodd;clip-rule:evenodd;fill:#663300;}
	.st5{fill-rule:evenodd;clip-rule:evenodd;fill:#993300;}
	.st6{fill-rule:evenodd;clip-rule:evenodd;fill:#512800;}
	.st7{fill-rule:evenodd;clip-rule:evenodd;fill:#FFB415;}
	.st8{fill-rule:evenodd;clip-rule:evenodd;fill:#82AAFF;}
	.st9{fill-rule:evenodd;clip-rule:evenodd;fill:#996633;}
	.st10{fill-rule:evenodd;clip-rule:evenodd;fill:#7E5429;}
	.st11{fill-rule:evenodd;clip-rule:evenodd;fill:#00468C;}
	.st12{fill-rule:evenodd;clip-rule:evenodd;fill:#999999;}
	.st13{fill-rule:evenodd;clip-rule:evenodd;fill:#333333;}
	.st14{fill-rule:evenodd;clip-rule:evenodd;fill:#BCBFC0;}
	.st15{fill-rule:evenodd;clip-rule:evenodd;fill:#003366;}
	.st16{fill-rule:evenodd;clip-rule:evenodd;fill:#FBB555;}
	.st17{fill-rule:evenodd;clip-rule:evenodd;fill:#663333;}
	.st18{fill-rule:evenodd;clip-rule:evenodd;fill:#3DA080;}
	.st19{fill-rule:evenodd;clip-rule:evenodd;fill:#33866B;}
	.st20{fill-rule:evenodd;clip-rule:evenodd;fill:#CCCCCC;}
	.st21{fill-rule:evenodd;clip-rule:evenodd;fill:#EBEBEB;}
	.st22{fill-rule:evenodd;clip-rule:evenodd;fill:#4B2E2C;}
	.st23{fill-rule:evenodd;clip-rule:evenodd;fill:#392422;}
	.st24{fill-rule:evenodd;clip-rule:evenodd;fill:#FFFFFF;}
	.st25{fill-rule:evenodd;clip-rule:evenodd;fill:#666666;}
	.st26{fill-rule:evenodd;clip-rule:evenodd;fill:#DEF4FF;}
	.st27{fill-rule:evenodd;clip-rule:evenodd;fill:#FFFFCC;}
	.st28{fill-rule:evenodd;clip-rule:evenodd;fill:#A4DEFC;}
	.st29{fill-rule:evenodd;clip-rule:evenodd;fill:#CC6600;}
	.st30{fill-rule:evenodd;clip-rule:evenodd;fill:#FFCC99;}
	.st31{fill-rule:evenodd;clip-rule:evenodd;fill:#FF9900;}
	.st32{fill-rule:evenodd;clip-rule:evenodd;fill:#80B8CE;}
	.st33{opacity:0.9;fill-rule:evenodd;clip-rule:evenodd;fill:#A4DEFC;}
</style>
<g id="Layer_4">
</g>
<g id="Layer_3">
	<g>
		<path class="st0" d="M522.9,702c0.3-0.9,0.6-1.9,1-2.8c1.3-3.6,2.8-6.7,4.4-9.2l40.8-4c-0.8,2.2-1.5,4.7-2.1,7.4
			c-1.4,5.6-2.7,12.3-3.9,20.1c-1.1,7.3-1.9,15-2.5,23c-0.7,9.9-1.1,20.4-1.1,31.3c0,0.2,0,0.4,0,0.6c0,2.8,0,5.6,0,8.2
			c0.1,16.9,0.5,30.4,1.1,40.6c0,0.2,0,0.4,0,0.6l0,0c2.4,1.6,4.9,3,7.3,4.3c6.2,3.3,12.5,5.7,18.8,7.2c2.5,0.6,4.1,1.2,4.7,1.8
			c0.7,0.7,1,1.9,1.1,3.7c-1,1.3-5.4,2.1-13.2,2.4c-7.8,0.4-14.6,0.6-20.2,0.6c-0.7,0-1.5,0-2.1,0c-4.4,0-7.2-0.2-8.4-0.5
			c-1.3-0.3-2.3-0.7-2.8-1.3c-0.5-0.6,0.5-6.2,3-17.1c0.1,0,0.2,0.1,0.4,0.1c-0.1-0.1-0.1-0.3-0.1-0.4c-0.1-0.3-0.3-0.7-0.4-1
			c-0.1-0.1-0.1-0.3-0.2-0.5c-1.8-4.6-4.1-9.8-6.8-15.8c-4.7-10.5-7.9-17.7-9.7-21.7c-0.3-0.8-0.6-1.4-0.8-2
			c-0.2-0.4-0.3-0.7-0.5-1.1c-2.8-7-5.1-13.7-6.9-20.1c-3-10.9-4.5-21-4.5-30.4c0-4.8,0.4-9.4,1.1-13.8
			C520.9,708.9,521.8,705.4,522.9,702z M448.9,697.5c1.7-5.9,3.7-11.6,6.2-17l31.3,10.8c2.4,3.1,4.2,6.4,5.3,9.9
			c2.6,13.3,2.5,26.6-0.5,40c-2.6,11.8-5,23.7-7,35.6c0,0.2-0.1,0.5-0.1,0.7c-0.4,2.5-0.8,4.9-1.2,7.4c-1.1,7.7-2.1,15.3-2.8,23
			c-0.3,3.5-0.6,6.9-0.9,10.4c-0.2,3.5-0.5,6.9-0.7,10.4c0,0.1,0,0.2,0,0.3c0,0,0.1,0.1,0.1,0.1c0,0,0,0,0.1,0
			c2.1,2.1,4.7,5,7.8,8.8c5.4,6.2,8.1,10,8.2,11.5c0.1,1.4,0.1,2.4,0,2.8c-0.1,0.4-0.3,0.8-0.5,1.2c-0.9,1.2-2.8,2.4-5.9,3.5
			c-4.2,1.6-9.2,2.4-15,2.3c-1.1,0-2.1,0-3.1-0.1c-1.9-0.2-3.6-0.5-5.1-0.9c-6.9-2.6-8.6-8.4-5.3-17.5l3.6-8.8l0.4-2
			c-3.2-8.3-6-16.4-8.4-24.2C442.4,763.9,440.2,727.8,448.9,697.5z"/>
	</g>
	<g>
		<path class="st1" d="M523.9,699.2c1.3-3.6,2.8-6.7,4.4-9.2l40.8-4c-0.8,2.2-1.5,4.7-2.1,7.4c-1.4,5.6-2.7,12.3-3.9,20.1
			c-1.1,7.3-1.9,15-2.5,23c-0.7,9.9-1.1,20.4-1.1,31.3c0,0.2,0,0.4,0,0.6c0,2.8,0,5.6,0,8.2c0.1,16.9,0.5,30.4,1.1,40.6
			c0,0.2,0,0.4,0,0.6l0,0c2.4,1.6,4.9,3,7.3,4.3c1.4,1.3,0.5,2.3-2.8,2.9c-3.1,0.6-6.4,0-9.8-1.9c-0.7-10.4-1.1-24.5-1.2-42.3
			c0-3.8,0-7.3-0.1-10.8c-0.2-12.2-0.6-22-1.2-29.6c-0.3-4.2-0.8-7.6-1.2-10.4c-2.5-15-7.7-22.5-15.5-22.5c-5.5,0-10.7,1.6-15.8,4.8
			c0.6-3.6,1.5-7.1,2.6-10.5C523.2,701.1,523.5,700.1,523.9,699.2z M471.5,708.1c-3.9-7.4-10.2-11.1-18.9-11.1
			c-0.5,0-1.7,0.2-3.7,0.6c1.7-5.9,3.7-11.6,6.2-17l31.3,10.8c2.4,3.1,4.2,6.4,5.3,9.9c2.6,13.3,2.5,26.6-0.5,40
			c-2.6,11.8-5,23.7-7,35.6c0,0.2-0.1,0.5-0.1,0.7c-0.4,2.5-0.8,4.9-1.2,7.4c-1.1,7.7-2.1,15.3-2.8,23c-0.3,3.5-0.6,6.9-0.9,10.4
			c-0.2,3.5-0.5,6.9-0.7,10.4c0,0.1,0,0.2,0,0.3c0,0,0.1,0.1,0.1,0.1c0,0,0,0,0.1,0c2.9,6.6,3.4,10.3,1.4,11.1
			c-1.7,0.7-4.5,1.2-8.6,1.4c0.6-8.2,1.4-17.8,2.2-28.8c0-0.2,0-0.5,0-0.7c0.6-7.9,1.2-15.1,1.7-21.6c1.6-22,2.4-36.2,2.4-42.4
			C477.8,729.4,475.7,716.1,471.5,708.1z"/>
	</g>
	<g>
		<path class="st2" d="M482,365.6l56.9-1.9c9.1,3.4,17.3,8.2,24.5,14.6c21,18.5,34.2,49.6,39.5,93.3c0.5,3.9,0.9,7.9,1.2,12
			l-25.3,15.6l-13.2-32.8c-0.1,1-0.3,2.1-0.5,3.3c-0.5,4-0.9,8-1.2,11.9c-0.2,2.9-0.4,5.8-0.5,8.8c-0.1,1.4-0.1,2.9-0.1,4.3
			c0,1.3,0,2.6,0,3.9c0,1.3,0,2.7,0.1,4.4c0.1,2.3,0.4,5.1,0.7,8.2c0.4,3.9,0.8,6.9,1.1,8.9c15.7,22.8,26.7,51.3,33.1,85.5
			c0.6,3.3,1.2,6.6,1.7,10c2.4,15.8,3.9,32.8,4.5,51c-0.6,2.7-1.9,4.9-3.8,6.7c-1.9,1.8-4.5,3.1-7.8,4c0,2-0.1,4-0.1,6.1
			c-8.7,4-17.3,7.3-25.9,10.1c-14.8,4.7-29.5,7.6-44,8.5c-10.5,0.7-20.9,0.4-31.2-0.8c-14-1.7-27.9-5.3-41.5-10.7
			c-3.1-1.2-6.1-2.5-9.2-3.9c-0.1-1.5-0.2-3.2-0.2-5c-0.1-2.2-0.2-4-0.3-5.5c-2.2-0.2-4.2-0.6-6.1-1.4c-2.8-1.1-5.2-2.9-7.2-5.4v-5
			c0-19.2,1.8-38.1,5.5-56.7c2.4-12.3,5.7-24.5,9.8-36.5c2.2-6.4,4.5-12.4,6.9-18.2c0.8-1.9,1.6-3.8,2.5-5.6c1-2.3,2.1-4.5,3.1-6.6
			c2.3-4.6,4.5-8.5,6.4-11.6l0,0c4.1-8.8,6.2-18.9,6.1-30.3c-0.1-10.2-0.7-19.5-1.9-27.9c-0.6-4.5-1.4-8.7-2.4-12.6
			c-0.8-3.2-1.6-6.2-2.6-9c-1.4,2.9-2.6,5.9-3.6,9c-0.9,2.6-1.6,5.4-2.3,8.2c-0.9,3.8-1.5,7.8-2,12c0.4,0.4,0.7,0.8,1.1,1.2
			c2,2.4,3.3,5.2,3.8,8.4c0.1,0.6,0.2,1.2,0.2,1.8l0,0.4c0.4,16.4-7.3,26.8-23,31.4c-1.5,0.4-3.2,0.6-4.9,0.6c-5.3,0-9.9-2-13.8-6.1
			c-3.8-4.1-5.6-9-5.6-14.8c0-4.2,1-7.9,3-11.2c0.6-11.4,1.7-22,3.3-31.9c0.7-4.5,1.5-8.9,2.5-13c3.3-14.7,7.8-27.5,13.6-38.3
			c1.7-3.1,3.5-6.1,5.4-8.9C449.2,381.6,463.8,370.8,482,365.6z"/>
		<g>
			<path class="st0" d="M472.7,502.6c1.1,0.7,2.1,1.4,3.2,2.1c0.4,0,1.5,0.1,3.2,0.5c0.9,0.2,2,0.4,3.2,0.6c2.2,0.5,4.4,1.5,6.4,3.1
				c1,0.7,1.9,1.6,2.8,2.6c0.4,0.4,0.8,0.9,1.2,1.3c0.1,0.1,0.2,0.3,0.3,0.4c0.6,0.7,1.1,1.4,1.6,2.2c0.7,1.1,1.3,2.4,1.8,3.7
				c0.8,2,1.4,4.2,1.8,6.6c0,0.2,0.1,0.5,0.1,0.7c0,0.3,0.1,0.6,0.1,1c0.2,1.1,0,1.7-0.6,1.6c-0.6,0-0.9-0.1-1-0.1h0
				c-2-0.3-3.5-1.2-4.7-2.6c-1.4-1.7-2.5-3.4-3.4-5.1c-0.1-0.1-0.2-0.3-0.2-0.4c-0.4,0.1-0.9,0.1-1.4,0.2c-1.5,0.4-3.1,1.2-4.7,2.3
				c-0.5,0.4-1,0.7-1.5,1.1c0.1,2.2,0.5,4.2,1.3,6.1c0.5,1.1,1,2,1.6,2.7c0.1,0.1,0.2,0.2,0.2,0.2c0.2-0.1,0.4-0.2,0.6-0.2
				c0.7-0.3,1.4-0.5,2.1-0.7c1.9-0.5,3.5-0.7,5-0.4c1.7,0.3,3.1,1.2,4.1,2.6c-1.2,1.2-3.2,2.4-5.9,3.6c-2.5,1.1-4.1,1.7-5,1.7
				c-0.8,0-1.5-0.1-2.3-0.2c-1.2-0.2-2.4-0.5-3.5-1c-0.6,0-1.1,0.1-1.6,0.1c-2,0-3.8-0.2-5.6-0.7c-0.5-0.2-1.1-0.3-1.6-0.5
				c-2.3-0.9-4.4-2.3-6.3-4.2c-0.2-0.3-0.5-0.5-0.7-0.8c-0.4-0.5-0.8-1.1-1.2-1.7c-0.4-0.7-0.8-1.4-1.2-2.1
				c-0.3-0.6-0.6-1.2-0.8-1.8c-0.4-1.2-0.8-2.4-0.9-3.6c-4.1,0.1-7.7,0.1-10.9-0.1c-2-0.1-3.9-0.3-5.6-0.5c-0.6-0.1-1.2-0.1-1.8-0.2
				c-1.1-0.2-2.1-0.3-3.1-0.5c-1.2-0.2-2.4-0.5-3.4-0.8c-0.7-0.2-1.3-0.4-2-0.7c-2.6-1-4.9-2.7-7-5.1c-3.3-3.7-5.1-8.1-5.5-13.2
				c0-0.7-0.1-1.5-0.1-2.2c0-6,1.9-11.2,5.6-15.5c1.6-1.8,3.4-3.3,5.3-4.3c2.2-1.2,4.5-1.9,7-2.1c0.4,0,0.9,0,1.3,0
				c0.8,0,1.5,0,2.2,0.1c3.5,0.4,6.7,1.9,9.4,4.4c0.1,0.1,0.3,0.2,0.4,0.4l6.2,6.8c3,3,6.2,5.9,9.7,8.6c1.4,1.1,2.9,2.2,4.5,3.3
				C472.2,502.2,472.5,502.4,472.7,502.6z"/>
			<path class="st3" d="M479.2,505.2c-1.7-0.3-2.8-0.5-3.2-0.5c-1.1-0.7-2.2-1.4-3.2-2.1h6.4C479.1,503.4,479.1,504.3,479.2,505.2z"
				/>
		</g>
		<g>
			<path class="st1" d="M443.8,518.2c1.7,0.6,3.5,1.2,5.2,1.6c0,0,0.1,0,0.1,0c3.1,0.8,6.2,1.3,9.4,1.5c0.3,0,0.6,0,0.9,0
				c0,0.2,0,0.4,0,0.6c0,0.6,0.1,1.2,0.2,1.8c-4.1,0.1-7.7,0.1-10.9-0.1c-2-0.1-3.9-0.3-5.6-0.5c-0.6-0.1-1.2-0.1-1.8-0.2
				c-1.1-0.2-2.1-0.3-3.1-0.5c-1.2-0.2-2.4-0.5-3.4-0.8c-0.7-0.2-1.3-0.4-2-0.7c-2.6-1-4.9-2.7-7-5.1c-3.3-3.7-5.1-8.1-5.5-13.2
				c0.1,0.1,0.1,0.1,0.2,0.2c2.7,3,6,5.8,9.8,8.5c2.1,1.4,4.2,2.7,6.3,3.8c1.9,1,3.9,1.9,5.9,2.7C443,517.9,443.4,518,443.8,518.2z
				 M469.4,528.9l1.4-0.7c0.5,1.9,1.5,3.9,3,6c0.9,1.3,2,2.4,3.1,3.2c0.8,0.6,1.7,1.1,2.6,1.5c-0.6,0-1.1,0.1-1.6,0.1
				c-2,0-3.8-0.2-5.6-0.7c-0.6-0.9-1.2-1.8-1.6-2.7c-0.1-0.2-0.1-0.3-0.2-0.4c-0.8-1.7-1.1-3.5-1.1-5.2
				C469.4,529.6,469.4,529.3,469.4,528.9z M487.3,517.2c1.1,0.2,2.5,0.5,4.4,0.9c0,0.2,0,0.3,0,0.5c0,1.2,0.1,2.3,0.4,3.4
				c0.5,2.2,1.5,4.1,3.1,5.6c0.6,0.6,1.2,1.1,1.9,1.5c-2-0.3-3.5-1.2-4.7-2.6c-1.4-1.7-2.5-3.4-3.4-5.1c-0.1-0.1-0.2-0.3-0.2-0.4
				c-0.4,0.1-0.9,0.1-1.4,0.2c-1.5,0.4-3.1,1.2-4.7,2.3c-0.5,0.4-1,0.7-1.5,1.1c0.1,2.2,0.5,4.2,1.3,6.1c0.5,1.1,1,2,1.6,2.7
				c0.1,0.1,0.2,0.2,0.2,0.2c0.2-0.1,0.4-0.2,0.6-0.2c0.7-0.3,1.4-0.5,2.1-0.7c1.9-0.5,3.5-0.7,5-0.4c1.7,0.3,3.1,1.2,4.1,2.6
				c-1.2,1.2-3.2,2.4-5.9,3.6c-2.5,1.1-4.1,1.7-5,1.7c-0.8,0-1.5-0.1-2.3-0.2c-0.3-1.2-0.6-2.5-0.9-3.9c0-0.2-0.1-0.4-0.1-0.6
				c-0.1-0.7-0.3-1.5-0.4-2.2c-0.5-3-1-6-1.3-9.2c0.1-0.3,0.5-0.8,1-1.4c0.1-0.1,0.1-0.1,0.2-0.2c0.4-0.4,0.8-0.9,1.4-1.4
				c0.9-0.8,2-1.8,3.4-3C486.6,517.8,487,517.5,487.3,517.2z"/>
		</g>
	</g>
	<g>
		<path class="st3" d="M480,362.2c2.1-1,4.8-2.1,8.1-3.2c1.1,5.6,2.7,10.6,4.9,15c3.4,6.6,8,11.9,14,15.9c5,3.4,10.7,5.7,17.1,7
			c7-5.9,10.6-12.6,10.8-20c0-0.3,0-0.6,0-0.8c0-1.3-0.1-2.5-0.2-3.6c-0.2-1.9-0.6-3.7-1.2-5.2c-0.4-1.2-0.9-2.1-1.4-2.8v0
			c-3.8-1.3-6.5-3.6-8.1-6.9l2.9-0.2c4.3,0,8.7,1.2,13.2,3.6c4.4,2.3,6.6,4.4,6.6,6.4l4.2,2.6l-2.2,2.1c0.7,0.3,1.5,0.7,2.4,1.1
			c2.1,1,3.8,1.8,5.3,2.6c-3.1,12-10.9,23-23.5,33.1c-1,0.8-2.1,1.6-3.1,2.4c-13.7,0-26.2-2.8-37.3-8.4c-8.4-4.3-14.5-9.2-18.2-14.7
			c1.6-1.8,3.2-3.7,5-5.6c0.6-0.7,1.2-1.3,1.7-2c-0.9-0.3-1.7-0.6-2.5-1c-5.7-1.5-7.8-4.7-6.4-9.5c0.8-2.7,2.4-4.7,4.9-6l1.5-0.9
			C479.2,362.6,479.6,362.4,480,362.2z"/>
	</g>
	<g>
		<g>
			<path class="st2" d="M518.7,255.1c6.1,0,12.2,1.3,18.5,3.9c0.6,0.3,1.2,0.5,1.9,0.8c2.6,1.2,4.9,2.5,7,3.9c-2,3.4-4,8-5.9,13.9
				c0,0.1-0.1,0.2-0.1,0.3c-0.8,2.4-1.4,4.5-1.9,6.5c-3.4-1.2-6.8-2-10.3-2.5c-14.7-2.3-30,0.8-46,9.3c-0.7-1.4-1.5-2.8-2.5-4.5
				c-1-1.6-2.1-3.4-3.3-5.3c-2.5-3.8-4.4-6.7-5.9-8.7c2.3-2.6,5.4-5.1,9.1-7.4C490.1,258.5,503.3,255.1,518.7,255.1z"/>
		</g>
	</g>
	<g>
		<path class="st3" d="M546,263.8c-2,3.4-4,8-5.9,13.9c0,0.1-0.1,0.2-0.1,0.3c-0.8,2.4-1.4,4.5-1.9,6.5c-3.4-1.2-6.8-2-10.3-2.5
			c-14.7-2.3-30,0.8-46,9.3c-0.7-1.4-1.5-2.8-2.5-4.5c2-1.3,4.2-2.6,6.5-3.9c11.6-6.2,22.9-9.4,33.9-9.4c4.5,0,8.7,0.5,12.7,1.6
			c2.7-4.8,4.9-9.9,6.5-15.3C541.7,261,544,262.3,546,263.8z"/>
	</g>
	<g>
		<g>
			<path class="st0" d="M545.2,291.2c0.3,0.8,0.6,1.5,0.9,2.3c0.8,2.2,1.5,4.6,2,7.3c0.6,2.7,1.1,5.8,1.4,9l0.1,0.1
				c0.1,1.1,0.1,2.2,0.1,3.4c0.1,2.7-0.1,5.3-0.4,7.9c-1,7.6-3.6,15.1-7.9,22.6c-2.9,4.2-5.9,7.2-9,9.1c-0.5,0.3-1,0.5-1.5,0.7
				c-0.7,0.4-1.6,0.6-2.7,0.7c-0.3,0-0.5,0-0.8-0.1c-0.4,0-1,0-1.8,0c-0.8-0.1-1.7-0.2-2.5-0.3c0.2,1.3,0.6,2.5,1.2,3.7
				c0.7,1.2,1.6,2.4,2.8,3.4c0.1,0.1,0.2,0.2,0.4,0.3c1.8,1.5,3.7,2.6,5.9,3.2c4.1,12.7,1,23.2-9.3,31.6c-6.2-1.4-11.6-3.5-16.2-6.2
				c-5.8-3.5-10.3-7.7-13.6-12.7c-3.3-5-5.2-9.1-5.9-12.2c-0.7-3-1-4.5-1.2-4.4c2.2-1.5,3.7-3.1,4.6-4.7c0,0,0.1-0.1,0.1-0.1
				c1.2-2.4,2-5.2,2.4-8.4c-0.2-9.2-1.4-14.4-3.6-15.8c-4.8-0.4-6.2-5-4.2-13.8c2.2-3.1,4-2.8,5.5,0.6c1.2-18.3,7.8-29.5,19.6-33.7
				c10.3-2.7,20-2.6,29.1,0.3c0.1-0.2,0.1-0.3,0.2-0.4c0.2,0.1,0.3,0.2,0.4,0.4C542.9,286.9,544.2,288.9,545.2,291.2z"/>
		</g>
		<g>
			<path class="st4" d="M522.5,279c0.1,0,0.1,0,0.2,0c4.7,0.1,9.1,0.9,13,2.4c0.5,0.2,0.9,0.4,1.4,0.6c8.7,2.7,12.6,8.3,11.7,16.8
				c-0.1,0.5-0.1,1-0.3,1.5c0,0.2-0.1,0.4-0.2,0.6c0.3,0.3,0.7,0.7,1.1,1.1c0.8,0.9,1.7,2,2.5,3.3c3.1,4.7,4.6,9.5,4.6,14.5
				c0,5.2-1.3,9.1-3.9,11.8c0,0,0,0-0.1,0.1c-1.5,1.6-3.6,2.6-6.1,3.1c0.6-3.3,0.9-6.5,1.1-9.5c0.5-8.8-0.8-16.4-3.7-22.8
				c-0.8-1.7-1.7-3.3-2.8-4.9c-3.6-5.3-8.7-9.5-15.3-12.7c-0.4-0.2-0.9-0.4-1.3-0.6c-0.5,4.6-1.2,9.2-2,13.8
				c-1.5,7.8-5.2,14.2-11.1,19.4c-4.9,4.3-10.2,6.2-15.9,5.7c-0.3-0.6-0.6-1.2-1.1-1.8c-0.2-0.3-0.4-0.5-0.6-0.8
				c-0.2-0.2-0.4-0.5-0.6-0.8c-1.7-2-3.4-3-5.1-3c-0.5,0-0.9,0.3-1.2,0.9c-0.6,0.9-0.9,2.2-0.9,4.1c0,1,0.1,2,0.2,2.8
				c0.3,2.2,1.1,3.9,2.3,5.1c1.2,1.2,2.7,1.8,4.6,1.9c0.2,0.6,0.4,1.1,0.6,1.8c0.5,1.7,0.8,3.4,1,5.3c0.1,1.4,0.1,2.9,0,4.4
				c0,0,0,0.1,0,0.1c-4.3,1.4-7.3,2.3-9,2.6c-1.3,0.2-2.2,0.3-2.6,0.3c-3.3,0-6.1-0.8-8.4-2.3c-2.4-1.7-4.1-4.3-4.9-7.7
				c-0.4-1.7-0.6-3.7-0.6-5.8c0-2,0.2-4,0.7-5.8c0.8-3.1,2.4-6,4.6-8.6c0.1-0.1,0.2-0.2,0.4-0.4c-2-0.4-3.3-0.7-3.9-1
				c-1.8-0.8-2.6-2-2.6-3.8c0-1.9,0.6-3.9,2-5.8c1.3-1.9,3.3-3.8,5.9-5.6c0.3-0.3,1.8-1.1,4.4-2.5c-1.1-0.5-1.6-1.2-1.6-2.2
				c0-0.2,0-0.4,0-0.6c0.1-0.8,0.6-1.5,1.2-2.2c0.5-0.5,1.4-1.2,2.6-2c0.3-0.2,0.5-0.3,0.8-0.5c12-7,24-10.5,36-10.4
				C520.5,278.9,521.5,278.9,522.5,279z"/>
		</g>
		<g>
			<g>
				<g>
					<path class="st5" d="M539.7,315.4c0.6-0.1,1.1,0.2,1.5,0.8c0.5,0.6,0.7,1.3,0.8,2.2c0.1,0.9-0.1,1.6-0.5,2.2
						c-0.4,0.6-0.9,1-1.4,1c-0.5,0-1-0.3-1.5-1c-0.4-0.6-0.6-1.3-0.6-2.1c0-0.9,0.1-1.6,0.4-2.3
						C538.8,315.7,539.2,315.4,539.7,315.4z"/>
				</g>
				<g>
					<path class="st5" d="M525.8,321.9c-0.5,0-1-0.3-1.4-1c-0.5-0.6-0.7-1.3-0.8-2.1c0-0.9,0.2-1.6,0.5-2.1c0.4-0.7,0.8-1.1,1.4-1.1
						c0.5,0,1,0.3,1.5,0.9c0.4,0.6,0.6,1.3,0.6,2.1c0,0.9-0.1,1.6-0.5,2.2C526.8,321.5,526.3,321.9,525.8,321.9z"/>
				</g>
			</g>
			<g>
				<path class="st5" d="M533.1,344.6c-0.8,0.2-1.7,0.3-2.6,0.4c-0.4,0-0.9,0-1.2-0.1c-3.1-0.3-5.9-1.3-8.4-3
					c-1-0.7-1.8-1.4-2.4-2.1c0.1,0.1,0.1,0.2,0,0.5c0,0.7-0.1,1.4-0.1,2.1c-0.4,0.2-0.8-0.1-1.1-0.9c-0.7-1.6-0.4-3,1-4.2
					c1.5-1.3,2.4-1.6,2.7-1l0.1,0.5c-0.9,0.6-1.6,1.2-2.1,2c0.4,0.3,0.7,0.6,1,1c0.7,0.5,1.4,1,2,1.5c2.4,1.7,5.2,2.6,8.2,2.9
					c1.9,0.1,4-0.2,6-0.8C535.3,343.8,534.3,344.3,533.1,344.6z M536,334.1c0-4.9-1-10.7-3-17.4c2.8,6.8,4.5,13,5,18.5
					c-2.4,0.4-5.1,0-8.2-1.2L536,334.1z"/>
			</g>
		</g>
		<g>
			<path class="st6" d="M537.1,281.9c8.7,2.7,12.6,8.3,11.7,16.8c-0.1,0.5-0.1,1-0.3,1.5c0,0.2-0.1,0.4-0.2,0.6
				c0.3,0.3,0.7,0.7,1.1,1.1c0.8,0.9,1.7,2,2.5,3.3c3.1,4.7,4.6,9.5,4.6,14.5c0,5.2-1.3,9.1-3.9,11.8c0,0,0,0-0.1,0.1
				c-1.5,1.6-3.6,2.6-6.1,3.1c0.6-3.3,0.9-6.5,1.1-9.5c0.5-8.8-0.8-16.4-3.7-22.8c-0.8-1.7-1.7-3.3-2.8-4.9c1.1,1.1,2.1,2.3,3.1,3.6
				c0.2-0.8,0.2-1.7,0.2-2.7c0-6.6-2.7-12.2-8-16.6c-0.2-0.2-0.5-0.4-0.7-0.6C536.1,281.5,536.6,281.7,537.1,281.9z M472.4,338.6
				c3.3,2.7,6.5,4,9.5,4c4.2,0,7.5-1.9,9.9-5.6c0.2-0.3,0.4-0.7,0.6-1c0.5-0.9,0.9-1.8,1.3-2.6c0.5,1.7,0.8,3.4,1,5.3
				c0.1,1.4,0.1,2.9,0,4.4c0,0,0,0.1,0,0.1c-4.3,1.4-7.3,2.3-9,2.6c-1.3,0.2-2.2,0.3-2.6,0.3c-3.3,0-6.1-0.8-8.4-2.3
				c-2.4-1.7-4.1-4.3-4.9-7.7C470.6,336.9,471.4,337.7,472.4,338.6z M524.5,284.3c-0.5,4.6-1.2,9.2-2,13.8
				c-1.5,7.8-5.2,14.2-11.1,19.4c-4.9,4.3-10.2,6.2-15.9,5.7c-0.3-0.6-0.6-1.2-1.1-1.8c0.8-0.4,1.6-0.9,2.4-1.3
				c5.8-3.5,10.8-8.4,15.2-14.5c4.2-5.8,7.2-12,9-18.6c0.6-2.2,1.1-4.4,1.4-6.5c1.2,1,2.4,2.5,3.5,4.4
				C525.4,284.7,524.9,284.5,524.5,284.3z"/>
		</g>
		<g>
			<path class="st7" d="M498,334.1c6.8,11.6,15.2,18.2,25.2,19.9c0.2,1.3,0.6,2.5,1.2,3.7c-8.1-0.6-14.7-3.9-19.8-9.9
				C501,343.6,498.8,339,498,334.1z"/>
		</g>
	</g>
	<g>
		<path class="st3" d="M549.8,372c-6.1-4.3-11.6-6.7-16.5-7.1l-0.4-0.9l6-0.2c9.1,3.4,17.3,8.2,24.5,14.6
			c21,18.5,34.2,49.6,39.5,93.3c0.5,3.9,0.9,7.9,1.2,12l-25.3,15.6l-13.2-32.8c-0.1,1-0.3,2.1-0.5,3.3c-0.5,4-0.9,8-1.2,11.9
			c-0.2,2.9-0.4,5.8-0.5,8.8c-0.1,1.4-0.1,2.9-0.1,4.3c0,1.3,0,2.6,0,3.9c0,1.3,0,2.7,0.1,4.4c0.1,2.3,0.4,5.1,0.7,8.2
			c0.4,3.9,0.8,6.9,1.1,8.9c15.7,22.8,26.7,51.3,33.1,85.5c-0.4,0.2-0.7,0.4-1.1,0.5c-1.2-3.9-2.4-7.5-3.5-11
			c-10-29-21.3-49-34.1-60.2c-0.5-1.5-1.1-3.1-1.6-4.8c-2.5-8.2-3.7-16.9-3.7-26.1c0-2.4,0-4.8,0.1-7.1c0.2-4.4,0.6-8.7,1.2-12.7
			l6.4-19.5c0.5-0.2,0.9-0.4,1.4-0.6c1-0.5,1.9-1.1,2.9-1.7c1-0.7,1.9-1.4,2.9-2.2c5.1-4.6,7.7-10.2,7.7-16.7
			c0-7.2-1.5-13.4-4.5-18.6c-1.1-2-2.4-3.8-3.8-5.3c3,1.7,5.9,4.3,8.7,7.9c5.3,6.9,7.9,14.6,7.9,23c0,6-1.7,11.7-5,17.2
			c1.2,3.6,3,9.1,5.6,16.7c3.1-1.9,6.2-4.1,9.4-6.5c-0.4-33.3-8.5-61.3-24.3-84C564.4,384.6,557.4,377.3,549.8,372z M474.4,438.5
			c-0.3,1.8-0.4,3.6-0.4,5.5c0,7.1,2.4,12.8,7.3,17.1c0.5,0.4,1,0.9,1.6,1.2c3.9,2.9,8.4,4.4,13.5,4.6c0.8,0,1.7,0,2.5-0.2
			c0.5,0,1.4-0.2,2.6-0.4c-0.1,0.1-0.3,0.3-0.4,0.4c-5.6,4.3-11.7,6.5-18.5,6.5c-0.6,0-1.1,0-1.7,0c-0.1,0.7-0.2,1.5-0.3,2.2
			c-1,8.1-1.5,16.8-1.5,26.2c0,0.3,0,0.6,0,1h-6.4c-1.8-1.2-3.6-2.5-5.2-3.8c-0.1-10.2-0.7-19.5-1.9-27.9c-0.6-4.5-1.4-8.7-2.4-12.6
			c-0.8-3.2-1.6-6.2-2.6-9c-1.4,2.9-2.6,5.9-3.6,9c-0.9,2.6-1.6,5.4-2.3,8.2c-0.9,3.8-1.5,7.8-2,12c-2.6-2.6-5.9-4-9.9-4.5
			c0.9-3.9,2-7.8,3.3-11.6c0.5-1.4,1-2.7,1.5-4.1c1.5-3.8,3.1-7.6,5-11.3c0.9-1.7,1.8-3.4,2.7-5c4.2-3.1,8.5-4.7,13-4.8
			c0.1,0,0.3,0,0.4,0c0.3,0,0.7,0,1.2,0.1c0.8,0.2,1.8,0.4,3,0.8C473.4,438.2,473.9,438.3,474.4,438.5z M455.1,386.3
			c-0.2,0-0.5,0-0.8,0c2.4-1.6,4.2-2.4,5.3-2.4c1.3,0,2.8,0.8,4.5,2.4c1.9,1.9,3.6,4.4,5,7.6c2.1,4.6,3.4,9.9,4,16
			c-2.7-7.7-5.7-13.5-9-17.6C461,388.3,458,386.3,455.1,386.3z M447.4,613.7c-0.6,2.6-1.2,5.2-1.7,7.8c-2.3,12.4-4,24.8-5,37.4
			c-0.3,4.3-0.4,8.5-0.4,12.5c0,0.6,0.1,2.2,0.2,4.7c-2.2-0.2-4.2-0.6-6.1-1.4c0.1-22,2.9-41.1,8.3-57.4c0.5-1.6,1.1-3.2,1.7-4.8
			c2.4-6.4,5.2-12,8.3-17C450.6,601.6,448.8,607.6,447.4,613.7z M600.7,673.4c-1.9,1.8-4.5,3.1-7.8,4c0.1-23-2.1-45.1-6.8-66.3
			c-2.6-11.8-5.9-23.3-10-34.6c5.1,6.5,9.7,17.5,13.7,33.1c2.1,8.2,4.1,17.6,5.9,28.2C597.7,648.9,599.4,660.8,600.7,673.4z"/>
	</g>
	<g>
		<path class="st4" d="M567.9,822.3c6.2,3.3,12.5,5.7,18.8,7.2c2.5,0.6,4.1,1.2,4.7,1.8c0.7,0.7,1,1.9,1.1,3.7
			c-1,1.3-5.4,2.1-13.2,2.4c-7.8,0.4-14.6,0.6-20.2,0.6c-0.7,0-1.5,0-2.1,0c-4.4,0-7.2-0.2-8.4-0.5c-1.3-0.3-2.3-0.7-2.8-1.3
			c-0.5-0.6,0.5-6.2,3-17.1c0.1,0,0.2,0.1,0.4,0.1c0.2,0.5,2.1,1.7,5.7,3.7c0.2,0.1,0.3,0.2,0.5,0.2c3.4,1.8,6.7,2.4,9.8,1.9
			C568.4,824.5,569.3,823.6,567.9,822.3z M473.3,859.3c-1.1,0-2.1,0-3.1-0.1c-1.9-0.2-3.6-0.5-5.1-0.9c-6.9-2.6-8.6-8.4-5.3-17.5
			l3.6-8.8l0.4-2c-0.1,0.4-0.1,0.9-0.2,1.2c-0.1,0.6-0.3,1.1-0.4,1.7c-0.1,0.5-0.3,1.1-0.4,1.8c-1.1,4.7,1,7,6.3,6.9
			c0.9,0,1.7,0,2.4-0.1c4-0.2,6.9-0.6,8.6-1.4c2-0.8,1.5-4.5-1.4-11.1c2.1,2.1,4.7,5,7.8,8.8c5.4,6.2,8.1,10,8.2,11.5
			c0.1,1.4,0.1,2.4,0,2.8c-0.1,0.4-0.3,0.8-0.5,1.2c-0.9,1.2-2.8,2.4-5.9,3.5C484.2,858.5,479.2,859.3,473.3,859.3z"/>
	</g>
	<g>
		<path class="st8" d="M478.8,362.8c0.4-0.2,0.8-0.4,1.2-0.6c2.1-1,4.8-2.1,8.1-3.2c1.1,5.6,2.7,10.6,4.9,15c3.4,6.6,8,11.9,14,15.9
			c5,3.4,10.7,5.7,17.1,7c7-5.9,10.6-12.6,10.8-20c0-0.3,0-0.6,0-0.8c0-1.3-0.1-2.5-0.2-3.6c-0.2-1.9-0.6-3.7-1.2-5.2
			c-0.4-1.2-0.9-2.1-1.4-2.8v0c-3.8-1.3-6.5-3.6-8.1-6.9l2.9-0.2c4.3,0,8.7,1.2,13.2,3.6c4.4,2.3,6.6,4.4,6.6,6.4
			c0,0.7-0.7,1.7-2.1,3c-0.9,0.8-2,1.7-3.4,2.8c1.4,0.3,2.8,0.7,4.3,1.2c0.2,0,0.3,0.1,0.5,0.1c1.9,0.7,3.5,1.4,4.7,2.1
			c-0.6,6.8-4.8,14.6-12.5,23.4c-3.1,3.5-6.2,6.5-9.3,9c-14-0.4-26.4-4.3-37.3-11.9c-3.9-2.7-7.1-5.6-9.9-8.7
			c-0.7-0.8-1.2-1.4-1.7-2c1-1.3,2.4-2.9,4.2-4.8c0.3-0.3,0.5-0.5,0.8-0.8c0.9-0.9,1.8-1.8,2.7-2.6c-1.3-0.3-2.6-0.7-3.7-1
			c-2.1-0.7-3.9-1.4-5.5-2.1c-0.9-0.5-1.7-1.1-2.4-1.6c-0.8-0.6-1.3-1.3-1.7-2.2c-1.3-2.9-0.4-5.3,2.6-7.3L478.8,362.8z"/>
	</g>
</g>
<g id="Layer_2">
	<g>
		<g>
			<path class="st9" d="M833.6,855.1c3.2-1.2,6.3-2.4,9.1-3.7c0.1-0.1,0.3-0.1,0.4-0.2c4.3-2,8.1-4.1,11.4-6.4
				c4.9,1.6,10,2.4,15.3,2.4c3.4,0,6.5-0.2,9.2-0.5c0.7,3.4,1.4,7.8,2.2,13.3c0.8,5.5,0.7,8.6-0.3,9.4c-3.2,0.3-6.3,0.7-9.2,1
				c-36.2,3.6-58.5,3.5-66.9-0.2c-0.9-2,0.9-4.2,5.4-6.7C814,861.6,821.8,858.8,833.6,855.1z M927,864.1c2.9,0.6,5.8,1,8.8,1
				c1.3,0,2.7-0.1,4.1-0.2c4.2,4.3,8.5,8.6,13,13.1c2.9,2.8,4.8,5.2,5.9,7.1c0.9,1.4,1.2,2.7,0.9,4c-0.1,0.5-0.4,1.1-0.7,1.6
				c-1.7,2.6-4,4.7-6.7,6.2c-0.7,0.4-1.4,0.8-2.2,1.1c-2.7,1-5.6,1.4-8.5,1.2c-0.8-0.1-1.5-0.1-2.3-0.2c-6.1-0.5-11.5-2-16.1-4.6
				c-5.2-2.9-7.8-5.9-7.8-9.1c0-1,1.2-3.5,3.5-7.6c0.5-1,1.2-2,1.8-3.1c0.1-0.2,0.2-0.4,0.3-0.6C923.8,869.4,925.7,866.2,927,864.1z
				"/>
		</g>
		<g>
			<path class="st10" d="M927,864.1c2.9,0.6,5.8,1,8.8,1c1.3,0,2.7-0.1,4.1-0.2c4.2,4.3,8.5,8.6,13,13.1c2.9,2.8,4.8,5.2,5.9,7.1
				c0.9,1.4,1.2,2.7,0.9,4c-1.3-3-3.7-6-7.3-8.9c-5.6-4.5-11.2-6.8-17-6.8c-3.9,0-7.5,0.5-10.8,1.5c-1,0.3-2,0.7-2.8,1
				c-1.1,0.5-2.1,1.1-2.8,1.7c0.5-1,1.2-2,1.8-3.1c0.1-0.2,0.2-0.4,0.3-0.6C923.8,869.4,925.7,866.2,927,864.1z M843,851.2
				c4.3-2,8.1-4.1,11.4-6.4c4.9,1.6,10,2.4,15.3,2.4c3.4,0,6.5-0.2,9.2-0.5c0.7,3.4,1.4,7.8,2.2,13.3c0.8,5.5,0.7,8.6-0.3,9.4
				c-3.2,0.3-6.3,0.7-9.2,1c0-6-2.6-10.7-7.7-14.1c-4.4-3-10-4.7-16.7-5H843z"/>
		</g>
	</g>
	<g>
		<path class="st11" d="M900,724.1c-0.2,5.4-0.4,10.4-0.6,14.8c0,0.9-0.1,1.8-0.1,2.6c-0.3,6.4-0.8,11.6-1.2,15.8
			c-1.5,13.7-4,28.9-7.3,45.9c-0.5,2.6-1,5.2-1.6,7.8c-2.7,13.2-5.7,25.9-9,38c-0.3,1-0.6,2-0.8,3c-0.8,0.2-1.7,0.3-2.5,0.4
			c-1,0.1-2.1,0.3-3.2,0.3c-1.8,0.1-3.8,0.2-6,0.2c-5.4,0-10.5-0.8-15.4-2.4c-0.9-0.3-1.9-0.7-2.8-1c-0.4-0.2-0.9-0.4-1.3-0.6
			c-1.3-0.6-2.4-1.1-3.5-1.6c0-0.2,0-0.5,0-0.8c0.3-6.9,0.5-14.1,0.5-21.5c0-9.9-0.5-28.7-1.4-56.6c-0.1-3.8-0.3-7.5-0.4-11.1
			c-0.2-5.1-0.4-10.3-0.6-15.8c-0.1-1.6-0.1-3.1-0.2-4.7c-0.4-9.2-0.8-19-1.3-29.2l58.9,7.7C900.2,718.3,900.1,721.3,900,724.1z
			 M904.9,736.8c-0.1-4.2-0.3-8.8-0.4-13.6l71.2-14.1c-0.9,12.5-1.8,23.3-2.7,32.4c-0.6,6-1.2,11.3-1.8,15.8
			c-1.8,13.3-3.8,27-6.1,41.2c-3.2,19.4-6.1,36.2-8.7,50.4c-1.2,6.6-2.3,12.6-3.4,18c-4.6,1.4-8.5,2.4-11.7,3
			c-1.3,0.3-2.5,0.4-3.5,0.6c-1.4,0.1-2.7,0.2-4,0.2c-3,0-5.9-0.3-8.8-1c-3.3-0.8-6.5-2-9.6-3.6c-0.9-0.5-2.6-1.5-5-3.1
			c-0.2-5-0.4-9.7-0.5-14.2c-0.9-23.9-1.5-39.8-1.8-47.7c-0.1-2.4-0.2-4.1-0.2-5c-0.7-14.8-1.3-27.8-2-38.9
			c-0.3-4.6-0.5-9.9-0.7-15.8C905,740,904.9,738.4,904.9,736.8z"/>
	</g>
	<g>
		<path class="st12" d="M488.5,521.1l17.9,8.6c-0.2,0-0.4-0.1-0.7-0.1c-3,1-4.4,3.2-4.1,6.6l-17.2-2.7
			C478.2,527.1,479.6,523,488.5,521.1z"/>
		<g>
			<g>
				<path class="st13" d="M617.9,863.3c4.8,7.4,7.4,16.6,7.6,27.6c0.3,11-2.1,20.1-7,27.3c-4.9,7.2-10.9,10.6-18,10.1
					c-7.1-0.4-13-4.4-17.9-11.7c-4.9-7.4-7.3-16.2-7.3-26.7s2.4-19.3,7.3-26.7c4.8-7.4,10.7-11,17.5-11S613.1,855.9,617.9,863.3z
					 M612.2,872.1c-3.3-5-7.2-7.5-11.9-7.5c-4.7,0-8.6,2.5-11.9,7.5c-3.3,5-4.9,11-4.9,18c0,7,1.6,13,4.9,18c3.2,5,7.2,7.4,11.9,7.4
					c4.6,0,8.6-2.5,11.9-7.4c3.3-5,4.9-11,4.9-18C617.1,883.1,615.4,877.1,612.2,872.1z"/>
			</g>
			<g>
				<path class="st14" d="M620.1,821.1v26.9c5.3,0.3,8.3,3.4,9.2,9.2c0.5,8.1-0.9,17-4,26.8c-1-6.4-2.7-12-5.3-16.8
					c0.4-3.1,0.8-6.7,1.1-10.8c-3.2,0.2-6.2,1.8-9.2,4.7c-1.8,16.4-6.8,29.2-15,38.3c-4.4,0.3-6.8-3.3-7.3-10.9
					c5-6,8.7-15.6,11.1-28.8c-0.3-6.3,2-9.7,6.9-10.3v-28.2C612.4,817.6,616.6,817.6,620.1,821.1z"/>
			</g>
		</g>
		<g>
			<path class="st12" d="M768.4,905.8c-2.3-0.3-2.3-0.8,0-1.3l45.5-7l-0.9-0.1l-16.6-79.4l10.2-8.1l13.5,69.8l26.8,1.5
				c3.8,6.1,3.4,12.5-1.2,19l0,0v0.6l0-0.6l5.7,1.3l-46.6,8.2c-3.9,0.7-7.5,0.7-10.8,0L768.4,905.8z"/>
		</g>
		<g>
			<path class="st12" d="M507.6,529.8c5.3,1,8.7,4.1,10.2,9.1h126.4l6.5,152.2l99.6,38.5v32.8l-90.7,17.2l3.4,23.9l-11,1.3
				l-2.8-22.2c-1.9-6.6-4.1-10.4-6.4-11.4c-0.2-0.1-0.3-0.1-0.5-0.2l-12.9-3.9v54.6c0.1,4.7,1.7,7.8,4.8,9.2l26.6,10.7
				c6.1,2.9,10,8.1,11.6,15.5l10.6,57.9l15.9,2.8c1.8,0.7,3.3,1.5,4.5,2.5l38.8-13.5c3.7-1.2,7.3-1.2,11,0l18.2,4.8
				c2.5,1,3.2,2.5,2.2,4.5l-46.9,17.5c-9.3,3.9-16.5,4.4-21.7,1.7c-0.7,1.4-1.6,2.9-2.7,4.5l-19-2.8c-5.7-1.5-8.8-5.2-9.2-11.3
				l-11.7-62.5c-1.8-6.3-4.6-10.5-8.2-12.6l-34-14.2c-1.8-1.5-2.7-3.3-2.8-5.6V763L522,732.4c-2.5-1.1-3.8-3.5-3.8-7.2L511,548
				c-0.5-6.7-3.3-10.6-8.6-11.7l-0.2,0l-0.1,0c-0.2,0-0.3-0.1-0.5-0.1v0c-0.3-3.3,1.1-5.5,4.1-6.6c0.2,0,0.4,0,0.7,0.1
				C506.8,529.7,507.2,529.8,507.6,529.8z"/>
		</g>
		<g>
			<path class="st13" d="M845.7,900.9c-11.2,0-21.8-1.1-31.8-3.4l-0.9-0.1l-0.1-0.6c-1.1-6.4,1.3-12,7.2-17l26.8,1.5
				c3.8,6.1,3.4,12.5-1.2,19l0,0V900.9z M703.4,920.5c4.4,3.5,5,8.5,1.7,15c-0.7,1.4-1.6,2.9-2.7,4.5l-19-2.8
				c-5.7-1.5-8.8-5.2-9.2-11.3c0.6-5.9,3.6-9.5,8.8-10.8l15.9,2.8C700.7,918.7,702.2,919.6,703.4,920.5z"/>
		</g>
		<g>
			<path class="st15" d="M656.9,844.7l-5-39.8l30-3.6l5,42.1l-24.9,5.4C659.2,849.1,657.5,847.8,656.9,844.7z"/>
		</g>
		<g>
			<path class="st15" d="M518.5,542.2c-0.2-1.2-0.4-2.2-0.7-3.2h126.4l6.5,152.2l99.6,38.5v32.8l-90.7,17.2c-1.4-7.1-3.8-12-7.2-15
				c-1.4-1.2-3-2-4.7-2.5l-16.9-6.5v0l-0.2-0.1l-1.8-0.7c-0.1,0-0.1,0-0.2,0l-11-3.6v0.1l-87.6-26.7c-1.9-0.3-3.1-1.5-3.6-3.6
				l-2.4-55.9l0.1,0.7l-0.9-16.6l0.1,0L518.5,542.2z"/>
		</g>
		<g>
			<path class="st12" d="M743.4,622.5l-0.4,28.9l-10.3-1.6l0-28.2l4.9,1.2C739.9,622.8,741.8,622.7,743.4,622.5z"/>
		</g>
		<g>
			<path class="st15" d="M698.9,612.9l11.5-5.4l35.5,5.7c2.9,0.4,4.5,1.8,5,4.2c0.1,2.7-2.4,4.4-7.5,5c-1.6,0.2-3.6,0.3-5.8,0.3
				L698.9,612.9z"/>
		</g>
		<g>
			<path class="st13" d="M506.4,529.6c-0.2,0-0.4-0.1-0.7-0.1c-3,1-4.4,3.2-4.1,6.6l-17.2-2.7c-6.2-6.3-4.9-10.4,4-12.4L506.4,529.6
				z"/>
		</g>
	</g>
	<g>
		<path class="st15" d="M900,724.1c-0.2,5.4-0.4,10.4-0.6,14.8c0,0.9-0.1,1.8-0.1,2.6c-0.3,6.4-0.8,11.6-1.2,15.8
			c-1.5,13.7-4,28.9-7.3,45.9c-0.5,2.6-1,5.2-1.6,7.8c-2.7,13.2-5.7,25.9-9,38c-0.3,1-0.6,2-0.8,3c-0.8,0.2-1.7,0.3-2.5,0.4
			c-1,0.1-2.1,0.3-3.2,0.3c0.2-1.2,0.4-2.5,0.7-3.8c0.6-3.6,1.2-7.5,1.9-11.5c2.1-13.3,3.8-25.1,5-35.4c1.6-13.4,2.3-24.1,2.3-32.1
			c0-13.2-1.2-22.5-3.7-27.8c-0.1-0.2-0.2-0.4-0.3-0.6c-3.1-6.2-8.8-9.3-17.1-9.3c-5.3,0-11.7,1.5-19.3,4.5
			c-0.1,0.1-0.3,0.1-0.4,0.2c-0.4-9.2-0.8-19-1.3-29.2l58.9,7.7C900.2,718.3,900.1,721.3,900,724.1z M945.6,741.5
			c-0.8-0.7-1.6-1.4-2.5-2c-4.8-3.5-10.9-5.2-18.2-5.2c-7.7,0-14.4,0.9-20,2.5c-0.1-4.2-0.3-8.8-0.4-13.6l71.2-14.1
			c-0.9,12.5-1.8,23.3-2.7,32.4c-0.6,6-1.2,11.3-1.8,15.8c-1.8,13.3-3.8,27-6.1,41.2c-3.2,19.4-6.1,36.2-8.7,50.4
			c-1.2,6.6-2.3,12.6-3.4,18c-4.6,1.4-8.5,2.4-11.7,3c1-2.6,1.9-5.3,2.9-8c1.5-4.4,2.8-8.7,4.1-13c6.2-21.7,9.3-42.9,9.3-63.7
			c0-15.2-1.8-26.7-5.4-34.5C950.4,747.1,948.2,744,945.6,741.5z"/>
	</g>
</g>
<g id="Layer_1">
	<g>
		<g>
			<path class="st16" d="M769.6,870.2c10.1,4.9,18.2,8.8,24.5,11.8c5.2,2.5,9.1,4.4,11.8,5.7c5.8,2.8,9.1,5,9.8,6.5
				c0.7,1.5-1.4,3.3-6.4,5.2c-5,1.9-11.4,2.8-19.2,2.7c-7.8-0.1-13.7-0.4-17.8-0.9c-6.9-0.7-12.4-1.8-16.4-3.4
				c-4.9-1.9-7.3-4.2-7.3-7c0-2,0.3-3.9,1-5.9c0.4-1.2,0.8-2.3,1.1-3.3c0.7-2.3,1.3-4.2,1.8-5.8L769.6,870.2z M726.7,905.1
				c6.4,8.5,9.7,13.5,9.7,15c0,1.5-0.5,2.9-1.4,4.3c-3.5,4.5-8,7-13.6,7.6c-7.5,1-14.7,0.1-21.7-2.8c-0.1,0-0.2-0.1-0.3-0.1
				c-4.7-2.5-7-6.4-7-11.9c0-5.4,1.4-11.8,4.2-19.3c0.1-0.1,0.1-0.3,0.2-0.4c3-7.1,4.9-11.5,5.5-13.2l13.8,1.6
				c0.4,3.4,3,8.5,7.8,15.3C724.8,902.4,725.7,903.7,726.7,905.1z"/>
		</g>
		<g>
			<path class="st17" d="M772.3,901.2c-6.9-0.7-12.4-1.8-16.4-3.4c-4.9-1.9-7.3-4.2-7.3-7c0-2,0.3-3.9,1-5.9
				c0.4-1.2,0.8-2.3,1.1-3.3c24.5,6.1,39,6.2,43.4,0.4c5.2,2.5,9.1,4.4,11.8,5.7c5.8,2.8,9.1,5,9.8,6.5c0.7,1.5-1.4,3.3-6.4,5.2
				c-5,1.9-11.4,2.8-19.2,2.7C782.4,902,776.4,901.7,772.3,901.2z M736.4,920.1c0,1.5-0.5,2.9-1.4,4.3c-3.5,4.5-8,7-13.6,7.6
				c-7.5,1-14.7,0.1-21.7-2.8c-0.1,0-0.2-0.1-0.3-0.1c-4.7-2.5-7-6.4-7-11.9c0-5.4,1.4-11.8,4.2-19.3c0.1-0.1,0.1-0.3,0.2-0.4
				c0.9,2.3,2,4.5,3.4,6.4c3.1,4.3,6.9,6.5,11.2,6.5c6.4,0,10.5-3.1,12.4-9.2c0.9,1.2,1.8,2.5,2.8,3.9
				C733.2,913.6,736.4,918.6,736.4,920.1z"/>
		</g>
	</g>
	<g>
		<g>
			<path class="st18" d="M598.2,510.5c11.9-6.7,24.8-10.1,38.8-10.1c8.7,0,16,1.2,21.9,3.6c3.3,1.4,6.1,3.1,8.5,5.2
				c5.3,4.7,10.4,13.5,15.4,26.3c3,22.9,7.4,54.9,13,96c0.8,5.9,1.7,11.9,2.5,18.2c1.3-0.2,3.1-0.4,5.5-0.6c3.4-0.3,6.5-0.5,9.4-0.5
				c4.9,0,9.7,0.1,14.4,0.3c19.5,1,36.8,3.9,51.9,8.9c9.9,3.2,18,7.1,24.3,11.7c5.7,4.1,9.9,8.8,12.8,14c0.4,1.8,0.9,4.3,1.5,7.4
				c0.5,2.4,1.1,5.2,1.7,8.3c2.4,15,3.6,30.5,3.6,46.4c0,33.2-4.2,61.6-12.6,85.3c-1.1,3.1-2.2,6.1-3.4,9c-1.9,4.6-4,9.1-6.1,13.3
				c-1.9,3.7-3.9,7.3-6,10.7c-4.6,2.9-10.9,6.2-19,9.9c-4.3,2-9.1,4-14.4,6.2c-15.2,6.3-29.1,10.3-41.8,11.9
				c-12.7,1.6-22.2,1.9-28.7,0.9c-2.7-7.1-5.2-13.8-7.4-20c-4.4-12.5-7.9-23.4-10.5-32.8c-0.3-1.1-0.6-2.2-0.9-3.2
				c-5.8-22.5-8.7-42.8-8.7-60.8c0-1.3,0-2.6,0-3.8c0.4-2.6,0.7-5.3,0.7-8.1c0.3-11.6-4-20.2-13-25.9l-9.7-0.3
				c-8.7-0.3-15.4-0.8-20-1.3c-17.5-2-30.1-6-37.6-12c-6.9-5.4-11.9-14.2-15-26.2c-1.8-7-2.7-13-2.7-18.1
				c-1-90.5,2.8-140.7,11.3-150.6C586.6,519.6,593.3,513.3,598.2,510.5z"/>
		</g>
		<g>
			<path class="st19" d="M685.4,576.5c5.8,9.1,7.3,18.9,4.6,29.3c-8.4,7.6-18,12.9-29,15.8c-8,2.4-16.4,3.6-25.2,3.6
				c-3.4,0-6.5-0.1-9-0.4c1-7.8,1.8-14,2.2-18.5c12-1.5,23.4-8.5,34.2-20.9c9.2,2.5,16.1,0.4,20.6-6.4
				C684.3,578.2,684.9,577.3,685.4,576.5z"/>
		</g>
		<g>
			<path class="st20" d="M637.4,494.6c0-0.7,0.4-1,1.2-0.9c0.8,0,1.3,0.5,1.5,1.3c-0.1,0.4-0.2,0.6-0.2,0.7
				c-0.2,0.2-0.5,0.2-0.9,0.2c-0.6,0-1-0.2-1.4-0.8C637.4,494.7,637.4,494.5,637.4,494.6z"/>
			<g>
				<path class="st21" d="M551.6,669.1c-3.1-3.2-5.8-6.7-8.1-10.5c-7.9-12.9-11.8-29.8-11.8-50.7c0-30.7,8.8-59.4,26.4-86.2
					c5.7-8.6,12-16.5,18.9-23.6c0.3-0.3,0.6-0.6,0.9-1c8.7,0.5,17.4,3.8,26.1,9.8c0.4,0.3,0.8,0.6,1.2,0.9
					c8.8,6.6,16.2,14.6,22.2,24.2c5.5,8.7,9.6,18.1,12.5,28c3,10.4,4.9,21,5.5,31.8c0.4,6.5-0.4,12.7-2.2,18.5l1,28.3
					c0,0.1,0,0.2,0.1,0.2c0.4,1.4,0.8,2.9,1.2,4.5c2.6,10.6,3.9,18.9,3.9,25c0,5.6-1.1,10-3.3,13.4c-0.9,1.3-2,2.5-3.4,3.7
					c-6.9,4.8-14.3,8.4-22.4,10.7c-13.4,3.7-27.1,4.6-41,2.7c-4.6-0.7-8.2-1.8-10.9-3.4c-4.1-2.4-6.3-6.2-6.8-11.3
					c-0.1-1.6,0.2-6.9,1-16c0.2-2.5,0.3-4.8,0.3-7c-3.5,4-7.2,6.8-11.2,8.1C551.7,669,551.7,669.1,551.6,669.1z M707.2,520
					c13.9,12.8,25,25.6,33.3,38.5c7.6,11.9,12,22.9,13.3,32.8c0.9,1.4,1.8,2.9,2.8,4.6c4.5,8.2,6.8,15,6.8,20.3c0,2-0.5,3.8-1.5,5.3
					c-0.9,1.3-2.1,2.5-3.6,3.5c-2.9,1.9-6.2,2.9-9.8,2.9c-4.7,0-9.5-1.6-14.4-4.9c-2.4-1.6-7.3-5.7-14.7-12.5
					c-1.4-1.3-2.9-2.7-4.2-4.2c-0.2-0.2-0.3-0.3-0.5-0.5l-17.1-15.6c1.1,2.7,2.4,5.7,3.9,9c6.4,14.9,9.8,22.8,10.2,23.8
					c0.2,0.4,0.3,0.7,0.4,1.1c0.8,1.8,1.5,3.6,2.2,5.3c2.4,5.8,4.3,11,5.8,15.4c1.4,3.1,0.4,5.3-3.2,6.8c-5.6,1.6-9.9,2.4-12.9,2.4
					c-3.4,0-6.4-0.6-9-1.7c0-3.8,0-6,0-6.6c0-0.4-0.1-0.8-0.1-1.1c0-0.2-0.1-0.4-0.1-0.6c-1.4-5.5-3.3-9.2-5.5-11.2
					c-2.4-2-3.7-3.2-4-3.7c-0.6-0.4-1.1-0.8-1.7-1.2c-0.4-5.8-0.8-10.7-1.2-14.7c0-0.1,0-0.2,0-0.4c-0.2-3.7-0.5-7.2-0.8-10.3
					c-0.4-4.5-0.8-8.4-1.3-11.7c-0.2-1.2-0.4-2.3-0.6-3.4c-0.4-2.1-0.9-4.3-1.4-6.5c-2.6-11.4-6.7-23.7-12.3-37.1
					c-5.9-14.2-12-25.7-18.2-34.6c-5-6-7.6-9.5-7.8-10.5l23.5-11.2c2,0.3,7,3.2,14.8,8.7C687.5,502.9,697.3,510.8,707.2,520z"/>
			</g>
			<g>
				<path class="st20" d="M578.3,524.8c3.2,4.1,4.6,10.7,4.4,19.9c-2.1-9.7-6.5-18.9-13.3-27.7C572.2,518.1,575.1,520.7,578.3,524.8
					z M584.5,559.6c2.5-2.4,4.9-4.6,7.2-6.6c0,0.1-0.1,0.2-0.1,0.3c-1.7,6.5-2.5,13.1-2.5,19.8c0,11.2,2.1,21.2,6.2,30l-4.3,34.9
					c2.2,0.2,4.4,0.3,6.8,0.4c11.1,0.4,24.6-0.9,40.4-3.9c1.6-0.3,3.2-0.6,4.8-1c0.2,0.8,0.4,1.6,0.7,2.5c-3.5,2.1-7.2,4.1-11.1,6
					c-15.3,7.4-30.3,11-45,11c-5.7,0-11.8-0.5-18.2-1.5c0.2-0.3,0.3-0.5,0.4-0.8c1.7-3.3,3.2-6.7,4.5-10.3c0.3-0.7,0.5-1.5,0.8-2.2
					c0.2-0.6,0.4-1.2,0.5-1.8c0-0.1,0.1-0.2,0.1-0.3h0l9.4-33.1c-0.4,0-0.7,0-1.1,0l1.4-1.1l-1.4-16.1c-0.1-2.8-0.2-5.8-0.2-8.9
					c0-5.5,0-9.1,0.1-10.9C584,563.5,584.2,561.3,584.5,559.6z M707.2,520c13.9,12.8,25,25.6,33.3,38.5c7.6,11.9,12,22.9,13.3,32.8
					c0.9,1.4,1.8,2.9,2.8,4.6c4.5,8.2,6.8,15,6.8,20.3c0,2-0.5,3.8-1.5,5.3c-0.8-6.3-3.6-13.6-8.1-22c-4.1-7.5-8.7-13.5-13.8-18
					c-0.5-9.8-4.3-20-11.4-30.8c-6.6-10-15.6-19.9-27.1-29.6c-10.1-8.6-20.9-16-32.2-22.4c-5.3-3-10.1-5.4-14.5-7.2l8.5-4
					c2,0.3,7,3.2,14.8,8.7C687.5,502.9,697.3,510.8,707.2,520z M696,544c5.5,9.6,8.2,18.1,8.2,25.5c0,3-0.9,6.6-2.8,10.7
					c-0.1,0.3-0.2,0.5-0.4,0.8c-0.7,1.4-1.4,2.7-2.2,3.9c-0.7,1.1-1.4,2.1-2.2,3c0.3,0.7,0.6,1.5,0.9,2.3c1.1,2.7,2.4,5.7,3.9,9
					c6.4,14.9,9.8,22.8,10.2,23.8c0.2,0.4,0.3,0.7,0.4,1.1c0.8,1.8,1.5,3.6,2.2,5.3c-0.7-1.3-1.4-2.6-2.2-3.9
					c-0.9-1.6-1.8-3.2-2.7-4.8c-6.8-12.1-12.3-21.7-16.4-28.9c-1.5-2.5-2.8-4.7-3.9-6.6c0.3-0.3,0.6-0.6,0.9-0.9
					c0.9-1.1,1.8-2.1,2.6-3.2c3.4-4.9,5.1-10.3,5.1-16.4c0-9.1-2.9-19.1-8.8-30c-0.7-1.3-1.4-2.5-2.1-3.7
					C690,534.5,693.1,538.9,696,544z"/>
			</g>
			<g>
				<path class="st12" d="M551.8,668.3c0-11.2,2.3-21.8,6.9-32c0.6-1.4,1.3-2.7,2-4c1.6-3,3.4-6,5.4-9c1.1-1.6,2.3-3.3,3.5-4.9
					c1.2-1.5,2.4-3,3.6-4.5l10.8-10.8c0.4,0,0.7,0,1.1,0l-9.4,33.1h0c0,0.1-0.1,0.2-0.1,0.3c-0.2,0.6-0.4,1.2-0.5,1.8
					c-0.3,0.8-0.5,1.5-0.8,2.2c-1.3,3.6-2.8,7.1-4.5,10.3c-0.1,0.3-0.3,0.6-0.4,0.8c-2,3.6-4,6.7-6.2,9.2c-3.5,4-7.2,6.8-11.2,8.1
					C551.8,668.8,551.8,668.5,551.8,668.3z M708.2,581C708.2,580.9,708.2,580.9,708.2,581c1.7-1.8,4.1-2.6,7.3-2.6
					c7.7,0,15.4,3.8,22.9,11.4c0.2,0.2,0.3,0.3,0.5,0.5c7.4,7.6,11,14.8,11,21.5c0,1.8-0.4,3-1.2,3.7c-0.8,0.8-2.4,1.1-4.8,1.1
					c-4.9,0-10.1-2.1-15.5-6.5c-4.2-3.3-8.4-7.7-12.7-13.2c-0.1-0.2-0.3-0.4-0.4-0.6l-8.6-13.1C707.1,582.3,707.6,581.6,708.2,581z"
					/>
			</g>
		</g>
		<g>
			<path class="st12" d="M617.4,642c3.9,0.5,7.9,0.5,12,0v116.5c-5.3,1.4-9.3,0.1-12-4v-67.8l-93.8-26l0.2,4.5l-0.8-0.8v-15.1l0.1,0
				l0.1,3.3h0l94.1,25.7V642z"/>
			<path class="st15" d="M617.4,642l-22.2-5.5l6.2-7.6l29.8,5c2,1.4,3,3.2,3,5.3c-1,1.2-2.6,2.1-4.8,2.8
				C625.4,642.4,621.4,642.4,617.4,642z"/>
		</g>
		<g>
			<g>
				<path class="st0" d="M688.9,618.1c-0.3,0.2-0.5,0.4-0.8,0.5c-3.2,2.1-7.1,3.1-11.5,3.1c-0.8,0-1.3-0.1-1.6-0.2
					c-0.3-0.2-0.8-0.5-1.6-1.1c-2.9,0.8-5.1,1.2-6.7,1.2c-0.2,0-0.3,0-0.5,0c-0.6-0.1-1.2-0.2-1.7-0.5c-0.8-0.5-1.1-1.2-1.1-2.2
					c0-1,0.3-2.2,0.9-3.6c-1.6,1.4-3.5,2.9-5.6,4.5c-2.3,1.1-3.9,0.9-4.9-0.7c0-0.7,0.1-1.5,0.4-2.3c1.1-3.6,4.6-9,10.8-16.1
					c3.8-2.6,6.3-2.3,7.4,1c2.9-1.2,6.5-3,10.8-5.3c9.5-5.2,18-11.4,25.4-18.4c4.5-0.9,8.6-1.2,12.3-0.9c8.4,0.6,14.8,3.6,19.2,8.9
					c1.6,2,3,4.4,4.1,7.1c0.2,7.1-3.9,12.5-12.2,16.4c-0.5,0.2-1.1,0.5-1.6,0.7c-8.1,3.4-17.9,4.6-29.4,3.8
					c-2.4-0.2-5.2-0.5-8.4-1.1v0C692.3,614.8,691.2,616.4,688.9,618.1z"/>
			</g>
			<g>
				<path class="st1" d="M688,610.1c-0.3,0.2-0.6,0.5-0.8,0.8c-0.7,0.6-1.3,1.1-1.8,1.6c-3.6,3.1-6.4,5.2-8.4,6.5
					c0.5,0.3,1.2,0.5,2.1,0.5c2.1,0,4.5-0.8,7.1-2.4c0.3-0.2,0.8-0.5,1.5-0.9c0.8-0.6,1.9-1.4,3.2-2.5c0.5-0.4,0.9-0.7,1.4-1
					c0,0.1,0,0.3,0,0.4c0,1.7-1.1,3.4-3.4,5.1c-0.3,0.2-0.5,0.4-0.8,0.5c-3.2,2.1-7.1,3.1-11.5,3.1c-0.8,0-1.3-0.1-1.6-0.2
					c-0.3-0.2-0.8-0.5-1.6-1.1c-2.9,0.8-5.1,1.2-6.7,1.2c-0.2,0-0.3,0-0.5,0c-0.6-0.1-1.2-0.2-1.7-0.5c-0.8-0.5-1.1-1.2-1.1-2.2
					c0-1,0.3-2.2,0.9-3.6c-1.6,1.4-3.5,2.9-5.6,4.5c-2.3,1.1-3.9,0.9-4.9-0.7c0-0.7,0.1-1.5,0.4-2.3c0.3,0,0.6,0,0.9,0
					c3,0,6.9-2.5,11.7-7.5c2-2.1,4-4.4,5.8-6.8c0.6,3-1.9,7.1-7.5,12.1c0.2,0.9,0.6,1.7,1.2,2.2c0.8,0.8,1.9,1.2,3.3,1.2
					c2.1,0,4.6-1,7.5-2.9c1.4-1,3.5-2.6,6.2-5c0.1-0.1,0.2-0.1,0.3-0.2c1.6-1.5,3-2.9,4.3-4.3c0.9,0.9,1.3,1.8,1.3,2.6
					c0,0.3-0.1,0.7-0.3,1C688.6,609.5,688.4,609.8,688,610.1z"/>
			</g>
			<g>
				<path class="st0" d="M685,629c0.3,0.5,1.7,1.7,4,3.7c2.3,1.9,4.1,5.6,5.5,11.2c0.1,0.2,0.1,0.4,0.1,0.6c0,0.4,0.1,0.7,0.1,1.1
					c0,0.4,0,1.5,0,3.2c0.1,0.8,0.1,1.6,0.2,2.5c0.6,7.7-1.8,14-7.1,19c-0.2,0.1-0.4,0.2-0.6,0.4c-0.2,0.1-0.3,0.2-0.5,0.3
					c-0.7,0.3-1.3,0.5-1.9,0.5c-1.1,0-2.4-3-4-8.9c-0.2-0.7-0.4-1.5-0.6-2.2c-0.6-2.8-1.1-5-1.6-6.8c0,4.3-0.3,8-1,11
					c-0.7,3.4-1.6,5.1-2.5,5.1c-0.3,0-0.7-0.1-1-0.2c-0.3-0.1-0.6-0.2-0.6-0.2c-1.1-10.2-2-17.1-2.7-20.8c-1.6-0.8-3.3-2.4-5.2-4.7
					c-1.5-1.9-3.2-4.3-5-7.2c-1.6-2.6-2.8-4.8-3.6-6.4c-2.4,0.6-4.9,1.2-7.4,1.8c-1.2,0.3-2.4,0.5-3.6,0.8c-1.1,0.2-2.2,0.5-3.3,0.7
					c-1.6,0.3-3.2,0.7-4.8,1c-15.9,3-29.4,4.3-40.4,3.9c-8-0.3-15.3-1.1-22-2.3c-1.4-0.2-2.8-0.5-4.1-0.8c-3.6-0.8-6.9-1.8-10-2.8
					c-0.3-0.1-0.6-0.2-0.9-0.3c2.4-4.7,5.4-9.4,8.9-13.9c1.2-1.5,2.4-3,3.6-4.5l10.8-10.8c3.8-0.1,7.5,0,11.2,0.2
					c5.8,0.3,11.6,0.9,17.4,1.8c1.1,0.2,2.1,0.4,3.2,0.6c9.2,1.6,18.2,3.6,26.9,6c1.2,0.3,2.4,0.6,3.5,1c1.5,0.4,2.9,0.9,4.4,1.3
					c11.4,3.4,20.6,7,27.5,10.8c1.6,0.9,3.4,2,5.2,3.2C683.9,628.2,684.4,628.6,685,629z"/>
			</g>
			<g>
				<path class="st1" d="M681.9,648.2c0,3.9,0.4,8,1.2,12.2h0c0.8,3.4,2.1,6.9,3.8,10.5c-0.7,0.3-1.3,0.5-1.9,0.5
					c-1.1,0-2.4-3-4-8.9c-0.2-0.7-0.4-1.5-0.6-2.2c-0.6-2.8-1.1-5-1.6-6.8c0-1.9-0.1-4-0.2-6.2c0.6-0.4,1.1-0.7,1.6-1
					c0.7-0.4,1.3-0.8,1.9-1.2C681.9,646.1,681.9,647.1,681.9,648.2z"/>
			</g>
		</g>
		<g>
			<path class="st19" d="M699.3,700.4c15.8,0,32.8-4,50.9-11.9c1.6-0.7,3.1-1.4,4.5-2c5-2.3,9.4-4.7,13.2-7.1
				c-1.4,5.4-4.8,10.1-10.2,14.3c-1.7,1.3-3.6,2.6-5.7,3.8c-9.6,5.5-19.8,8.2-30.7,8.2c-9.9,0-20.2-1.8-30.9-5.4
				c-0.1,0-0.2-0.1-0.4-0.1C693.2,700.3,696.3,700.4,699.3,700.4z M797,727.8c0,10.2-1,21.1-3,32.6c-2.4,14.2-6.1,27.2-10.9,38.9
				c-1.4,3.4-2.9,6.7-4.5,9.8c-6.7,13.1-14.8,23.4-24.3,30.9c-0.1,0.1-0.3,0.2-0.4,0.3c0.1-0.1,0.2-0.2,0.2-0.3
				c7.5-10.1,14.2-23.2,20.2-39.1c0.2-0.6,0.4-1.1,0.6-1.7c4.5-12.2,9.3-28,14.3-47.4c3-12,5.5-22.2,7.7-30.7
				C797,722.9,797,725.2,797,727.8z"/>
		</g>
	</g>
	<g>
		<path class="st22" d="M645.6,478.6c4.7-1.6,8.4-3.8,11.2-6.6c3,0.5,5.7,1.9,8,4.2c3,3,4.5,6.6,4.5,10.9c0,4.3-1.5,7.9-4.5,10.9
			c-0.7,0.7-1.4,1.3-2.1,1.8c-2.6,1.8-5.5,2.7-8.8,2.7c-4.3,0-7.9-1.5-10.9-4.5c-0.4-0.4-0.7-0.8-1.1-1.1c0.1-4.7,0.8-9.4,2.2-14
			C644.6,481.5,645,480,645.6,478.6z"/>
		<g>
			<path class="st0" d="M652.1,424.9l10.7,6.7l-3.2,6.4c5.4,14.8,4.7,25.9-2,33.3c-0.2,0.3-0.5,0.5-0.7,0.8c-2.8,2.8-6.6,5-11.2,6.6
				c-0.5,1.4-1,2.8-1.4,4.2c-1.4,4.6-2.1,9.3-2.2,14c0,0.5,0,1,0,1.4l3.6,5.8c-0.1,1.6-0.3,3.1-0.5,4.5c-0.3,1.9-0.8,3.7-1.4,5.3
				c-0.6,1.7-1.3,3.1-2.2,4.4c-4.5-0.2-8.5-1.6-12.1-4.3c-3-1.4-5.9-3-8.6-5c-5.1-3.8-10.5-9.5-16.2-17.2c0.3-0.6,0.5-1.3,0.8-2
				c1.4-3.5,2.4-6.9,3-10.3c-0.2-0.3-0.4-0.6-0.6-0.8c-11.1-15.8-16.6-29.5-16.6-41.3c0-11.1,4.4-20.5,13.2-28.2
				c7.7-6.7,15.6-10.1,23.7-10.1c2.2,0,4.3,0.3,6.2,0.8c1.4,0.4,2.4,0.8,3.1,1.3c0.2,0,0.3,0.1,0.5,0.1c4,1.5,7.9,7,11.5,16.4
				c0,0.1,0.1,0.2,0.1,0.3C650.5,420.1,651.3,422.4,652.1,424.9z"/>
		</g>
		<g>
			<path class="st22" d="M644.6,400.3c4.9,3.8,6.5,9.7,5,17.4c-3.9-9.9-7.9-15.4-12.2-16.6c-1.1,0.2-2.2,0.5-3.5,0.9
				c-3.7,1.1-6.5,2.5-8.6,4.2c-1.9,1.5-3.5,4.4-5,8.5c-2.1,5.6-3.1,12.4-3.1,20.3c0,1.9,0.1,3.8,0.2,5.7c1.9,4,2.8,9,2.8,15
				c0,5-1,9-3.1,11.9c1,0.5,1.8,1.2,2.3,2.1c0.9,1.5,1.3,3.8,1.3,6.8c0,1.7-0.6,3.5-1.8,5.4c-0.8,1.3-1.8,2.2-2.8,2.8
				c1.7,0.9,3.3,2,4.8,3.5c3.6,3.6,5.3,7.9,5.3,12.9c0,3-0.6,5.7-1.9,8.1c-0.6,1.2-1.3,2.3-2.2,3.4c-0.4,0.4-0.8,0.9-1.2,1.3
				c-1,1-2.1,1.9-3.2,2.6c-2.8,1.8-6,2.7-9.6,2.7c-5,0-9.3-1.8-12.9-5.4c-2.5-2.5-4.1-5.4-4.8-8.6c-0.3,0.1-0.6,0.1-1,0.1
				c-1.5,0.2-2.4,0.3-2.8,0.3c-4.4,0-7.9-1.2-10.2-3.5c-2.1-2.1-3.2-4.9-3.2-8.3c0-3.9,2.1-7.5,6.4-10.6c1.2-0.9,2.7-1.8,4.6-2.7
				c-0.9-0.2-1.7-0.6-2.5-1.3c-1.9-1.6-2.9-4.4-2.9-8.3c0-0.6,0-1.2,0.1-1.8c0.2-4.3,1.4-8.4,3.4-12.4c1-2.1,2.1-3.7,3.1-4.9
				c-0.8-1.8-1.4-3.4-1.9-4.6c-1.5-3.7-2.2-8-2.2-12.9c0-11.3,4.7-20.4,14-27.2c9.1-6.7,21-10,35.7-10c2.9,0,5.4,0.2,7.7,0.6
				c0.5,0.1,1,0.2,1.5,0.3C641.7,398.4,643.2,399.1,644.6,400.3z"/>
		</g>
		<g>
			<path class="st5" d="M648.2,456c1.3,0,3-0.4,5-1.1c1.6-0.6,2.9-1.2,3.9-1.9c-1.2,1.3-2.3,2.2-3.1,2.8c-2,1.3-4,1.9-5.9,1.9
				c-2.2,0-4-0.6-5.5-1.8c-0.6-0.5-1.1-1-1.5-1.5c0.5,0.3,1.2,0.5,2,0.8C644.8,455.7,646.5,456,648.2,456z"/>
			<g>
				<path class="st5" d="M647.7,428c0.3,1.1,0.3,2,0,2.9c-0.3,0.9-0.8,1.4-1.5,1.6c-0.8,0.2-1.5,0-2.2-0.5c-0.7-0.6-1.2-1.4-1.5-2.5
					c-0.3-1.1-0.3-2,0-2.9c0.3-0.9,0.9-1.5,1.6-1.6c0.8-0.2,1.5,0,2.2,0.6C647,426.1,647.5,426.9,647.7,428z"/>
			</g>
		</g>
		<g>
			<path class="st23" d="M644.6,400.3c4.9,3.8,6.5,9.7,5,17.4c-3.9-9.9-7.9-15.4-12.2-16.6c-1.1,0.2-2.2,0.5-3.5,0.9
				c-3.7,1.1-6.5,2.5-8.6,4.2c-1.9,1.5-3.5,4.4-5,8.5c-2.1,5.6-3.1,12.4-3.1,20.3c0,1.9,0.1,3.8,0.2,5.7c1.9,4,2.8,9,2.8,15
				c0,5-1,9-3.1,11.9c1,0.5,1.8,1.2,2.3,2.1c0.9,1.5,1.3,3.8,1.3,6.8c0,1.7-0.6,3.5-1.8,5.4c-0.8,1.3-1.8,2.2-2.8,2.8
				c1.7,0.9,3.3,2,4.8,3.5c3.6,3.6,5.3,7.9,5.3,12.9c0,3-0.6,5.7-1.9,8.1c-0.6,1.2-1.3,2.3-2.2,3.4c-0.4,0.4-0.8,0.9-1.2,1.3
				c-1,1-2.1,1.9-3.2,2.6c2.4-3,3.7-6.8,3.7-11.3c0-5.4-1.8-10-5.2-13.9c-2.2-2.4-4.4-4-6.6-4.7c2.4-2.2,3.6-5,3.6-8.5
				c0-4-1.3-7.4-3.9-10.1c-1.6-1.7-3.2-2.8-4.6-3.2c4-3.7,6-8.8,6-15.3c0-4.3-1.2-9.1-3.5-14.5c0-0.2,0-0.3,0-0.5
				c0-9.6,3-18.1,9-25.5c6.1-7.5,13-11.2,20.9-11.2c0.6,0,1.1,0,1.6,0c0.5,0.1,1,0.2,1.5,0.3C641.7,398.4,643.2,399.1,644.6,400.3z"
				/>
			<g>
				<path class="st23" d="M656.8,472c3,0.5,5.7,1.9,8,4.2c3,3,4.5,6.6,4.5,10.9c0,4.3-1.5,7.9-4.5,10.9c-0.7,0.7-1.4,1.3-2.1,1.8
					c0-0.1,0-0.2,0-0.4c0-4.1-1.4-7.8-4.3-11.1c-3.2-3.7-7.2-5.6-12.1-5.6c-0.7,0-1.4,0.1-2.1,0.2c0.4-1.4,0.9-2.8,1.4-4.2
					C650.2,477,654,474.8,656.8,472z"/>
			</g>
		</g>
	</g>
	<g>
		<g>
			<path class="st20" d="M508.7,670l8.3,82l27.8-45.3l4.1,8l-31,61.8L568,799v9.5l-32.5-13.8c-3.6-1.5-7.2-3-10.8-4.5l-1.4-0.5
				l31,77L548,876l-29.5-55.3v72.7c-3.4,0.9-6.6,0.4-9.6-1.4l-7-91.1l-29.6,44.7l-3.5-8.1l28.2-54l-46.9-22.4v-7.9l43.2,13.2
				L463.1,693c1.2-3,2.8-5.7,4.8-8.2l31.3,57.5l1.4-74.2C503.3,668,505.9,668.6,508.7,670z"/>
		</g>
		<g>
			<path class="st12" d="M523.4,708.1c11.4,17,19,38.8,22.8,65.5c3.8,26.6,2.6,50.3-3.5,71c-6.1,20.6-15.4,32.2-27.8,34.8
				c-12.4,2.6-24.3-4.6-35.8-21.6c-11.4-17-19-38.9-22.8-65.5c-3.8-26.6-2.6-50.3,3.5-70.9c6.1-20.7,15.3-32.3,27.8-34.8
				C500,683.8,511.9,691.1,523.4,708.1z M518.6,714.7c-9.9-15.4-20.2-22-30.9-19.7c-10.7,2.3-18.7,12.9-24,31.6
				c-5.3,18.7-6.3,40.1-3,64.2c3.2,24.1,9.8,43.9,19.7,59.3c9.9,15.4,20.2,22,30.9,19.6c10.7-2.3,18.7-12.8,24-31.5s6.3-40.1,3-64.2
				C535,749.9,528.5,730.1,518.6,714.7z"/>
		</g>
		<g>
			<path class="st24" d="M493.6,758.6c2.9-0.6,5.7,1.1,8.4,5c2.7,4,4.5,9.2,5.4,15.4c0.2,1.2,0.3,2.4,0.4,3.5
				c0.3,4.9-0.1,9.3-1.2,13.2c-1.4,4.9-3.6,7.6-6.5,8.2c-2.9,0.6-5.7-1.1-8.4-5c-2.7-4-4.5-9.2-5.4-15.4c0-0.3-0.1-0.6-0.1-1
				c-0.7-5.9-0.4-11.1,0.9-15.8C488.5,761.9,490.7,759.2,493.6,758.6z"/>
		</g>
		<g>
			<path class="st13" d="M491.3,657c18-3.3,35.3,6,51.9,28c16.6,21.9,27.6,50.1,33,84.5c5.5,34.3,3.8,64.8-5,91.5
				c-8.9,26.6-22.3,41.6-40.2,44.9c-18,3.3-35.2-6-51.8-27.9c-14.2-18.7-24.3-41.9-30.3-69.7c-1.1-4.8-2-9.7-2.8-14.8
				c-0.6-3.7-1.1-7.3-1.5-10.9c-3.5-30-1.3-56.8,6.6-80.6C459.9,675.3,473.3,660.3,491.3,657z M491.4,668.2
				c-15.5,3-27.1,16.6-34.7,40.7c-6.9,21.7-8.8,46.3-5.6,73.6c0.3,3,0.7,6.1,1.2,9.2c0.9,5.7,1.9,11.1,3,16.4
				c5.3,23.8,13.8,43.8,25.6,60c14.3,19.9,29.2,28.3,44.8,25.3c15.5-3,27.1-16.5,34.8-40.6c7.6-24.1,9.1-51.8,4.3-82.9
				c-4.7-31.1-14.2-56.5-28.5-76.5C521.8,673.6,506.9,665.2,491.4,668.2z"/>
		</g>
	</g>
</g>
<g id="content">
	<g>
		<g>
			<path class="st14" d="M671.1,516.9c3.1,1.2,5.9,3.4,8.4,6.6c2.4,3.2,3.8,6.4,4.1,9.8c0.4,3.3-0.4,5.8-2.4,7.2
				c-2,1.5-4.5,1.6-7.6,0.4c-3.1-1.2-5.9-3.4-8.3-6.6c-2.4-3.2-3.8-6.4-4.2-9.7c-0.3-3.3,0.5-5.8,2.5-7.2
				C665.5,515.8,668,515.7,671.1,516.9z"/>
			<g>
				<path class="st25" d="M680.5,529.9c0.2,2-0.4,3.5-1.6,4.4c-1.3,1-2.8,1.1-4.7,0.5c-1.8-0.7-3.5-1.9-4.9-3.8
					c-1.4-1.8-2.2-3.7-2.4-5.7c-0.1-2,0.4-3.4,1.7-4.4c1.2-0.9,2.8-1.1,4.6-0.5c1.9,0.7,3.6,1.9,5,3.8
					C679.6,526,680.4,527.9,680.5,529.9z"/>
			</g>
			<g>
				<path class="st20" d="M683.1,527.7c0.2,2-0.4,3.5-1.6,4.4c-1.3,1-2.8,1.1-4.7,0.4c-1.8-0.7-3.5-1.9-4.9-3.8
					c-1.4-1.8-2.2-3.7-2.4-5.7c-0.1-2,0.4-3.4,1.7-4.4c1.2-0.9,2.8-1.1,4.6-0.4c1.9,0.7,3.6,1.9,5,3.8
					C682.3,523.8,683,525.7,683.1,527.7z"/>
			</g>
		</g>
		<g>
			<path class="st26" d="M890.2,381.2c22.5,7.2,49.3,24.9,80.5,53.2c8.5,8.8,13.3,20,14.1,33.6c0.2,2.7,0.2,5.5,0.1,8.5
				c-0.2,4.3-0.5,8.6-0.8,12.7c-0.9,10.4-2.3,20.2-4.3,29.4c-0.6,3-1.3,5.9-2,8.8c1.1,6.7,2.2,14.8,3.3,24.2
				c0.5,3.6,0.9,7.5,1.4,11.5c0.7,5.8,1.3,12.1,2,18.8c0.9,8.6,1.8,17.9,2.8,27.8c1.7,17.1,3,32.1,4.2,45.1
				c2.6,29.9,3.8,48.9,3.5,57c-5.7,2.2-11.3,4.1-16.9,5.9c-0.8,0.3-1.6,0.5-2.5,0.8c-4.6,1.4-9.2,2.6-13.7,3.8
				c-20.2,4.9-39.6,7.1-58.2,6.3c-1.2,0-2.5-0.1-3.7-0.2c-8-0.5-15.9-1.5-23.6-3c-1.2-0.2-2.4-0.5-3.5-0.7
				c-10.5-2.4-20.7-5.6-30.5-9.9c-2.7-1.2-5.4-2.4-8.1-3.7c0-5,0.1-15.8,0.3-32.3c0.1-7.4,0.1-14.5,0.2-21.3c0.1-11.9,0.1-23,0-33.3
				c0-0.4,0-0.7,0-1.1c0-1.8-0.1-3.6-0.1-5.5c-0.1-5.3-0.4-11.2-0.8-17.5c-0.1-2.1-0.3-4.3-0.5-6.5c-0.3-4.1-0.7-8.4-1.1-12.8
				c-0.5-5.5-1.1-11.3-1.8-17.4c-0.1-0.9-0.2-1.9-0.3-2.8c-0.1-0.4-0.1-0.8-0.2-1.2c-0.1-0.5-0.3-1.1-0.4-1.6
				c-2.8-11.5-6.1-22.3-9.6-32.2c-3.3-9.2-6.9-17.8-10.9-25.6c-0.3-0.6-0.6-1.1-0.9-1.7c-1.3-2.6-2.7-5.1-4.1-7.6
				c-9.2,18.7-20.1,33-32.6,42.9c-15.8,12.5-34.1,18.1-55,16.6c-7.4-2-12.4-5.8-15.1-11.2c-3.1-6.1-3.3-14.4-0.5-24.9h0
				c3.6-0.9,7-1.9,10.2-2.9c14.8-4.7,26.3-10.5,34.3-17.5c14.5-25.4,24-51,28.4-76.9c0.7-3.9,2.1-7.5,4.2-10.9
				c1.1-1.8,2.4-3.5,4-5.1c0.8-0.8,1.6-1.6,2.5-2.4c0,0.3,0.1,0.5,0.1,0.8c12.2-8.6,24.8-14.7,37.8-18.2v0c1.4-0.3,2.7-0.7,4.1-1
				c0.2,0,0.3-0.1,0.5-0.1c1.1-0.2,2.1-0.5,3.2-0.7c19.5-3.8,39.1-3.2,58.6,1.7C889.2,380.9,889.7,381.1,890.2,381.2z"/>
		</g>
		<g>
			<g>
				<path class="st27" d="M814.4,411.5v-0.6c3.2-8.5,5.9-17.3,8-26.3c3.1,9.8,5.4,20,6.8,30.6c0.1,0.8,0.2,1.6,0.3,2.4
					c1.3,10,1.3,19.6,0.2,28.6c-0.3,2.2-0.7,4.4-1.2,6.6v0.5l-3.1,13.9l-8-6.1c-9.8-8.2-17.7-17.6-23.5-28.2
					c-0.8-1.4-1.5-2.9-2.2-4.3c-3.2-7-5.8-14.3-7.8-21.9l3.5-1.8c4.8,2.2,9.3,5.8,13.6,10.6l13.1-4.1
					C814.2,411.6,814.3,411.5,814.4,411.5z"/>
			</g>
		</g>
	</g>
	<g>
		<path class="st12" d="M771.4,360.8c0.5,0.8,0.6,1.7,0.3,2.7h0c-9.5,1.7-11.9,21.5-7.1,59.5l-2.9,0.5
			C756.3,381.8,759.5,361,771.4,360.8z"/>
	</g>
	<g>
		<path class="st28" d="M890.2,381.2c22.5,7.2,49.3,24.9,80.5,53.2c8.5,8.8,13.3,20,14.1,33.6c0.2,2.7,0.2,5.5,0.1,8.5
			c-0.2,4.3-0.5,8.6-0.8,12.7c-0.9,10.4-2.3,20.2-4.3,29.4c-0.6,3-1.3,5.9-2,8.8c1.1,6.7,2.2,14.8,3.3,24.2
			c0.5,3.6,0.9,7.5,1.4,11.5c0.7,5.8,1.3,12.1,2,18.8c0.9,8.6,1.8,17.9,2.8,27.8c1.7,17.1,3,32.1,4.2,45.1c2.6,29.9,3.8,48.9,3.5,57
			c-5.7,2.2-11.3,4.1-16.9,5.9c-0.8,0.3-1.6,0.5-2.5,0.8c-4.6,1.4-9.2,2.6-13.7,3.8c0-4.8-0.1-8.8-0.1-12.2c0-2.9,0-5.8,0-8.6
			c0-6.1,0.1-11.8,0.2-17.2c0-1,0.1-1.9,0.1-2.8c0-1.2,0.1-2.4,0.1-3.7c0.1-2.6,0.1-5.2,0.1-7.7c0.4-21,0-38.7-1.1-52.9
			c0-0.5-0.1-1-0.1-1.5c-0.4,0.1-0.7,0.2-1.1,0.3c-8.9,2.2-18.5,2-28.9-0.5c12.1-0.1,21.9-2,29.4-5.6c2.6-1.3,4.9-2.7,6.9-4.4
			c1.8-1.4,3.4-3.1,4.8-5c-0.3-4.3-0.7-9.1-1.2-14.5c-1.3-13.8-2.2-23.3-2.7-28.6c-5.2,1.9-10.5,3.4-15.8,4.6
			c-1.1,0.2-2.2,0.4-3.4,0.6c-7.1,1.3-15.7,2-25.7,2c-0.5,0-0.9,0-1.3-0.1l-0.7-11.3l2.9-0.6c0.2-3.8,0.3-7.8,0.3-11.9
			c0-10.3-1.1-19.5-3.3-27.8c-1-3.8-2.3-7.3-3.8-10.7c-1.7-3.9-3.8-7.6-6.2-10.9c-1.9-2.6-3.8-4.9-5.9-6.9c-1.8-1.7-3.7-3.2-5.6-4.5
			c-3-1.9-5.8-3.1-8.3-3.5c-2.2-7.9-3.9-14.4-5.2-19.5c24.5,2.7,39.7,13.5,45.8,32.5c0.3,1,0.6,2,0.9,3.1c0.9,3.3,1.5,6.9,1.8,10.7
			c0.1,0.8,0.1,1.6,0.2,2.4c0.7,12.8-1.4,28.2-6.3,46c7.6,4.1,15.6,5.8,24,5c0.6-0.1,1.2-0.1,1.7-0.2c6.2-19.2,10.3-37,12.4-53.3
			c0.3-2.1,0.5-4.1,0.7-6.1c0.6-5.9,0.8-11.6,0.8-17.1c0-10.7-0.7-19.9-2.2-27.4c-2.3,2.2-4.6,4.2-7,5.7c-3,2-5.6,3.2-7.8,3.6
			c2.7-1.9,5.1-4.2,7.2-7c2.5-3.2,4-6.1,4.8-8.6c-2.9-2.6-5.8-5.2-8.9-7.7c-15.2-12.5-30.9-23.1-47-31.6c-1-0.5-2-1.1-3-1.6
			c-9.8-5-18.2-8.5-25.3-10.6c-1.9,3.7-3.3,8-4.3,13.1c-1.1,5.7-1.7,12.3-1.7,19.9c0,0.7,0.2,2.5,0.5,5.4c0.3,2.7,0.6,4.7,0.9,6.1
			c-3.7-17.2-4.3-32.5-1.6-46c-2.4-0.4-4.6-0.6-6.5-0.6c-5,0-10.3,1-16,3.1c-0.8,0.3-1.7,0.6-2.5,1c2,2.3,3.8,4.8,5.7,7.3l-8.7,9.8
			l9.1,1.9c-3.4,19.3-9.7,39.8-19,61.5c4.8,9.1,8.2,15.8,10.2,20.2c0.2,0.4,0.4,0.9,0.6,1.3c5,10.9,9.4,22,13.2,33.3
			c0.1,0.3,0.2,0.5,0.2,0.8c1.8,5.7,3.5,11.4,5,17.1c3,11.4,5.4,23,7.2,34.7c0.5,3.6,1,7.3,1.4,11c0,0,0,0.1,0,0.1
			c0.4,3.8,0.8,7.7,1.2,11.5c0.1,1,0.2,1.9,0.3,2.9c2.1,22.9,3.1,46.1,3,69.5c0,5.9-0.1,11.8-0.3,17.6c0,0.4,0,0.9,0,1.3
			c-0.1,8.4-0.3,17.4-0.5,27c-1.2-0.2-2.4-0.5-3.5-0.7c0-9.6,0.1-18.8,0.2-27.7c0.3-6.2,0.5-12.4,0.6-18.6
			c0.3-17.6-0.2-35.1-1.4-52.6c-0.4-6.3-0.9-12.6-1.5-18.8c-0.4-3.9-0.8-7.7-1.2-11.6c0-0.2,0-0.3,0-0.5c-0.4-3.4-0.8-6.9-1.4-10.3
			c-1.7-11.9-4.1-23.6-7.2-35c-1.2-4.6-2.5-9.1-4-13.6c-0.5-1.6-1-3.3-1.6-4.9c-3.5-10.5-7.6-20.9-12.2-31.1c-0.4-1-0.9-1.9-1.3-2.9
			c-2.3-5-4.8-10-7.2-14.9c-0.6-1-1.2-1.9-1.8-2.9c-9.9-3.9-18.4-8.2-25.4-12.6c-7-4.5-12.6-9.3-16.8-14.3c-3.3-4-5.7-6.8-7.2-8.2
			l1.9-8.4H778c-1-9.5-1-19.5,0-29.9c1.1-1.8,2.4-3.5,4-5.1c-1.6,10.3-1.6,20.6,0,30.8h7.5l-2.6,11.7c6.2,8,13.3,15,21.5,21.1
			c7.2,5.3,15.1,9.9,23.8,13.7c0.3,0.4,0.5,0.8,0.8,1.2c0.2-0.4,0.3-0.8,0.5-1.3c0.2-0.5,0.4-1.1,0.6-1.6c0,0,0-0.1,0-0.1
			c0-0.1,0.1-0.3,0.2-0.6c7.1-20.1,11.7-39.2,13.8-57.1c0-0.2,0-0.3,0.1-0.5l-10.2-3.8l9.5-8.3c-1.4-2.5-2.9-5-4.4-7.3
			c-4.6-6.8-9.9-13.1-16-18.8c1.1-0.2,2.1-0.5,3.2-0.7c19.5-3.8,39.1-3.2,58.6,1.7C889.2,380.9,889.7,381.1,890.2,381.2z
			 M763.9,515.7c-2.5-0.8-5.6-2.8-9.2-6.1c-2.4-2.2-4.2-4.1-5.4-5.8c0.5-0.6,1.1-1.2,1.6-1.8c1.3-1.5,2.4-2.7,3.2-3.7v0.4
			c1,3.8,3.1,8.1,6.5,12.9C761.8,513.2,762.9,514.5,763.9,515.7z M769.1,524.7c4.4-3.5,8.4-7.5,12-12c7.4-9.4,12.9-20.4,16.2-33
			c3.8,5.9,6,9.5,6.8,10.9c-9.2,18.7-20.1,33-32.6,42.9c-15.8,12.5-34.1,18.1-55,16.6c-7.4-2-12.4-5.8-15.1-11.2
			c-3.1-6.1-3.3-14.4-0.5-24.9c10.6,11.1,16.6,20,18,26.7h0C739.1,540.5,755.8,535.2,769.1,524.7z M831.2,566.6
			c-0.1-0.5-0.3-1-0.4-1.4l27.8,0.5l2.6,52.3c-6.1,2.5-12.3,3-18.8,1.8c0.6-0.4,1.2-0.8,1.8-1.2c4.1-3.2,7-7.5,8.8-13
			c1.1-3.2,1.8-6.7,2.1-10.6c0.1-1,0.2-2,0.2-3.1c0-0.9,0.1-1.8,0.1-2.8c0-5.8-1.1-12.7-3.2-20.6c-0.1-0.3-0.1-0.6-0.2-0.8
			c-5.6,1.3-11.1,1.5-16.5,0.8c-1.4-0.2-2.8-0.5-4.1-0.8C831.3,567.3,831.3,566.9,831.2,566.6z"/>
	</g>
	<g>
		<g>
			<path class="st0" d="M729.4,356.4c12.3-26.8,35.1-38,68.5-33.6l24.1,58c4.6,7.5,1.2,23.9-10.2,49.1c-4.7-6.7-10.1-12.2-16-16.5
				c-2.1-1.5-4.3-2.9-6.5-4.1c-4.1,2.8-8.4,4.2-13,4.2c-13,0-24.3-8.7-34.2-26c-3.2-5.6-6-11.6-8.4-18
				C732,365.3,730.6,360.9,729.4,356.4z"/>
		</g>
		<g>
			<g>
				<path class="st29" d="M792.6,313.7c0.4,0.1,0.7,0.3,1,0.4c0.4-0.2,1-0.3,1.6-0.5c1.4-0.4,2.4-0.5,3-0.5c5,0,8.7,2.9,11.1,8.8
					c2.5,6.1,3.8,15.6,3.8,28.5c0,1.9,0.3,6.1,0.8,12.6l-5.6-4.9c-0.1-3.5-0.7-6.6-1.8-9.3c-1.2-2.9-2.6-4.4-4-4.4
					c-1.2,0-2.4,0.7-3.5,2.1c-1.4,1.7-2.1,3.8-2.1,6.2c0,0.7,0.1,1.4,0.2,2.1c-8,0-14.9-5-20.6-15.2c-19.7,15.9-38.7,21.1-57,15.6
					c-0.4-2.1,0.9-5.4,3.7-9.9c3.1-4.9,7.2-9.6,12.5-14.1c9.6-8.3,20.1-13.7,31.5-16.4c5.3-1.2,10.7-1.8,16.4-1.8
					C788.2,313.1,791.2,313.3,792.6,313.7z"/>
			</g>
			<g>
				<path class="st5" d="M792.6,313.7c0.4,0.1,0.7,0.3,1,0.4c0.4-0.2,1-0.3,1.6-0.5c1.4-0.4,2.4-0.5,3-0.5c5,0,8.7,2.9,11.1,8.8
					c2.5,6.1,3.8,15.6,3.8,28.5c0,1.9,0.3,6.1,0.8,12.6l-2.1-1.9c0-0.7,0-1.5,0-2.2c0-10.2-1.1-18.9-3.5-26c-2.8-8.7-6.9-13-12.3-13
					c-4.3,0-8,1-11.2,3c-0.7-1.5-1.9-2.8-3.6-4c-3.2-2.2-7.9-3.5-14-4c5.3-1.2,10.7-1.8,16.4-1.8
					C788.2,313.1,791.2,313.3,792.6,313.7z"/>
			</g>
		</g>
		<g>
			<path class="st30" d="M822.2,415.9c2.8,0.5,5.9,1.7,9.3,3.7c0.1,0.8,0.2,1.6,0.3,2.4c-3.3-1.8-6.7-2.8-10.3-3.1
				c-0.1,0.6-0.2,1.2-0.3,1.9c-0.8,4.1-1.2,8.3-1.3,12.5c0.4,0.6,0.9,1.3,1.4,2.1c2.8,4.3,4.7,7.3,5.8,8.9c1.6,2.3,3.3,4.5,5,6.4
				c-0.3,2.2-0.7,4.4-1.1,6.6l-17.2-27.1l3.1-14.4C818.4,415.5,820.2,415.5,822.2,415.9z M803.9,422.7c-1.1,0.9-2.2,2-3.2,3.2
				c-2.7,3.4-4.2,7.2-4.5,11.4c-0.8-1.4-1.5-2.8-2.2-4.3c0.5-6,3.3-10.2,8.5-12.7L803.9,422.7z"/>
		</g>
		<g>
			<path class="st13" d="M818.2,415.1l-3.5,14.1l16.1,27.3v0.5l-3.1,13.9l-8-6l-8.9-34.9l-7.5-10.2
				C806.8,417.2,811.7,415.6,818.2,415.1z"/>
		</g>
		<g>
			<g>
				<g>
					<path class="st5" d="M755.5,381.4c0.3,1.1,0.4,2.1,0.2,3c-0.2,1.1-0.6,1.8-1.3,2.1c-0.8,0.2-1.6,0-2.5-0.6
						c-0.8-0.6-1.4-1.5-1.8-2.6c-0.3-1.1-0.4-2.2,0-3.2c0.2-1,0.6-1.6,1.4-1.8c0.7-0.2,1.5-0.1,2.2,0.4
						C754.5,379.3,755,380.2,755.5,381.4z"/>
				</g>
				<g>
					<path class="st5" d="M772.8,376.2c-0.8-0.6-1.3-1.5-1.8-2.7c-0.5-1.1-0.6-2.1-0.3-3c0.3-1.1,0.8-1.8,1.5-2
						c0.7-0.2,1.5,0,2.3,0.8c0.7,0.5,1.3,1.4,1.8,2.6c0.4,1,0.5,2,0.2,3c-0.2,1.1-0.6,1.7-1.2,1.9
						C774.4,377,773.6,376.8,772.8,376.2z"/>
				</g>
			</g>
			<g>
				<path class="st5" d="M773.8,390.7c-3.3,3.2-6.6,5.1-9.8,5.7c-2.2-7.4-3.2-16.1-3.1-26.3c0.8,9.7,2.5,17.7,5,23.9L773.8,390.7z
					 M786.3,389.2C786.4,389.2,786.4,389.2,786.3,389.2c0.2,0.5,0.4,1.2,0.7,2.1c-0.4,0.8-0.9,1.6-1.5,2.5c-2.4,3.5-5.5,6.2-9.3,8.2
					c-0.5,0.2-1.1,0.5-1.6,0.7c-1.2,0.4-2.3,0.7-3.5,0.9c-1.6,0.2-3.1,0.2-4.6-0.1c3-0.3,5.7-1,8.1-2.1c3.8-1.8,6.8-4.4,9.1-7.9
					c0.7-1,1.3-1.9,1.8-2.9C785.9,390.1,786.1,389.6,786.3,389.2z"/>
			</g>
		</g>
		<g>
			<path class="st31" d="M805.4,390.6c0,7.2-2.6,14-7.8,20.6c-0.6,0.7-1.2,1.5-1.9,2.2c-2.1-1.5-4.3-2.9-6.5-4.1
				c1-0.7,2.1-1.5,3.1-2.4c5.3-4.7,9.5-11.4,12.8-20C805.3,388.1,805.4,389.3,805.4,390.6z"/>
		</g>
	</g>
	<g>
		<g>
			<path class="st12" d="M806.3,360c-0.4-1-0.4-1.9,0-2.8c11.7-1.8,18,18.2,18.7,60.2l-2.9,0.1C821.2,379.1,816,360,806.3,360
				L806.3,360z"/>
		</g>
		<g>
			<path class="st13" d="M807.3,359.4l-0.6,1.3c-1.7,0.2-2.9,0-3.5-0.7c-0.7-0.8-0.8-2-0.1-3.4c0.9-0.9,2-1.2,3.5-0.9
				c0.4,0.3,0.6,0.9,0.6,1.8C806.9,358,806.9,358.7,807.3,359.4L807.3,359.4z"/>
		</g>
		<g>
			<path class="st13" d="M826.2,417.3c0,0.7,0.1,1.4,0.2,2.1c0.8,11.5-1.7,21.6-7.5,30.2c-3.7,5.6-8,9.5-13,11.8
				c-2.7,4.7-3.9,9.3-3.7,13.9c-0.7,0.4-1.3,0.6-2,0.9c-0.4,13.3-0.6,24.4-0.5,33.3c0.1,8.9-0.5,19.1-1.8,30.6
				c-1.2,11.5-5.8,20.6-13.8,27.4c-8,6.8-17.1,10.4-27.4,11c-10.3,0.6-19.8-1.4-28.5-6.1c-8.7-4.6-16.1-10.2-22.3-16.6
				c-6.2-6.5-15.5-17.1-28-32c0.5-2.4,1.8-3.5,3.9-3.4c11,12.8,19.3,22.4,24.9,28.7c5.6,6.3,12.7,12,21.3,17.2
				c8.6,5.2,18,7.6,28,7.3c10.1-0.3,18.7-3.9,25.8-10.9c7.1-7,11.1-15.5,12-25.5c0.9-10,1.3-19.9,1.3-29.6c0-9.7,0.1-17,0.3-22
				c0.2-5,0.2-8,0.1-9c-0.6,0-1.5-0.3-2.5-1c0-4.5-1.2-8.5-3.6-12c-6.2-1.1-11.9-4.4-17-10c-7-7.5-10.9-17.1-11.7-28.6
				c-0.1-0.7-0.1-1.4-0.1-2.1c1.6-1.4,3.3-1.5,5.1-0.4c0,0.5,0,1.1,0,1.6c0.7,9.6,4,17.6,9.9,23.9c5.9,6.4,12.8,9.3,20.4,8.7
				c7.6-0.7,13.9-4.7,18.8-12c4.9-7.3,7-15.7,6.3-25.3c0-0.6-0.1-1.2-0.2-1.9C822.6,415.8,824.3,415.8,826.2,417.3z"/>
		</g>
	</g>
	<g>
		<path class="st0" d="M677.6,502.9c1.2-0.3,2.4-0.6,3.8-0.9c1.7-0.4,3.1-0.3,4.1,0.2c1,0.4,1.8,0.8,2.4,1.1
			c0.4,0.2,0.8,0.4,1.1,0.6c0.1,0.1,0.2,0.2,0.2,0.2c0.2,0.1,1,0.8,2.5,2.1c1.1,1,2.5,2.3,4.4,4c0.4,0.4,0.8,0.8,1.2,1.2
			c0.4,0.3,0.7,0.6,1,0.9c0.2,0.2,0.3,0.3,0.5,0.4c0.2,0.1,0.3,0.3,0.5,0.5c2.2,2,3.9,3.7,5.2,5.1c0.2,0.3,0.5,0.5,0.7,0.7
			c2.6,2.8,5.1,5.9,7.3,9.3c1.1,1.7,2.2,3.6,3.3,5.5c-0.4,0.4-1,0.9-1.8,1.6c-0.5,0.3-0.9,0.6-1.5,0.8c-1.6,0.7-3.5,1.1-5.7,1.1
			c-1.8,0-3.5-0.3-5.3-1c-1.1-0.4-2.6-1.1-4.3-2.1c-0.5-0.2-1-0.5-1.6-0.9c-0.7-0.4-1.5-1-2.3-1.6c-0.1-0.1-0.1-0.1-0.2-0.2
			c-0.3-0.2-0.5-0.3-0.6-0.5c-0.5,0.2-1,0.3-1.5,0.5c-0.9,0.3-1.9,0.7-3,1.1c-3,1-5.4,1.5-7.1,1.5c-3.1,0-5.4-0.7-6.9-2.2
			c-0.1-0.1-0.2-0.2-0.3-0.3c-0.8-1-1.2-2.1-1.2-3.4c0-0.6,0.4-1.1,1.2-1.6c0.3-0.2,0.6-0.3,1-0.5c0.7-0.3,1.6-0.5,2.6-0.9
			c1.4-0.4,2.8-0.8,4.2-1.3c-1-1.6-2-3-3.2-4.1c-2.2-2.2-4.8-3.4-7.8-3.8c-1.3,0.7-3,1.6-5,2.8c-1.9,1-3.5,1.4-4.8,1.4
			c-0.8,0-1.5-0.2-2.1-0.5c-0.5-0.3-0.8-0.7-0.8-1.1l0.1-0.8v0c0,0,0-0.1,0-0.1c0-1,2.3-3.2,6.9-6.6c4.2-3.2,8.1-5.8,11.9-7.8
			C677,503,677.3,502.9,677.6,502.9z"/>
		<g>
			<path class="st1" d="M686.6,515.6C686.6,515.6,686.6,515.7,686.6,515.6c0.1,0.1,0.2,0.2,0.2,0.2c0.7,0.8,1.4,1.6,2.1,2.5
				c0.4,0.5,0.8,1,1.2,1.6c-0.4,0.2-0.8,0.5-1.2,0.7c-2.4,1.3-4.9,2.4-7.5,3.3c-1-1.6-2-3-3.2-4.1c-2.2-2.2-4.8-3.4-7.8-3.8
				c0.2-0.1,0.4-0.2,0.6-0.3c3.7-1.9,7.6-3.2,11.6-3.7c0.9,0.6,1.8,1.3,2.7,2.2C685.8,514.7,686.2,515.1,686.6,515.6z"/>
		</g>
	</g>
</g>
<g id="Layer_10">
	<polygon class="st32" points="813,348.6 813,350 807.3,351.4 806.6,349 	"/>
</g>
<g id="Layer_7">
	<polygon class="st32" points="796.8,351.5 793,365.3 796.6,368.4 796.8,352.6 	"/>
</g>
<g id="Layer_9">
	<polygon class="st32" points="479.7,292.3 500.2,331.5 504,323.7 480.9,291.2 	"/>
</g>
<g id="Layer_8">
	<path class="st33" d="M508.1,323.1c0,0,21.3,5.9,39.4,2c0,0-0.9,24.5-16.6,28.6s-32-11.8-33.8-21.3
		C495.4,323,508.1,323.1,508.1,323.1z"/>
</g>
<g id="Layer_6">
	<path class="st33" d="M741.9,392.1c0,0,30.4-0.2,51.1-26.8c0,0,10.7,2.9,12.1,21.5c0,0-6.2,16.3-15.8,22.5S755.9,420.7,741.9,392.1
		z"/>
</g>
</svg>
